<svg width="800" height="800" xmlns="http://www.w3.org/2000/svg"><path d="M477.61,364.49 L476.48,363.12 L476.1,355.0 L472.37,349.92 L471.5,346.86 L475.0,341.87 L476.28,337.56 L476.11,334.84 L474.3,329.71 L474.69,327.09 L477.06,326.29 L481.19,330.18 L482.16,329.45 L473.4,317.77 L471.74,317.73 L468.23,319.86 L463.2,325.3 L461.61,332.26 L461.7,335.34 L463.54,339.9 L467.34,342.39 L467.47,344.86 L458.01,356.44 L459.86,359.49 L459.55,361.33 L451.85,364.95 L448.97,364.89 L446.86,363.49 L443.34,355.35 L437.14,353.58 L432.54,349.79 L427.23,351.86 L422.49,357.03 L420.98,357.1 L419.96,355.83 L419.99,353.01 L422.23,347.12 L429.39,333.72 L429.11,329.8 L426.61,321.99 L427.24,314.68 L424.92,312.01 L422.62,311.72 L418.38,313.78 L416.36,318.85 L410.96,321.47 L409.49,323.63 L408.7,328.34 L412.9,335.16 L412.85,337.09 L411.76,338.64 L409.97,339.33 L405.95,339.25 L400.87,338.15 L398.77,336.64 L398.44,334.43 L400.19,322.38 L396.05,316.88 L393.6,304.99 L394.07,298.46 L391.38,295.76 L387.86,285.9 L390.27,276.47 L391.5,263.09 L391.1,259.98 L388.73,253.97 L387.79,239.73 L389.18,238.38 L391.99,239.38 L394.19,241.5 L396.26,245.23 L398.26,246.38 L402.22,245.5 L406.04,241.85 L407.31,238.08 L406.43,230.47 L402.55,222.87 L404.2,218.78 L404.07,212.32 L396.43,208.16 L388.12,200.93 L386.32,200.62 L381.95,201.7 L374.94,199.61 L373.09,200.12 L376.82,203.07 L381.19,202.24 L383.64,203.27 L384.96,210.76 L389.06,215.5 L389.09,217.01 L387.8,217.97 L383.67,217.04 L376.82,210.89 L367.65,205.62 L350.41,204.57 L343.92,207.99 L338.83,208.82 L336.45,208.1 L335.53,206.72 L335.88,204.46 L340.54,197.84 L343.03,196.76 L348.18,196.29 L349.65,195.34 L350.95,187.92 L353.27,185.29 L356.05,184.85 L371.04,186.49 L379.06,185.85 L398.09,192.88 L407.39,194.7 L414.12,199.99 L422.88,202.22 L428.63,204.57 L433.0,207.37 L440.61,212.84 L442.62,215.28 L442.73,222.26 L447.08,228.56 L447.13,230.68 L445.56,230.7 L446.68,231.12 L448.04,233.86 L450.71,234.77 L454.17,237.33 L457.86,242.77 L461.17,246.11 L464.11,247.38 L468.07,247.35 L470.43,249.37 L471.73,252.27 L471.89,255.48 L475.61,259.3 L475.95,264.14 L479.04,271.13 L478.93,274.54 L481.03,276.57 L486.76,288.26 L486.89,291.07 L484.83,293.78 L486.43,299.88 L490.01,301.75 L492.79,307.15 L498.09,324.1 L498.84,331.16 L497.45,335.0 L495.02,335.31 L491.64,327.81 L489.09,336.56 L486.5,338.36 L483.05,337.98 L481.99,339.12 L481.7,342.35 L485.08,349.9 L485.85,354.1 L481.27,362.6 L478.26,364.57Z" fill="rgb(216,77,78)"></path><path d="M325.45,217.73 L323.3,216.94 L321.17,213.32 L316.62,209.62 L316.67,207.15 L319.32,204.13 L315.68,200.68 L315.82,199.14 L317.18,198.12 L320.86,198.43 L325.13,202.0 L329.53,203.79 L332.89,207.21 L336.42,208.62 L335.79,210.11 L330.83,210.83 L324.76,208.71 L327.55,214.24 L327.54,215.8 L326.16,217.49Z" fill="rgb(216,77,78)"></path><path d="M293.51,232.83 L290.0,231.94 L283.98,232.47 L280.02,231.66 L278.28,229.84 L276.32,223.97 L277.0,221.42 L278.7,219.94 L288.04,214.2 L294.14,211.96 L300.18,212.55 L302.87,213.59 L303.41,215.92 L301.97,216.84 L304.48,219.31 L304.01,223.95 L306.7,226.42 L309.97,227.21 L311.1,229.1 L308.82,230.92 L304.24,230.62 L294.23,232.74Z" fill="rgb(216,77,78)"></path><path d="M303.96,213.13 L304.01,213.14Z" fill="rgb(216,77,78)"></path><path d="M450.39,320.16 L454.25,317.75 L456.26,314.46 L456.3,311.65 L454.14,307.23 L449.42,302.77 L441.9,304.01 L438.67,302.97 L436.97,301.26 L431.73,291.72 L429.92,290.01 L427.76,289.73 L424.89,292.17 L423.63,295.11 L424.69,301.32 L425.85,303.75 L430.27,307.33 L434.63,312.65 L442.85,314.32 L444.85,315.78 L447.62,319.66 L449.9,320.38Z" fill="rgb(216,77,78)"></path><path d="M449.49,354.13 L452.7,351.33 L454.26,348.42 L454.49,341.21 L453.83,338.37 L449.82,333.75 L447.02,331.81 L442.46,329.74 L438.38,330.16 L436.51,331.77 L434.93,334.9 L434.96,341.76 L442.21,348.29 L446.22,353.03 L449.14,354.28Z" fill="rgb(216,77,78)"></path><path d="M617.52,411.97 L614.27,411.23 L608.08,405.94 L599.99,405.44 L598.72,404.44 L597.98,401.92 L599.13,394.96 L603.29,391.36 L606.1,390.95 L607.84,391.66 L610.12,396.03 L616.33,394.4 L619.65,392.44 L620.07,390.71 L617.93,384.28 L618.58,382.65 L619.84,382.71 L620.99,384.08 L626.83,384.61 L628.48,386.87 L626.74,394.95 L620.77,401.62 L620.18,409.12 L618.26,411.71Z" fill="rgb(216,77,78)"></path><path d="M174.54,427.04 L172.19,427.03 L169.26,425.76 L168.22,423.71 L168.17,420.96 L168.95,419.44 L171.15,418.09 L173.02,418.04 L174.79,419.01 L178.2,413.26 L181.94,410.41 L180.95,407.93 L179.25,407.77 L175.67,402.84 L176.3,399.89 L179.52,397.66 L186.06,397.59 L188.93,398.56 L189.83,401.08 L187.97,402.84 L191.12,405.59 L191.09,409.06 L193.07,406.45 L197.15,404.1 L199.82,404.66 L200.52,406.12 L199.48,408.13 L196.8,409.71 L196.58,412.85 L195.48,415.08 L193.86,415.98 L188.24,415.95 L181.22,423.87 L175.28,426.85Z" fill="rgb(216,77,78)"></path><path d="M336.44,458.67 L334.93,458.34 L333.9,456.94 L331.11,447.0 L329.72,444.72 L324.27,440.5 L320.1,438.69 L317.32,439.83 L315.94,441.92 L315.21,451.06 L314.1,453.46 L312.81,454.23 L310.47,453.84 L306.92,455.99 L304.33,456.48 L301.87,456.43 L300.21,454.76 L300.46,452.14 L302.35,449.81 L308.21,447.26 L306.72,438.93 L308.66,431.16 L310.17,430.14 L312.08,430.06 L315.74,432.91 L317.9,432.48 L318.58,427.16 L321.2,421.79 L323.39,421.75 L325.57,422.84 L328.91,426.5 L337.65,431.71 L339.74,434.25 L340.36,439.06 L338.61,447.3 L338.29,456.02 L337.12,458.35Z" fill="rgb(216,77,78)"></path><path d="M669.47,474.76 L667.41,474.06 L664.29,470.77 L657.8,469.61 L655.77,469.72 L648.84,472.91 L646.92,472.88 L645.34,471.99 L642.8,468.47 L641.79,463.95 L645.2,444.89 L643.1,438.88 L643.74,437.21 L645.22,436.39 L646.83,436.65 L652.94,441.06 L659.85,442.07 L665.01,441.08 L669.03,443.75 L669.96,447.98 L667.62,457.66 L671.47,464.42 L673.14,470.11 L672.55,472.83 L670.21,474.64Z" fill="rgb(216,77,78)"></path><path d="M246.57,622.11 L233.99,621.84 L224.19,619.83 L218.62,616.97 L215.29,612.77 L206.01,612.02 L201.66,610.05 L198.79,607.68 L190.27,593.73 L190.26,587.53 L187.73,581.58 L184.55,578.69 L184.46,577.01 L186.36,573.86 L185.83,571.37 L184.3,569.3 L179.39,566.17 L177.35,563.94 L172.87,555.92 L173.07,551.45 L167.92,544.27 L166.05,539.24 L160.56,532.64 L157.82,523.77 L154.02,522.4 L152.91,521.09 L152.49,518.69 L153.48,516.79 L155.59,516.89 L157.03,519.01 L158.25,516.64 L157.82,514.35 L154.62,508.5 L154.85,506.16 L156.14,505.53 L159.93,508.06 L163.75,508.05 L170.61,499.1 L173.51,497.65 L175.06,497.95 L176.1,499.18 L176.89,508.14 L182.36,519.91 L184.22,520.3 L187.15,518.21 L191.91,516.6 L192.28,509.78 L187.86,500.77 L186.7,499.99 L183.7,502.5 L182.01,502.54 L179.74,500.67 L178.15,497.81 L178.42,495.17 L181.95,488.63 L183.3,487.46 L185.83,487.59 L189.75,490.98 L192.54,491.87 L197.4,495.48 L197.95,493.42 L200.3,491.42 L203.99,490.96 L207.33,488.4 L210.56,488.94 L214.19,493.26 L220.61,497.89 L222.44,500.44 L225.23,511.07 L223.63,518.07 L224.31,520.29 L226.74,522.5 L236.61,527.84 L242.16,536.04 L251.05,538.38 L252.69,538.07 L255.86,534.31 L260.79,530.29 L264.7,526.33 L267.54,521.99 L269.97,521.66 L271.84,524.17 L277.67,522.11 L292.45,504.85 L300.83,501.13 L307.29,496.72 L317.44,486.81 L324.1,483.91 L329.04,483.56 L333.61,484.58 L336.69,486.9 L337.68,490.09 L335.82,491.79 L332.03,490.7 L327.93,491.28 L322.74,490.73 L316.3,495.67 L313.92,499.92 L312.68,504.89 L317.28,514.91 L319.08,515.08 L322.77,513.14 L328.12,508.73 L339.52,496.01 L343.08,494.49 L346.74,496.24 L347.71,498.31 L346.52,508.81 L347.91,513.74 L349.94,515.3 L354.35,513.88 L356.05,515.23 L355.74,518.85 L353.93,521.55 L350.77,523.66 L345.78,525.5 L339.56,531.19 L336.73,532.5 L335.28,532.17 L334.75,530.35 L340.81,521.74 L341.46,518.96 L341.07,516.3 L337.23,511.38 L335.26,510.62 L330.43,513.04 L325.88,517.19 L321.82,524.2 L322.36,530.07 L320.66,536.02 L324.33,536.3 L332.33,532.6 L333.85,532.87 L334.47,534.85 L328.63,545.01 L323.96,549.68 L327.48,552.35 L327.54,555.86 L318.88,565.18 L315.16,572.57 L310.64,577.41 L306.64,577.34 L305.12,576.45 L303.74,573.88 L299.79,573.72 L291.95,578.47 L285.47,585.19 L281.92,586.25 L277.91,584.72 L276.63,583.04 L276.44,580.73 L278.9,578.0 L288.97,575.01 L287.88,570.9 L289.22,565.92 L288.62,564.78 L285.23,564.94 L283.4,567.88 L280.91,569.36 L280.22,571.0 L278.83,571.84 L275.16,570.44 L274.95,569.1 L276.48,568.57 L274.15,567.46 L273.25,565.96 L271.02,570.71 L264.5,574.07 L262.49,573.78 L258.74,570.62 L250.06,570.93 L245.54,571.99 L243.94,574.96 L245.71,585.18 L247.13,586.99 L254.96,587.12 L259.91,582.31 L263.07,581.33 L265.11,582.58 L265.8,585.11 L260.99,591.87 L262.89,594.47 L268.9,597.31 L279.03,593.24 L281.96,594.63 L282.92,597.13 L282.15,599.55 L279.77,602.57 L280.91,608.13 L279.28,611.01 L261.99,619.06 L247.3,621.9Z" fill="rgb(216,77,78)"></path><path d="M207.04,527.15 L208.25,524.63 L207.74,519.91 L208.42,517.14 L210.5,514.81 L215.11,511.81 L217.26,505.54 L214.19,500.33 L211.16,498.69 L208.48,500.02 L205.5,503.31 L201.12,504.61 L200.52,507.82 L201.72,522.19 L205.1,527.01 L206.72,527.39Z" fill="rgb(216,77,78)"></path><path d="M529.57,593.11 L524.98,593.48 L520.96,592.83 L519.52,591.68 L518.86,588.91 L519.57,587.06 L521.14,586.03 L530.75,586.05 L537.14,579.6 L535.59,575.21 L532.41,574.59 L528.09,575.64 L527.12,574.91 L526.49,572.66 L527.26,570.52 L530.36,568.26 L531.4,563.01 L532.91,561.22 L535.18,560.55 L536.97,562.18 L536.52,568.8 L537.24,572.19 L540.32,569.77 L544.63,572.08 L546.94,571.87 L549.93,570.58 L554.16,562.81 L552.07,557.88 L553.59,554.92 L556.85,554.73 L559.36,558.92 L560.61,559.42 L561.8,558.67 L563.57,554.7 L576.08,548.47 L585.3,550.39 L592.13,550.33 L593.23,549.29 L594.59,542.17 L603.19,539.16 L605.7,539.77 L606.31,541.89 L600.2,549.29 L599.62,551.73 L600.49,554.21 L602.16,556.04 L605.54,557.27 L614.0,557.1 L617.24,554.83 L618.38,552.65 L618.43,545.47 L616.61,541.65 L616.84,540.06 L618.18,539.18 L620.62,539.6 L625.61,544.23 L629.04,543.54 L635.1,527.03 L636.18,525.78 L640.01,525.09 L646.06,521.81 L650.59,522.27 L652.22,523.4 L651.11,525.8 L646.24,527.95 L644.35,529.63 L642.36,534.85 L638.8,536.82 L639.17,539.08 L646.55,540.99 L653.11,538.01 L658.32,537.3 L660.62,536.21 L662.84,528.44 L667.0,523.87 L668.93,519.44 L672.12,517.62 L672.88,509.95 L674.24,507.86 L675.62,507.89 L677.34,509.49 L678.93,515.19 L686.39,515.54 L687.24,514.62 L684.76,509.68 L686.23,507.96 L689.84,508.56 L692.5,511.19 L696.35,507.59 L698.0,507.55 L700.9,509.0 L706.35,503.52 L708.8,503.8 L709.67,505.2 L709.42,507.59 L702.43,523.63 L695.54,533.47 L697.06,535.22 L696.93,538.02 L692.25,547.39 L690.62,549.22 L687.73,548.74 L685.58,546.03 L677.97,552.65 L660.94,564.68 L643.91,571.09 L632.67,572.7 L608.98,580.28 L592.61,582.7 L582.84,584.97 L569.67,585.7 L558.97,589.28 L545.06,588.83 L530.3,592.9Z" fill="rgb(216,77,78)"></path><path d="M296.1,525.12 L299.45,520.85 L302.25,519.23 L306.05,518.96 L308.84,520.35 L310.08,519.41 L303.26,516.32 L299.27,510.8 L297.72,510.73 L293.26,512.91 L291.72,514.72 L288.58,523.57 L290.58,525.26 L295.7,525.38Z" fill="rgb(216,77,78)"></path><path d="M172.55,536.33 L172.52,531.4 L175.35,527.24 L176.37,523.91 L174.51,517.79 L172.38,515.52 L170.95,515.06 L168.45,520.85 L165.01,524.11 L164.7,527.35 L167.48,533.21 L169.71,535.48 L172.45,536.54Z" fill="rgb(216,77,78)"></path><path d="M304.12,552.12 L307.86,547.31 L314.28,542.73 L316.32,540.14 L308.81,531.48 L306.81,527.02 L305.25,526.62 L302.82,527.47 L299.11,531.69 L295.88,533.37 L294.53,541.84 L295.17,544.69 L297.27,548.28 L302.56,552.27 L303.76,552.37Z" fill="rgb(216,77,78)"></path><path d="M225.5,553.18 L228.03,551.75 L230.41,545.13 L233.17,541.32 L230.7,533.88 L223.9,529.01 L220.8,528.72 L218.01,531.12 L216.99,536.07 L214.21,539.39 L213.59,542.59 L216.7,548.7 L223.47,553.28 L224.96,553.38Z" fill="rgb(216,77,78)"></path><path d="M244.32,567.19 L248.81,564.63 L267.19,561.29 L272.68,556.78 L283.69,552.83 L287.03,550.78 L288.07,548.07 L287.02,545.03 L281.86,546.49 L279.51,544.65 L280.41,537.36 L278.75,533.89 L272.91,531.63 L268.0,532.87 L264.75,535.19 L262.74,538.48 L264.25,546.09 L262.67,549.46 L258.97,549.9 L253.36,546.62 L247.02,545.5 L242.37,546.17 L238.89,549.17 L237.69,551.94 L238.28,556.07 L237.72,562.2 L241.16,566.99 L243.84,567.4Z" fill="rgb(216,77,78)"></path><path d="M207.7,562.19 L206.69,559.71 L199.03,549.87 L198.81,546.94 L201.4,536.35 L200.72,534.89 L198.52,533.74 L196.22,533.97 L191.02,538.1 L191.04,543.08 L189.59,545.17 L187.44,545.05 L183.03,541.7 L177.82,542.69 L176.09,543.72 L178.47,555.59 L179.88,558.45 L184.97,560.3 L187.18,561.91 L191.06,558.17 L191.22,551.02 L192.41,549.85 L193.86,549.81 L200.18,556.11 L205.51,559.07 L207.75,562.38Z" fill="rgb(216,77,78)"></path><path d="M221.49,580.18 L228.97,576.08 L229.32,568.82 L227.73,567.62 L222.2,567.21 L220.51,561.93 L217.96,560.0 L215.82,559.68 L214.77,560.7 L214.58,563.63 L217.42,571.14 L216.25,573.01 L211.39,575.58 L211.0,576.48 L211.98,578.5 L214.66,580.23 L220.91,580.39Z" fill="rgb(216,77,78)"></path><path d="M250.56,615.18 L260.02,613.1 L264.91,609.89 L258.58,603.63 L253.38,603.58 L247.86,605.04 L243.37,604.81 L239.81,605.82 L238.03,605.36 L236.66,602.98 L236.64,598.92 L237.84,595.44 L241.15,591.73 L240.5,589.77 L236.94,586.82 L230.71,585.61 L226.82,585.71 L224.79,587.44 L225.86,593.08 L222.79,595.8 L223.03,597.52 L229.13,603.0 L237.11,605.91 L239.32,610.29 L243.13,614.0 L249.94,615.39Z" fill="rgb(216,77,78)"></path><path d="M449.49,321.95 L446.43,321.08 L442.63,316.21 L433.44,314.16 L429.04,308.54 L424.36,304.93 L422.73,301.06 L422.01,294.0 L423.84,290.39 L427.15,288.06 L430.03,288.1 L432.69,289.86 L439.74,301.48 L441.93,302.31 L447.15,300.97 L450.03,301.1 L455.65,306.05 L458.05,311.12 L457.74,315.85 L455.55,319.15 L450.25,321.81Z" fill="rgb(150,10,8)"></path><path d="M427.51,597.92 L421.94,598.23 L409.41,594.46 L402.03,590.67 L394.82,584.88 L387.85,580.56 L381.99,572.1 L377.4,557.66 L371.92,546.1 L370.6,540.99 L370.56,532.86 L363.57,540.19 L353.51,547.26 L348.85,549.0 L346.92,548.85 L345.45,547.71 L345.17,545.9 L346.03,544.34 L359.05,536.53 L363.71,531.33 L367.05,527.02 L363.67,523.68 L364.17,521.5 L370.71,518.29 L381.83,503.39 L386.47,499.11 L388.12,496.05 L389.39,491.7 L389.43,484.41 L386.07,472.92 L388.1,468.17 L390.39,455.7 L390.43,441.41 L386.86,434.43 L386.06,430.87 L382.38,422.81 L380.38,419.71 L379.95,416.9 L382.11,414.07 L385.83,413.73 L387.91,410.89 L393.0,409.13 L403.64,402.98 L405.62,402.65 L399.85,405.79 L393.95,407.35 L377.9,405.26 L373.12,403.78 L368.26,401.13 L367.5,398.81 L368.33,397.35 L387.33,394.3 L394.99,389.98 L394.97,388.02 L390.21,387.28 L388.32,383.3 L383.61,382.7 L358.75,388.86 L355.03,389.02 L346.68,386.06 L340.87,381.42 L340.31,378.95 L342.26,374.42 L343.32,367.18 L342.09,365.03 L336.0,366.87 L328.72,370.74 L325.99,370.92 L323.69,369.92 L322.32,366.95 L324.65,355.15 L327.0,353.77 L337.41,351.17 L332.38,350.38 L329.36,347.93 L328.01,343.9 L329.99,340.2 L334.07,338.77 L337.81,339.17 L340.89,340.55 L344.06,344.42 L342.78,336.92 L343.18,333.96 L345.12,332.06 L351.46,331.01 L355.75,323.99 L358.99,322.99 L364.21,323.31 L370.05,325.22 L374.1,323.89 L376.64,325.23 L377.96,329.85 L381.55,335.29 L383.32,340.29 L386.63,343.66 L390.95,346.01 L395.51,340.01 L399.27,337.34 L402.07,336.73 L411.2,337.17 L411.03,335.22 L406.95,328.88 L407.55,323.41 L409.81,320.14 L414.98,317.77 L416.13,313.95 L417.72,311.99 L421.26,310.23 L424.1,309.91 L427.16,311.34 L428.87,314.17 L428.57,322.54 L430.26,326.83 L431.33,333.07 L430.42,336.61 L423.88,347.95 L421.37,356.16 L426.05,350.35 L430.29,348.27 L433.04,348.17 L438.12,351.99 L444.56,353.94 L447.91,361.74 L450.69,363.38 L459.0,360.16 L456.65,357.66 L456.99,354.67 L466.17,343.82 L462.33,340.98 L459.94,335.89 L459.76,331.95 L461.58,324.38 L467.03,318.35 L470.29,316.36 L473.1,315.94 L476.01,317.65 L483.64,329.2 L483.19,330.79 L480.93,331.65 L478.87,330.54 L476.59,327.73 L475.69,328.06 L477.84,334.25 L478.04,337.96 L476.59,342.87 L472.97,347.0 L478.06,355.1 L478.44,360.03 L477.63,363.42 L479.46,362.12 L481.26,358.0 L484.3,353.98 L479.95,342.88 L479.85,339.91 L480.99,337.52 L482.32,336.81 L485.17,337.05 L487.65,335.35 L489.02,329.0 L491.28,326.56 L492.86,326.77 L493.95,327.93 L495.66,334.21 L499.15,333.39 L501.09,335.08 L501.7,339.33 L504.27,346.03 L504.51,354.42 L506.08,357.25 L505.77,358.5 L504.07,359.83 L502.68,362.66 L496.82,364.47 L492.57,369.19 L480.72,377.27 L479.0,379.13 L476.29,384.85 L463.57,396.19 L456.22,401.7 L453.94,404.92 L452.45,411.84 L444.29,418.7 L439.69,425.61 L438.94,428.74 L439.91,430.84 L443.11,430.11 L444.72,430.74 L446.33,435.38 L446.09,436.87 L444.79,437.86 L442.94,437.96 L439.94,436.58 L439.89,438.02 L446.96,447.46 L450.56,449.79 L452.22,452.22 L451.44,454.13 L448.2,456.37 L447.86,458.67 L449.34,459.24 L452.58,456.86 L455.07,456.33 L457.14,457.46 L460.78,461.96 L464.91,462.99 L465.31,466.14 L474.07,464.87 L477.98,466.51 L480.21,469.57 L480.73,472.04 L479.66,474.25 L477.0,476.33 L478.82,479.17 L479.89,483.62 L482.96,485.57 L483.76,488.05 L483.08,489.55 L480.84,491.26 L482.92,495.13 L482.15,497.56 L478.91,500.59 L480.49,501.62 L480.46,502.72 L473.58,505.35 L462.55,519.24 L460.88,520.02 L456.84,519.95 L449.0,522.89 L444.09,526.73 L444.62,529.2 L446.18,531.11 L448.39,532.26 L451.86,532.61 L454.05,534.46 L454.94,539.19 L454.28,541.72 L450.7,542.63 L448.23,540.83 L440.97,543.28 L433.98,542.94 L431.94,541.71 L430.97,540.0 L431.08,537.22 L432.36,535.13 L431.9,534.07 L429.91,537.82 L429.06,547.97 L424.78,560.77 L423.38,567.84 L421.32,569.27 L418.96,569.47 L417.9,568.66 L418.42,565.41 L417.62,564.2 L415.41,563.62 L412.25,564.19 L410.76,565.59 L410.7,567.06 L416.81,569.62 L417.18,571.87 L414.97,573.23 L408.65,574.48 L403.85,578.21 L405.45,581.12 L410.12,585.99 L423.84,588.13 L424.4,589.7 L421.97,589.86 L423.92,590.42 L427.97,593.62 L428.79,595.99 L428.13,597.44Z" fill="rgb(150,10,8)"></path><path d="M395.55,338.07 L392.88,338.01 L390.73,336.48 L390.16,333.92 L391.62,331.79 L389.02,331.98 L383.39,330.58 L380.44,329.17 L378.39,327.15 L377.72,325.12 L379.43,321.08 L383.47,318.46 L387.56,318.88 L393.83,324.06 L398.51,323.64 L400.68,324.45 L401.43,328.04 L400.21,334.23 L398.9,336.48 L396.29,337.86Z" fill="rgb(150,10,8)"></path><path d="M400.79,322.91 L401.09,322.32 L401.04,322.95Z" fill="rgb(150,10,8)"></path><path d="M448.59,355.65 L444.49,353.93 L438.82,347.75 L434.83,344.66 L433.01,341.89 L432.63,336.93 L433.87,332.7 L436.1,329.45 L440.07,327.78 L443.83,328.24 L450.0,331.37 L453.71,334.86 L455.78,338.24 L456.49,344.01 L455.75,349.85 L453.14,353.69 L449.25,355.61Z" fill="rgb(150,10,8)"></path><path d="M398.96,337.13 L399.01,337.14Z" fill="rgb(150,10,8)"></path><path d="M676.59,510.21 L673.44,507.9 L671.99,504.85 L672.09,502.02 L674.19,494.81 L672.2,489.8 L663.96,490.74 L660.75,486.65 L653.52,486.82 L647.83,489.78 L645.45,489.1 L644.53,487.72 L644.89,485.44 L646.93,483.34 L652.21,482.25 L652.61,479.17 L653.52,478.0 L658.9,477.99 L666.2,471.14 L669.2,473.16 L670.99,471.91 L671.38,470.23 L670.4,466.66 L665.88,457.91 L668.09,445.96 L666.75,443.89 L663.15,441.49 L659.22,435.63 L654.75,433.62 L648.86,435.42 L646.37,433.91 L645.21,430.83 L645.65,428.38 L647.27,426.47 L651.16,424.45 L646.38,419.35 L637.06,417.69 L632.91,418.26 L630.14,417.58 L624.81,412.56 L622.27,408.09 L619.45,407.49 L619.17,400.96 L624.94,394.73 L627.12,386.46 L620.23,384.92 L616.11,383.14 L613.18,376.38 L609.76,374.48 L611.18,371.26 L610.07,368.17 L607.2,363.36 L602.87,360.74 L601.46,358.8 L601.76,353.99 L604.07,352.71 L610.9,354.4 L631.61,366.93 L633.39,371.01 L633.51,382.76 L634.28,385.24 L649.34,392.95 L654.74,397.5 L666.33,402.96 L671.61,406.83 L673.63,409.17 L680.02,421.9 L684.06,431.1 L685.4,440.01 L683.69,464.92 L684.46,470.0 L684.57,482.59 L687.01,493.1 L686.1,496.3 L682.81,501.01 L680.08,507.56 L677.15,510.16Z" fill="rgb(150,10,8)"></path><path d="M618.44,385.35 L617.86,384.73 L618.34,384.01 L619.06,384.41 L618.85,385.23Z" fill="rgb(150,10,8)"></path><path d="M348.49,434.37 L343.66,431.75 L340.65,432.12 L339.38,431.47 L339.19,428.95 L342.99,424.88 L343.44,421.47 L342.71,419.89 L339.14,417.2 L336.53,412.79 L331.13,413.45 L327.23,409.5 L322.27,406.93 L319.03,409.14 L313.88,410.45 L308.31,408.08 L303.91,408.16 L300.19,406.67 L296.65,408.41 L294.5,407.83 L291.83,404.5 L291.57,402.12 L293.43,399.81 L301.15,394.06 L304.83,394.39 L317.57,400.26 L332.59,401.58 L339.34,404.95 L347.34,410.85 L357.27,415.23 L359.05,418.02 L359.73,423.11 L357.85,424.97 L351.03,425.03 L350.71,431.8 L349.09,434.19Z" fill="rgb(150,10,8)"></path><path d="M661.96,442.13 L662.01,442.14Z" fill="rgb(150,10,8)"></path><path d="M482.96,497.13 L483.01,497.14Z" fill="rgb(150,10,8)"></path><path d="M250.49,523.95 L248.17,523.27 L247.31,521.82 L249.38,510.94 L248.09,505.87 L249.92,503.05 L254.08,501.78 L257.83,502.38 L263.0,505.41 L264.97,508.13 L265.19,511.07 L263.4,514.98 L258.75,517.29 L254.68,522.3 L251.25,523.83Z" fill="rgb(150,10,8)"></path><path d="M566.47,532.55 L564.67,531.79 L560.94,527.97 L551.71,531.64 L548.92,531.95 L542.52,526.66 L542.13,524.89 L543.29,522.78 L546.14,522.94 L546.75,526.08 L550.18,522.68 L550.61,519.69 L556.96,517.29 L557.24,515.25 L558.37,514.54 L561.98,515.43 L564.05,518.74 L569.09,519.94 L573.35,522.38 L577.97,522.12 L582.44,519.44 L586.02,518.62 L590.85,519.25 L594.01,521.62 L594.35,523.86 L592.5,525.76 L591.3,525.45 L590.11,522.8 L587.89,522.71 L583.86,525.0 L577.8,525.62 L573.26,530.03 L567.14,532.43Z" fill="rgb(150,10,8)"></path><path d="M621.96,516.13 L622.01,516.14Z" fill="rgb(150,10,8)"></path><path d="M609.51,529.94 L604.69,529.31 L603.63,528.46 L603.58,527.09 L611.64,517.09 L614.04,515.77 L619.84,516.26 L622.09,517.97 L622.48,519.87 L619.55,525.14 L610.25,529.74Z" fill="rgb(150,10,8)"></path><path d="M623.54,517.36 L623.47,516.79 L623.79,517.29Z" fill="rgb(150,10,8)"></path><path d="M547.54,522.36 L547.47,521.79 L547.79,522.29Z" fill="rgb(150,10,8)"></path><path d="M613.57,559.1 L607.96,559.45 L603.4,558.58 L600.43,557.1 L598.24,553.74 L597.87,550.93 L598.58,548.39 L604.93,541.37 L604.34,538.29 L606.62,536.83 L604.04,536.48 L601.16,533.42 L600.97,531.48 L602.5,530.15 L603.76,530.17 L605.07,532.01 L608.29,532.2 L615.35,537.04 L619.99,544.11 L620.49,549.01 L619.93,554.03 L618.14,556.69 L614.3,558.86Z" fill="rgb(150,10,8)"></path><path d="M481.53,569.46 L479.61,567.5 L478.5,561.41 L479.29,558.98 L483.04,554.84 L485.08,550.89 L485.09,548.25 L483.88,544.9 L484.48,541.4 L490.35,534.26 L497.17,532.17 L499.39,533.22 L501.55,541.11 L499.8,543.78 L494.88,544.56 L495.16,549.09 L493.62,553.69 L494.75,557.07 L494.5,561.05 L488.5,567.2 L482.2,569.53Z" fill="rgb(150,10,8)"></path><path d="M599.96,534.13 L600.01,534.14Z" fill="rgb(150,10,8)"></path><path d="M280.47,606.73 L278.5,605.63 L277.92,602.9 L281.27,596.7 L277.88,593.49 L277.49,591.9 L278.15,590.5 L283.22,587.23 L290.61,587.42 L295.83,585.14 L299.78,582.28 L304.43,576.71 L310.17,575.68 L314.04,570.84 L317.97,563.45 L320.14,562.58 L323.94,564.3 L326.22,563.5 L332.68,559.17 L338.04,553.77 L339.94,550.43 L342.19,549.26 L344.5,550.35 L344.08,553.55 L329.68,569.21 L313.71,578.28 L308.88,583.18 L303.17,592.61 L298.57,597.19 L286.44,605.09 L284.96,605.43 L283.79,604.64 L281.21,606.64Z" fill="rgb(150,10,8)"></path><path d="M545.51,573.85 L542.63,573.09 L540.82,570.98 L536.95,573.27 L535.7,572.45 L534.74,569.96 L535.66,561.79 L538.04,557.39 L539.07,551.92 L540.59,549.92 L542.2,549.35 L543.84,549.72 L545.97,552.34 L552.11,556.39 L555.69,562.2 L555.21,564.52 L551.16,571.73 L546.24,573.76Z" fill="rgb(150,10,8)"></path><path d="M320.96,562.13 L321.01,562.14Z" fill="rgb(150,10,8)"></path><path d="M464.57,604.11 L454.96,604.45 L446.86,602.87 L443.13,600.44 L443.44,598.59 L450.85,599.47 L462.15,597.19 L466.44,597.29 L472.76,595.07 L478.34,590.51 L483.91,591.44 L485.75,591.07 L487.17,589.63 L484.51,586.66 L484.62,583.39 L490.01,575.62 L492.54,573.71 L494.85,573.59 L501.88,576.23 L507.11,580.03 L515.0,578.11 L520.17,574.37 L525.47,572.05 L527.23,572.39 L527.76,574.65 L531.13,573.01 L534.07,572.82 L536.6,573.81 L538.4,576.66 L538.53,579.97 L536.62,583.12 L530.89,587.99 L526.96,588.44 L521.07,587.63 L520.89,590.62 L524.52,592.61 L524.37,594.31 L515.98,596.9 L507.77,600.85 L491.84,602.98 L472.2,602.52 L465.3,603.9Z" fill="rgb(150,10,8)"></path><path d="M242.46,350.72 L234.86,346.55 L227.36,335.73 L225.6,325.99 L225.31,316.82 L222.96,318.17 L219.9,324.27 L217.9,325.12 L216.7,324.39 L215.73,321.97 L214.56,310.86 L216.38,306.65 L218.84,284.94 L230.67,273.33 L233.96,265.67 L238.5,259.03 L244.52,253.8 L247.98,252.85 L247.23,249.97 L248.63,243.11 L255.21,235.56 L255.02,234.18 L245.55,220.55 L244.62,216.97 L245.17,212.96 L248.04,210.78 L253.86,211.42 L257.19,214.43 L265.12,224.99 L268.63,225.42 L274.49,223.63 L276.74,223.72 L280.08,229.48 L281.42,230.37 L290.09,230.37 L293.64,231.19 L303.14,228.95 L310.03,229.04 L306.3,227.54 L302.75,224.63 L303.03,219.75 L301.22,216.84 L303.52,213.66 L300.93,214.35 L298.02,213.96 L296.61,213.1 L296.12,211.22 L301.3,204.83 L308.05,198.35 L320.0,193.2 L325.7,188.93 L332.98,185.78 L333.48,181.2 L332.6,175.99 L332.61,168.97 L333.63,166.34 L334.88,165.77 L339.35,165.87 L341.1,167.1 L344.24,177.02 L344.67,180.94 L351.66,187.23 L352.36,193.08 L351.55,195.86 L349.73,197.62 L342.82,198.71 L341.3,199.71 L336.79,206.17 L336.8,208.16 L335.75,209.08 L332.06,208.57 L329.0,205.69 L324.13,203.59 L319.43,199.77 L316.77,200.1 L319.84,201.67 L320.9,204.13 L320.41,205.84 L318.01,208.0 L315.82,211.59 L319.7,214.9 L321.11,218.1 L320.45,221.59 L317.81,226.49 L323.43,231.46 L324.89,239.14 L327.27,246.03 L327.68,251.14 L330.43,255.09 L329.61,256.35 L327.49,257.04 L326.99,265.0 L324.73,272.53 L323.42,281.61 L318.56,288.19 L314.17,290.66 L312.35,290.38 L312.1,287.97 L315.38,277.94 L313.35,272.69 L313.35,270.15 L315.3,266.83 L321.38,261.26 L316.74,258.57 L315.16,252.8 L308.97,252.9 L305.38,249.72 L304.86,246.94 L305.42,244.4 L309.07,238.23 L306.35,237.59 L302.72,239.27 L300.62,242.35 L300.57,250.53 L303.03,254.55 L306.14,257.56 L306.76,261.04 L305.28,263.01 L297.75,267.25 L295.69,270.93 L299.03,283.15 L297.97,287.97 L299.24,288.26 L303.28,285.53 L304.81,285.84 L305.75,288.03 L303.91,293.17 L298.94,297.65 L289.37,301.14 L281.75,307.25 L278.88,311.94 L276.48,319.6 L273.85,321.66 L271.26,319.95 L268.4,313.57 L266.37,298.87 L265.26,297.72 L262.57,296.87 L260.99,299.9 L261.88,303.01 L259.56,309.87 L256.78,312.84 L255.76,316.84 L252.96,322.35 L248.89,325.27 L247.36,328.32 L247.07,336.96 L244.51,349.21 L243.16,350.59Z" fill="rgb(242,181,171)"></path><path d="M465.52,249.0 L462.96,248.98 L459.39,247.17 L452.81,238.74 L446.75,234.36 L446.0,230.1 L442.14,225.13 L440.88,221.91 L441.72,216.8 L443.32,214.66 L446.16,215.35 L451.18,221.49 L452.39,224.14 L454.58,225.0 L456.06,226.64 L459.14,231.73 L460.92,236.68 L467.58,244.31 L467.76,246.98 L466.26,248.72Z" fill="rgb(242,181,171)"></path><path d="M444.96,230.13 L445.01,230.14Z" fill="rgb(242,181,171)"></path><path d="M445.96,231.13 L446.01,231.14Z" fill="rgb(242,181,171)"></path><path d="M286.38,258.17 L292.03,255.14 L290.9,253.97 L287.9,254.25 L285.16,253.34 L284.12,251.83 L284.21,248.97 L286.17,247.19 L289.43,247.26 L290.18,246.62 L283.36,241.77 L280.6,241.7 L277.01,242.86 L274.97,244.23 L273.8,247.13 L276.49,255.21 L279.92,258.06 L285.85,258.39Z" fill="rgb(242,181,171)"></path><path d="M289.04,293.29 L289.25,292.71 L284.35,288.94 L282.88,284.89 L284.13,281.52 L288.75,280.18 L288.85,278.41 L282.21,272.8 L279.24,272.96 L275.94,276.92 L275.96,283.76 L284.18,291.12 L288.79,293.42Z" fill="rgb(242,181,171)"></path><path d="M672.48,363.35 L670.81,362.65 L667.81,359.57 L661.81,351.5 L659.33,346.74 L656.77,335.93 L658.19,329.31 L654.6,320.99 L653.36,306.44 L656.06,294.92 L659.22,291.16 L660.83,283.85 L662.36,281.61 L664.11,281.29 L665.64,282.09 L666.61,285.1 L663.62,292.35 L663.02,312.11 L661.78,316.62 L662.61,318.16 L665.35,316.61 L666.99,316.8 L668.21,319.09 L666.95,327.02 L662.94,334.66 L664.16,337.07 L664.93,341.68 L667.53,344.21 L672.79,354.23 L674.06,361.03 L673.07,363.14Z" fill="rgb(242,181,171)"></path><path d="M520.47,479.73 L518.05,477.88 L516.78,470.01 L526.77,465.14 L531.65,460.38 L532.38,458.75 L531.7,455.57 L526.95,449.25 L526.39,445.93 L528.95,443.77 L541.63,440.84 L543.71,439.3 L546.13,435.86 L548.07,432.13 L548.28,429.93 L544.53,426.79 L540.88,427.04 L539.06,426.41 L538.06,424.84 L538.19,422.96 L539.72,420.99 L546.22,417.51 L548.7,415.33 L552.2,407.38 L550.62,405.2 L546.15,403.69 L543.07,401.7 L534.78,407.41 L532.39,407.72 L530.34,406.76 L526.31,396.95 L534.22,384.58 L534.04,383.2 L532.56,381.79 L529.08,383.04 L527.44,385.31 L520.96,388.46 L516.93,397.08 L515.77,398.14 L514.38,398.01 L513.27,396.76 L513.26,391.54 L511.4,388.77 L509.16,388.97 L501.64,394.29 L499.53,393.56 L499.04,390.0 L500.72,387.15 L505.46,383.56 L509.08,382.8 L514.08,384.08 L518.03,381.77 L521.49,375.69 L531.05,373.61 L532.85,365.92 L523.37,368.17 L515.56,375.09 L514.24,375.05 L513.64,374.04 L516.57,366.33 L522.28,358.3 L523.39,353.74 L523.22,347.22 L524.55,343.28 L533.7,336.93 L541.24,333.5 L554.18,325.33 L567.15,321.97 L570.04,322.2 L571.46,323.33 L572.14,326.05 L571.66,329.95 L575.56,331.94 L577.1,335.11 L575.58,341.64 L578.04,346.91 L572.8,348.83 L572.83,354.04 L571.45,356.13 L568.89,357.03 L566.28,356.22 L564.34,353.92 L563.37,350.94 L564.43,346.99 L569.05,343.56 L570.99,341.04 L564.2,340.52 L556.68,341.7 L551.69,344.38 L547.09,344.84 L547.9,348.47 L546.94,349.87 L548.04,351.27 L547.48,352.42 L545.88,352.78 L542.31,350.77 L538.66,350.7 L531.59,353.28 L526.83,358.18 L527.68,359.25 L532.0,359.83 L532.84,361.04 L536.66,356.12 L538.19,355.32 L539.84,355.7 L540.8,358.32 L543.29,360.15 L551.01,359.91 L550.24,357.85 L552.07,356.66 L557.98,357.21 L559.14,358.41 L559.11,359.86 L556.93,361.06 L556.91,362.74 L555.94,363.63 L560.13,365.36 L566.32,363.37 L568.05,363.41 L569.36,364.41 L569.7,366.82 L568.71,369.11 L564.55,371.91 L563.82,373.49 L565.13,375.0 L568.96,376.56 L570.03,379.11 L568.55,382.14 L559.82,387.53 L558.33,386.99 L557.43,384.89 L557.99,382.67 L560.15,379.8 L558.37,377.35 L554.39,376.58 L547.97,378.13 L545.26,376.31 L544.84,373.97 L549.22,369.58 L548.23,367.64 L544.91,366.63 L541.65,367.48 L539.32,368.83 L534.82,374.18 L535.51,375.23 L539.7,375.57 L541.0,377.62 L540.59,379.31 L538.99,380.86 L540.49,383.35 L540.53,385.82 L537.78,390.55 L542.53,386.7 L545.87,387.02 L550.15,384.99 L553.02,385.08 L557.92,387.43 L559.62,389.18 L561.59,394.45 L561.93,398.0 L558.98,405.44 L559.21,410.05 L557.58,418.6 L556.16,421.57 L551.97,426.06 L553.46,433.0 L552.61,440.83 L550.22,443.87 L541.75,451.18 L539.32,454.53 L538.02,463.0 L536.19,466.59 L533.62,469.31 L526.32,473.82 L523.11,478.54 L521.21,479.64Z" fill="rgb(242,181,171)"></path><path d="M209.96,355.13 L210.01,355.14Z" fill="rgb(242,181,171)"></path><path d="M241.81,631.7 L226.95,631.25 L214.12,627.77 L202.39,621.17 L193.35,610.95 L190.21,604.76 L189.05,599.25 L185.45,595.94 L182.15,591.13 L181.1,586.47 L176.97,583.34 L173.73,576.96 L169.37,573.94 L166.33,567.37 L163.89,564.84 L163.9,560.95 L162.07,561.1 L160.6,559.51 L160.16,556.92 L161.17,554.18 L158.95,542.87 L159.11,539.52 L156.69,537.53 L147.22,520.79 L144.56,512.86 L146.21,509.53 L146.1,507.74 L139.72,486.97 L139.48,463.2 L138.52,451.98 L140.72,438.8 L150.02,417.83 L152.28,414.29 L154.58,405.38 L164.3,391.12 L159.73,384.72 L155.11,381.89 L154.65,380.28 L159.03,380.07 L165.35,384.38 L172.82,384.04 L180.7,377.93 L187.13,376.06 L190.92,373.67 L191.41,372.38 L189.47,368.93 L189.61,365.79 L190.76,362.48 L193.1,359.45 L196.07,357.94 L204.92,355.61 L208.26,355.69 L209.42,356.46 L212.15,363.64 L219.17,368.34 L220.54,370.32 L220.73,372.11 L219.28,374.17 L211.37,376.17 L207.83,379.19 L210.97,382.79 L211.5,385.08 L210.92,386.63 L212.17,388.31 L210.88,390.09 L206.8,390.92 L206.67,394.13 L214.79,399.94 L215.35,401.88 L213.95,404.38 L211.8,405.81 L209.16,405.55 L207.15,403.98 L205.95,405.17 L201.61,413.37 L200.54,420.05 L201.26,426.09 L200.58,428.86 L191.5,439.73 L188.18,445.32 L183.74,455.47 L185.23,461.05 L184.94,465.71 L188.01,471.14 L187.7,479.42 L189.17,484.69 L192.1,489.56 L192.24,491.73 L190.95,492.62 L189.08,492.41 L183.92,488.71 L178.69,498.1 L177.44,499.1 L174.46,499.0 L172.35,499.87 L166.59,508.0 L163.87,509.97 L159.16,509.68 L155.73,506.57 L159.43,513.47 L159.92,517.0 L158.89,519.24 L157.63,520.03 L153.92,518.14 L154.74,521.2 L157.9,521.67 L159.62,523.28 L161.48,530.35 L167.63,538.23 L169.17,542.64 L174.37,551.14 L174.7,556.03 L178.49,562.22 L187.07,569.74 L188.07,574.1 L185.69,578.08 L189.54,581.35 L191.94,587.16 L191.88,592.98 L198.86,604.77 L202.18,608.12 L205.9,610.07 L216.04,611.16 L219.29,615.12 L222.72,617.36 L237.64,620.73 L237.76,622.52 L234.81,625.35 L244.97,629.08 L245.46,630.71 L242.34,631.65Z" fill="rgb(242,181,171)"></path><path d="M673.96,364.13 L674.01,364.14Z" fill="rgb(242,181,171)"></path><path d="M678.44,369.64 L677.05,369.56 L675.18,368.17 L674.57,365.96 L675.35,364.9 L679.03,366.51 L679.65,368.02 L679.05,369.32Z" fill="rgb(242,181,171)"></path><path d="M131.57,384.81 L130.15,383.75 L131.22,382.27 L140.45,377.53 L144.01,376.61 L147.84,377.13 L148.64,378.19 L147.97,379.13 L136.79,383.78 L132.27,384.79Z" fill="rgb(242,181,171)"></path><path d="M150.54,379.36 L150.47,378.79 L150.79,379.29Z" fill="rgb(242,181,171)"></path><path d="M152.54,380.36 L152.47,379.79 L152.79,380.29Z" fill="rgb(242,181,171)"></path><path d="M128.96,385.13 L129.01,385.14Z" fill="rgb(242,181,171)"></path><path d="M127.54,386.36 L127.47,385.79 L127.79,386.29Z" fill="rgb(242,181,171)"></path><path d="M111.54,408.76 L110.24,408.27 L109.76,407.1 L111.44,398.14 L124.59,387.07 L125.92,387.13 L126.55,388.21 L124.99,391.38 L114.01,400.09 L114.07,406.08 L112.25,408.63Z" fill="rgb(242,181,171)"></path><path d="M559.96,389.13 L560.01,389.14Z" fill="rgb(242,181,171)"></path><path d="M175.38,425.17 L180.05,422.53 L187.29,414.4 L190.05,413.86 L193.98,414.33 L195.53,409.02 L199.29,405.77 L197.16,405.97 L192.31,409.75 L190.97,409.88 L189.94,406.88 L187.37,403.44 L188.36,400.06 L180.18,399.21 L178.03,400.42 L176.92,402.55 L179.02,404.38 L180.01,407.1 L181.71,407.31 L182.49,408.24 L183.01,411.57 L178.88,414.38 L178.02,417.32 L176.15,419.54 L171.76,419.72 L169.79,421.47 L170.38,425.12 L174.86,425.39Z" fill="rgb(242,181,171)"></path><path d="M506.47,422.73 L504.48,421.68 L502.32,416.97 L498.27,412.09 L491.89,414.09 L489.16,413.33 L487.78,410.96 L487.78,406.93 L488.85,404.51 L490.14,403.79 L492.74,405.3 L497.32,406.26 L502.33,405.34 L508.62,403.22 L509.79,400.1 L511.07,399.48 L512.24,400.0 L514.08,402.76 L514.83,407.04 L512.77,410.64 L512.65,415.82 L511.71,419.02 L507.21,422.64Z" fill="rgb(242,181,171)"></path><path d="M220.49,425.52 L219.26,424.77 L217.71,421.89 L214.07,419.35 L213.27,416.96 L214.23,414.73 L221.22,408.39 L223.5,409.14 L225.96,412.3 L234.47,408.54 L238.04,408.18 L240.09,409.59 L240.76,412.03 L234.49,423.11 L231.44,423.04 L225.5,416.81 L223.94,418.92 L222.87,423.97 L221.19,425.5Z" fill="rgb(242,181,171)"></path><path d="M515.54,458.5 L513.82,457.71 L512.35,455.74 L513.47,449.16 L511.87,442.89 L513.28,438.87 L515.97,436.19 L519.04,434.54 L520.26,432.42 L520.3,428.67 L516.89,422.39 L516.82,420.12 L531.16,410.36 L531.98,411.31 L531.97,413.02 L529.56,418.92 L530.47,424.86 L526.52,429.73 L522.8,437.57 L522.92,445.03 L518.64,449.73 L517.93,451.78 L518.46,455.6 L517.41,457.72 L516.19,458.44Z" fill="rgb(242,181,171)"></path><path d="M230.96,423.13 L231.01,423.14Z" fill="rgb(242,181,171)"></path><path d="M196.49,495.86 L194.3,495.24 L193.06,493.53 L193.94,487.91 L196.44,484.75 L202.85,481.55 L206.24,476.31 L207.32,468.68 L205.68,466.63 L200.83,467.74 L199.16,467.29 L198.38,465.93 L198.94,462.9 L194.83,463.94 L192.15,463.7 L190.08,462.34 L189.4,459.93 L190.14,458.5 L194.11,455.75 L196.6,451.29 L199.17,450.92 L204.48,446.28 L207.04,439.22 L205.06,434.84 L205.41,428.88 L206.48,426.76 L208.13,425.99 L211.62,426.61 L214.03,428.75 L215.27,432.03 L215.65,437.01 L216.49,437.99 L230.5,428.59 L233.83,428.77 L234.91,432.01 L232.49,436.15 L222.75,441.25 L217.89,447.96 L213.75,460.34 L214.46,466.0 L214.37,477.07 L210.92,488.0 L204.66,492.29 L201.68,492.75 L197.25,495.71Z" fill="rgb(242,181,171)"></path><path d="M226.47,470.75 L224.5,469.63 L223.9,467.89 L225.45,461.07 L221.88,460.74 L219.91,458.91 L219.63,453.94 L220.68,449.71 L222.61,448.35 L225.78,452.17 L229.34,450.59 L230.91,450.84 L231.57,452.97 L229.91,455.89 L230.88,457.02 L236.23,451.36 L236.3,448.66 L234.28,443.83 L234.74,441.42 L237.94,436.42 L241.11,434.99 L243.65,436.05 L244.71,438.3 L244.75,452.83 L241.67,458.17 L236.74,462.19 L231.14,468.71 L227.22,470.71Z" fill="rgb(242,181,171)"></path><path d="M224.96,449.13 L225.01,449.14Z" fill="rgb(242,181,171)"></path><path d="M174.14,492.1 L177.81,488.61 L179.87,483.11 L180.2,478.29 L179.33,474.82 L177.5,472.81 L173.65,476.48 L171.96,476.7 L168.97,475.67 L168.52,481.8 L169.66,487.33 L171.75,491.63 L173.76,492.36Z" fill="rgb(242,181,171)"></path><path d="M210.96,490.13 L211.01,490.14Z" fill="rgb(242,181,171)"></path><path d="M197.96,496.13 L198.01,496.14Z" fill="rgb(242,181,171)"></path><path d="M238.74,191.0 L238.36,189.11 L240.68,183.7 L241.6,182.53 L242.72,182.63 L243.63,189.07 L242.07,190.92 L239.27,191.3Z" fill="rgb(203,192,177)"></path><path d="M239.45,235.29 L237.54,233.74 L234.94,228.93 L232.54,210.0 L233.16,200.19 L235.55,194.37 L237.5,192.23 L240.25,193.36 L244.86,193.56 L246.68,196.2 L246.03,198.56 L242.01,201.55 L243.34,207.05 L242.55,210.86 L238.55,213.94 L237.61,216.31 L237.7,221.39 L240.41,230.81 L240.61,234.0 L239.98,235.12Z" fill="rgb(203,192,177)"></path><path d="M240.96,236.13 L241.01,236.14Z" fill="rgb(203,192,177)"></path><path d="M241.96,237.13 L242.01,237.14Z" fill="rgb(203,192,177)"></path><path d="M242.96,238.13 L243.01,238.14Z" fill="rgb(203,192,177)"></path><path d="M243.96,239.13 L244.01,239.14Z" fill="rgb(203,192,177)"></path><path d="M244.96,240.13 L245.01,240.14Z" fill="rgb(203,192,177)"></path><path d="M251.96,240.13 L252.01,240.14Z" fill="rgb(203,192,177)"></path><path d="M245.96,241.13 L246.01,241.14Z" fill="rgb(203,192,177)"></path><path d="M250.96,241.13 L251.01,241.14Z" fill="rgb(203,192,177)"></path><path d="M248.48,243.69 L247.03,242.58 L248.22,241.19 L250.01,242.21 L249.15,243.58Z" fill="rgb(203,192,177)"></path><path d="M123.61,410.67 L113.29,408.42 L111.86,401.89 L112.91,398.44 L122.68,391.18 L128.49,384.75 L147.1,377.86 L158.05,381.06 L160.95,383.61 L160.63,385.66 L158.53,386.98 L157.01,389.5 L158.69,395.05 L156.63,399.01 L154.46,401.19 L151.91,402.12 L146.1,400.69 L143.31,397.71 L143.33,391.82 L141.72,390.72 L140.56,392.94 L143.14,405.11 L142.01,408.5 L139.12,409.33 L136.69,407.84 L133.06,407.48 L130.49,405.74 L128.04,406.86 L126.24,409.94 L124.25,410.61Z" fill="rgb(203,192,177)"></path><path d="M340.82,555.98 L340.88,554.23 L345.28,548.51 L354.24,544.54 L362.29,538.72 L368.66,532.09 L371.0,531.81 L372.45,535.01 L372.58,541.62 L373.57,546.27 L372.75,548.22 L341.3,556.27Z" fill="rgb(203,192,177)"></path><path d="M256.57,631.1 L247.95,631.25 L236.64,628.33 L234.44,627.14 L233.53,625.72 L234.47,622.86 L239.03,620.73 L252.62,619.43 L261.33,617.34 L277.61,609.88 L281.59,604.98 L284.9,604.0 L297.79,595.27 L302.13,590.81 L307.83,581.39 L312.44,576.81 L328.29,568.93 L329.53,570.22 L327.7,573.94 L329.75,583.2 L341.66,583.48 L354.01,581.6 L358.96,581.93 L367.07,584.03 L376.66,588.56 L385.96,594.11 L396.54,597.29 L414.8,599.48 L417.52,598.89 L420.84,596.5 L432.06,595.66 L440.88,596.56 L446.59,601.22 L453.31,602.39 L463.62,602.42 L473.0,600.54 L486.04,600.55 L490.92,601.31 L507.14,599.11 L515.23,595.21 L541.85,587.73 L549.08,586.72 L558.62,587.42 L570.03,583.73 L582.56,583.25 L593.02,580.72 L609.39,578.3 L632.1,570.94 L644.14,569.11 L659.24,563.5 L676.77,551.14 L682.45,545.81 L685.32,544.67 L686.74,545.05 L691.58,549.51 L691.23,552.52 L686.71,558.21 L670.57,573.19 L661.3,580.07 L641.96,590.81 L629.79,595.79 L615.93,600.06 L559.0,612.28 L522.97,618.28 L486.99,622.4 L463.98,622.48 L443.95,620.25 L425.7,616.61 L412.04,616.07 L396.64,610.36 L384.16,606.77 L363.64,597.36 L358.46,595.73 L353.38,595.58 L327.3,603.17 L315.65,608.47 L292.1,621.08 L257.3,630.89Z" fill="rgb(203,192,177)"></path><path d="M373.96,549.13 L374.01,549.14Z" fill="rgb(203,192,177)"></path><path d="M339.96,557.13 L340.01,557.14Z" fill="rgb(203,192,177)"></path><path d="M338.96,558.13 L339.01,558.14Z" fill="rgb(203,192,177)"></path><path d="M337.96,559.13 L338.01,559.14Z" fill="rgb(203,192,177)"></path><path d="M336.96,560.13 L337.01,560.14Z" fill="rgb(203,192,177)"></path><path d="M335.96,561.13 L336.01,561.14Z" fill="rgb(203,192,177)"></path><path d="M334.96,562.13 L335.01,562.14Z" fill="rgb(203,192,177)"></path><path d="M333.96,563.13 L334.01,563.14Z" fill="rgb(203,192,177)"></path><path d="M332.96,565.13 L333.01,565.14Z" fill="rgb(203,192,177)"></path><path d="M331.96,566.13 L332.01,566.14Z" fill="rgb(203,192,177)"></path><path d="M330.55,568.31 L329.96,567.71 L330.46,567.05 L331.24,567.43 L330.98,568.21Z" fill="rgb(203,192,177)"></path><path d="M283.96,604.13 L284.01,604.14Z" fill="rgb(203,192,177)"></path><path d="M249.52,242.01 L245.44,241.16 L240.35,235.94 L235.72,220.97 L236.34,214.15 L241.23,209.33 L240.57,201.12 L245.17,196.47 L243.7,194.85 L239.93,194.84 L238.25,192.82 L238.67,191.16 L242.17,188.22 L241.11,181.86 L235.03,160.85 L235.62,158.1 L237.17,157.22 L238.85,157.52 L240.37,159.31 L242.27,167.03 L242.58,174.62 L243.66,179.33 L246.79,186.21 L248.9,196.0 L251.78,201.21 L253.45,207.65 L253.55,210.18 L252.67,211.65 L247.38,212.88 L246.54,215.12 L247.5,220.24 L256.85,234.19 L256.83,236.04 L255.66,238.16 L250.27,241.78Z" fill="rgb(175,186,69)"></path><path d="M253.96,212.13 L254.01,212.14Z" fill="rgb(175,186,69)"></path><path d="M254.96,213.13 L255.01,213.14Z" fill="rgb(175,186,69)"></path><path d="M698.51,500.81 L695.62,500.15 L691.77,497.19 L686.86,495.45 L682.93,483.9 L681.97,464.92 L683.42,439.37 L682.1,430.98 L674.51,413.82 L677.36,409.84 L678.43,395.41 L676.73,389.98 L675.3,379.59 L673.11,371.01 L668.42,364.81 L669.11,369.0 L668.37,370.45 L666.81,370.17 L664.47,364.9 L665.27,359.76 L660.6,353.03 L658.49,351.9 L656.74,353.43 L655.27,353.26 L654.52,352.15 L654.38,349.11 L653.63,348.63 L645.62,348.76 L642.85,349.95 L639.07,350.01 L637.61,354.3 L636.75,365.9 L637.63,364.21 L639.68,364.19 L641.03,367.14 L641.01,369.97 L638.7,373.55 L636.98,373.79 L634.66,372.77 L632.82,373.67 L631.89,372.8 L630.71,368.75 L626.27,365.5 L609.27,355.65 L598.68,353.06 L583.18,340.98 L580.28,340.67 L576.31,336.88 L574.33,333.34 L570.39,330.73 L570.4,325.36 L569.38,323.77 L555.78,326.62 L530.5,341.39 L526.44,341.11 L524.14,337.83 L524.29,335.16 L529.41,324.13 L535.8,316.3 L541.48,311.25 L543.25,305.15 L545.53,301.85 L559.83,295.07 L569.06,287.35 L579.26,282.34 L584.19,281.29 L589.07,278.81 L595.78,279.03 L603.29,271.38 L606.1,270.92 L610.64,273.23 L613.23,273.28 L617.24,271.22 L623.63,269.83 L628.72,265.93 L634.15,263.97 L637.84,264.57 L642.29,269.15 L655.04,265.59 L665.54,268.27 L672.04,269.08 L674.14,270.51 L677.14,275.0 L685.33,277.96 L692.32,283.82 L696.54,285.27 L705.07,285.63 L709.33,286.96 L720.21,295.33 L721.63,297.26 L723.31,302.29 L726.16,305.04 L731.55,308.09 L734.86,313.77 L740.55,319.1 L742.06,322.1 L743.35,334.05 L742.83,337.81 L735.89,349.96 L730.06,366.32 L719.67,381.21 L716.89,382.99 L711.24,383.96 L705.77,389.64 L705.95,392.75 L711.23,396.02 L712.06,397.25 L711.73,398.52 L707.9,400.14 L701.89,398.63 L694.37,399.57 L688.01,400.89 L685.78,402.46 L686.29,404.13 L693.72,409.48 L700.7,412.05 L708.02,410.62 L713.56,411.58 L714.47,412.47 L715.29,416.12 L723.01,420.37 L725.34,423.29 L725.11,424.68 L724.03,425.18 L714.58,420.78 L712.77,421.71 L712.25,429.05 L710.91,434.97 L710.37,453.06 L707.89,469.95 L708.67,476.0 L709.72,477.05 L712.11,475.81 L714.4,470.23 L715.51,469.29 L717.1,470.23 L717.19,474.09 L712.92,482.18 L710.2,485.38 L708.45,489.86 L705.52,492.75 L703.56,497.97 L699.23,500.68Z" fill="rgb(175,186,69)"></path><path d="M643.4,341.15 L652.48,335.29 L653.19,333.28 L652.07,329.26 L650.11,327.7 L642.53,330.55 L638.38,330.36 L635.57,327.63 L633.04,320.88 L634.46,317.86 L640.29,314.36 L644.02,314.09 L648.75,316.35 L650.25,314.65 L649.31,312.33 L645.43,310.15 L643.37,307.73 L640.75,295.95 L641.55,290.41 L646.48,284.28 L647.39,281.79 L646.79,279.02 L643.24,278.96 L640.88,281.18 L637.69,286.17 L632.47,290.79 L623.18,308.64 L620.89,309.89 L616.79,309.84 L616.93,315.0 L613.69,325.84 L614.72,327.78 L616.87,329.3 L621.35,325.52 L624.86,325.48 L627.45,328.45 L629.71,334.7 L642.98,341.35Z" fill="rgb(175,186,69)"></path><path d="M678.62,368.42 L673.37,363.77 L670.52,353.64 L666.11,345.32 L663.05,341.88 L661.61,334.84 L662.02,331.84 L665.23,326.33 L666.61,318.12 L662.0,319.4 L660.22,316.83 L661.33,312.05 L661.64,292.92 L665.07,285.04 L664.35,282.81 L663.0,283.23 L661.07,291.13 L657.72,295.72 L654.8,308.14 L656.28,314.03 L656.69,322.31 L659.71,328.3 L658.7,336.43 L660.71,345.22 L662.93,349.76 L676.45,367.04 L678.56,368.54Z" fill="rgb(175,186,69)"></path><path d="M687.51,375.18 L693.22,372.51 L698.59,367.93 L704.63,366.23 L705.3,363.94 L701.05,361.43 L700.24,359.83 L700.62,358.15 L704.42,355.53 L713.22,352.5 L717.63,347.71 L718.02,346.08 L716.22,345.62 L703.96,347.82 L702.0,346.37 L702.04,343.44 L717.22,335.51 L724.45,328.81 L730.26,326.5 L732.3,324.03 L729.53,311.82 L727.68,310.2 L723.13,308.58 L720.81,306.56 L716.75,296.89 L706.38,290.49 L699.57,288.72 L697.62,288.71 L690.95,291.25 L687.01,290.79 L685.48,288.93 L685.08,284.33 L683.17,282.94 L681.01,282.86 L679.7,283.96 L682.01,289.15 L681.9,292.03 L677.94,297.92 L676.76,306.83 L669.14,321.88 L669.84,327.09 L667.94,330.92 L670.7,342.18 L676.43,350.64 L680.11,350.0 L682.5,351.32 L682.58,353.82 L679.71,361.07 L684.92,364.06 L691.59,365.54 L693.36,367.31 L693.28,368.86 L691.54,370.43 L684.02,372.12 L683.76,373.33 L684.64,374.66 L686.96,375.38Z" fill="rgb(175,186,69)"></path><path d="M195.57,303.62 L189.01,300.92 L188.29,299.81 L188.83,298.81 L197.22,294.51 L204.36,289.53 L217.34,284.55 L219.47,285.43 L220.1,287.11 L219.4,297.04 L218.38,299.72 L216.35,299.59 L216.04,294.76 L214.5,293.75 L196.23,303.59Z" fill="rgb(175,186,69)"></path><path d="M600.97,322.19 L602.12,317.96 L605.31,313.38 L607.05,301.98 L610.26,295.52 L609.55,291.96 L607.89,290.81 L606.72,291.28 L603.79,298.98 L600.38,303.98 L597.91,304.98 L592.95,303.78 L591.77,304.48 L591.98,305.82 L595.86,311.17 L594.61,317.21 L594.93,319.68 L598.05,322.01 L600.66,322.42Z" fill="rgb(175,186,69)"></path><path d="M247.49,421.95 L245.1,421.54 L242.81,419.5 L241.39,414.16 L245.25,401.14 L247.99,396.88 L249.42,392.14 L252.39,387.76 L250.1,380.37 L244.8,377.82 L238.03,378.06 L227.37,373.76 L221.4,373.18 L216.81,368.87 L211.28,365.12 L208.38,357.16 L211.02,348.67 L217.67,344.12 L218.99,342.45 L217.6,333.99 L217.77,325.94 L221.44,317.09 L224.19,315.25 L225.97,315.65 L227.34,318.02 L227.58,326.63 L228.96,334.77 L236.23,345.23 L243.01,349.1 L245.39,335.74 L245.16,330.0 L245.94,326.86 L247.58,324.02 L251.85,320.65 L255.3,312.01 L258.28,308.28 L260.28,302.69 L260.37,298.2 L262.86,295.53 L266.09,296.15 L267.94,298.03 L269.28,303.03 L269.89,312.14 L273.54,320.23 L274.64,319.49 L276.93,311.87 L279.41,307.0 L281.28,305.38 L284.07,304.74 L287.59,305.54 L291.61,307.83 L297.27,315.02 L300.04,315.15 L302.13,316.26 L303.54,318.22 L304.25,322.16 L309.17,320.2 L311.37,321.33 L311.4,323.59 L308.77,328.63 L308.59,330.65 L310.9,339.02 L313.79,345.25 L314.2,349.06 L309.75,360.86 L307.9,363.54 L311.84,364.31 L316.92,367.43 L329.08,377.99 L330.75,378.38 L336.04,377.41 L337.5,379.15 L337.01,380.85 L341.89,380.64 L348.32,384.82 L355.45,387.27 L383.11,380.91 L388.03,381.08 L390.01,382.6 L391.15,386.03 L395.07,386.39 L396.43,387.4 L396.81,390.04 L395.54,392.14 L387.9,396.06 L369.14,398.41 L369.13,399.57 L374.63,402.39 L382.01,404.2 L393.85,405.47 L401.27,403.5 L402.66,403.86 L403.03,404.96 L394.58,410.44 L388.11,412.41 L386.56,414.69 L385.03,415.33 L379.38,414.83 L374.93,416.27 L368.95,415.51 L356.02,415.98 L351.15,414.76 L346.34,412.44 L338.26,406.5 L331.3,402.95 L326.93,403.28 L317.01,402.02 L302.32,395.62 L293.76,402.18 L290.81,407.27 L287.57,410.2 L283.44,413.15 L279.88,414.06 L275.75,417.29 L267.95,420.14 L259.87,419.54 L255.32,417.62 L248.25,421.81Z" fill="rgb(175,186,69)"></path><path d="M186.54,301.36 L186.47,300.79 L186.79,301.29Z" fill="rgb(175,186,69)"></path><path d="M575.96,338.13 L576.01,338.14Z" fill="rgb(175,186,69)"></path><path d="M286.56,381.13 L287.1,377.96 L288.31,376.66 L291.99,377.26 L293.91,376.75 L291.74,373.88 L288.53,371.78 L282.53,371.74 L277.89,373.12 L275.17,372.37 L271.94,367.08 L273.91,365.2 L277.42,364.26 L278.25,363.32 L278.44,361.47 L276.06,354.26 L273.65,352.62 L266.8,352.74 L266.84,355.71 L270.02,359.77 L271.23,366.09 L270.94,369.02 L268.9,373.76 L273.95,374.36 L281.34,379.85 L286.41,381.47Z" fill="rgb(175,186,69)"></path><path d="M144.55,513.05 L130.03,512.06 L120.14,508.75 L114.42,505.74 L105.94,505.23 L100.61,503.36 L98.47,501.74 L97.38,496.79 L94.37,493.35 L87.67,491.04 L75.89,482.01 L71.23,481.51 L65.97,482.77 L63.01,481.62 L58.35,476.95 L53.86,469.0 L18.1,456.93 L11.15,455.75 L7.31,453.2 L3.35,448.74 L3.22,446.95 L4.55,444.86 L7.03,443.76 L13.32,443.3 L15.83,442.13 L19.79,439.27 L26.06,432.36 L32.97,428.98 L33.45,425.14 L34.41,423.75 L44.9,418.92 L60.18,416.33 L64.49,412.65 L68.01,411.6 L73.05,411.75 L85.4,414.5 L87.54,411.02 L90.02,409.66 L101.59,409.43 L110.0,407.51 L116.06,407.63 L124.29,409.0 L125.97,408.14 L127.79,404.99 L130.18,404.17 L131.94,404.52 L133.68,406.19 L137.85,406.51 L139.85,408.02 L141.38,405.22 L138.79,393.92 L139.68,390.17 L141.2,389.22 L143.84,389.7 L145.1,392.09 L144.68,395.88 L145.47,398.04 L151.66,400.38 L154.26,398.81 L157.16,394.8 L155.41,389.9 L156.81,386.35 L160.11,384.95 L163.69,386.81 L165.85,390.19 L165.55,392.85 L156.2,406.3 L153.95,415.08 L142.92,437.92 L140.61,449.3 L141.58,486.62 L145.85,499.2 L147.95,508.18 L147.52,510.83 L145.29,512.78Z" fill="rgb(175,186,69)"></path><path d="M405.96,402.13 L406.01,402.14Z" fill="rgb(175,186,69)"></path><path d="M404.54,403.36 L404.47,402.79 L404.79,403.29Z" fill="rgb(175,186,69)"></path><path d="M673.96,412.13 L674.01,412.14Z" fill="rgb(175,186,69)"></path><path d="M774.49,483.44 L771.34,482.43 L759.37,475.48 L749.37,471.42 L744.7,468.2 L738.19,466.84 L732.34,464.44 L727.39,461.17 L721.02,455.44 L720.4,453.92 L721.24,451.73 L723.27,450.28 L726.08,450.06 L728.73,452.25 L729.9,456.99 L731.25,459.11 L735.25,461.03 L736.22,460.17 L736.47,458.15 L735.83,455.31 L731.07,446.24 L725.68,441.74 L721.56,436.64 L718.64,430.51 L719.33,427.83 L721.32,427.99 L725.42,430.18 L725.85,426.32 L727.59,426.07 L731.08,430.72 L734.93,439.76 L737.18,442.12 L744.73,446.36 L763.97,454.2 L771.34,457.95 L774.2,460.29 L777.38,464.35 L777.16,465.94 L775.79,466.78 L773.44,466.14 L769.31,462.76 L761.19,460.66 L759.68,461.87 L760.78,463.5 L768.53,468.3 L769.96,473.83 L775.11,480.55 L774.99,483.18Z" fill="rgb(175,186,69)"></path><path d="M685.96,495.13 L686.01,495.14Z" fill="rgb(175,186,69)"></path><path d="M322.39,369.67 L316.5,369.18 L306.91,363.75 L312.39,348.78 L312.09,345.97 L309.21,339.77 L306.79,330.92 L307.06,327.98 L310.36,321.81 L305.65,323.51 L303.17,323.22 L302.19,321.82 L301.94,318.37 L299.52,316.76 L296.25,315.96 L290.33,309.3 L285.42,306.45 L284.07,304.84 L284.96,302.56 L287.06,300.36 L291.23,298.21 L296.63,296.83 L301.64,293.21 L304.22,287.92 L303.56,286.82 L298.86,289.79 L296.82,288.59 L297.29,283.56 L293.99,270.9 L294.59,268.39 L296.45,265.85 L305.21,260.54 L304.71,258.73 L299.8,253.47 L298.61,249.99 L298.81,241.91 L299.85,239.44 L302.06,237.35 L306.08,235.79 L309.79,236.7 L310.66,239.07 L307.37,244.39 L306.97,248.77 L309.58,251.23 L314.12,250.96 L315.96,251.57 L317.09,253.07 L317.98,257.45 L321.95,259.57 L322.76,261.17 L321.91,263.5 L314.95,270.7 L317.14,278.06 L314.97,286.06 L313.02,290.01 L318.71,285.33 L322.06,280.08 L322.93,272.04 L325.39,263.87 L325.75,257.83 L327.08,255.78 L329.23,254.88 L326.06,251.88 L325.3,245.67 L322.91,238.9 L321.84,232.38 L317.07,228.34 L316.35,226.79 L319.38,218.33 L314.71,212.62 L315.36,210.37 L318.07,209.82 L321.33,211.02 L324.88,216.34 L326.18,214.6 L323.25,209.81 L323.69,208.09 L325.18,207.21 L330.73,209.18 L343.19,206.3 L350.03,202.73 L367.08,203.64 L369.86,204.42 L373.16,207.04 L377.33,208.96 L384.17,215.11 L388.17,216.63 L383.37,211.73 L382.3,203.82 L378.82,204.87 L376.15,204.71 L372.85,202.64 L371.68,199.86 L372.44,198.53 L375.06,197.86 L382.19,200.16 L386.1,198.88 L388.85,199.26 L391.61,200.83 L398.16,207.04 L403.67,209.6 L405.52,211.32 L406.11,213.09 L405.81,219.05 L403.99,222.87 L407.99,229.11 L409.03,238.09 L408.3,241.39 L406.69,244.16 L403.27,247.07 L399.92,248.21 L395.44,247.07 L392.7,242.72 L388.87,239.31 L390.4,244.01 L390.7,254.33 L393.06,260.1 L393.49,264.0 L392.25,276.05 L389.62,285.73 L392.67,294.18 L395.37,298.14 L395.58,305.62 L397.69,316.15 L400.52,319.32 L400.81,323.04 L398.33,325.3 L393.99,325.92 L391.01,324.63 L385.26,319.82 L381.76,321.27 L378.97,325.68 L383.4,328.63 L391.87,331.01 L392.35,332.09 L391.73,334.48 L392.4,335.92 L398.01,336.43 L399.15,337.44 L398.81,339.5 L392.39,346.95 L390.96,347.24 L386.9,345.95 L384.31,344.2 L381.37,340.74 L380.07,336.29 L376.33,330.74 L375.11,325.8 L373.46,325.55 L369.94,326.68 L364.01,324.8 L357.96,324.91 L355.97,326.23 L352.57,332.27 L345.02,334.21 L344.59,336.68 L345.85,343.18 L344.65,345.43 L342.28,345.12 L339.77,341.97 L336.49,340.73 L332.88,340.87 L330.2,342.37 L329.74,344.46 L331.25,347.25 L333.72,349.05 L337.88,349.69 L338.39,351.98 L335.79,353.83 L326.02,356.22 L325.2,364.08 L322.9,369.37Z" fill="rgb(211,11,15)"></path><path d="M285.57,260.09 L281.92,260.36 L278.38,259.42 L275.85,257.55 L274.22,254.79 L272.33,248.7 L272.46,245.4 L274.11,242.49 L278.43,240.4 L284.03,240.08 L291.15,245.5 L291.16,247.81 L289.83,248.69 L286.33,248.89 L285.68,251.18 L287.28,252.38 L291.88,252.69 L293.0,253.66 L293.29,255.89 L291.81,257.62 L286.3,259.87Z" fill="rgb(211,11,15)"></path><path d="M288.5,294.78 L282.39,292.17 L275.83,286.66 L274.01,283.89 L273.56,279.96 L274.25,276.15 L276.34,272.83 L279.13,271.03 L282.97,271.31 L290.29,277.53 L290.21,280.8 L285.79,282.46 L284.64,284.15 L285.86,287.77 L290.36,292.29 L290.27,293.73 L289.2,294.61Z" fill="rgb(211,11,15)"></path><path d="M452.56,601.1 L448.03,601.06 L440.47,598.01 L435.95,598.21 L429.03,596.7 L421.43,590.43 L422.13,588.95 L423.89,589.01 L420.95,589.37 L409.14,587.58 L403.63,581.71 L402.31,578.8 L402.89,576.44 L405.7,573.93 L410.1,571.94 L415.15,571.31 L421.98,566.79 L422.93,560.94 L427.27,547.46 L427.94,538.03 L429.98,533.48 L432.14,532.68 L433.43,533.47 L433.76,536.02 L431.92,537.98 L431.94,539.79 L434.66,541.23 L440.62,541.42 L447.32,539.44 L448.96,539.65 L450.89,541.3 L452.92,541.08 L453.09,535.46 L451.29,534.07 L447.15,533.71 L444.39,532.08 L442.55,528.49 L442.94,525.44 L448.21,521.22 L456.3,518.34 L461.47,518.01 L471.34,504.81 L477.22,502.23 L480.06,502.17 L478.28,501.36 L478.0,499.42 L479.92,497.35 L482.33,496.64 L479.65,491.74 L482.31,486.95 L478.51,484.69 L475.59,476.65 L476.3,474.53 L479.05,472.28 L478.69,470.53 L476.75,467.9 L474.51,466.74 L467.94,467.83 L464.81,467.28 L463.7,465.66 L464.62,463.78 L459.42,463.06 L454.8,457.85 L449.81,460.84 L447.96,460.72 L446.57,459.63 L446.05,457.9 L446.8,455.4 L451.03,452.3 L445.73,448.67 L438.68,439.49 L438.3,436.91 L439.34,435.56 L445.01,436.06 L443.83,431.88 L439.92,432.2 L438.25,431.04 L437.43,428.93 L437.74,425.8 L438.96,422.67 L442.89,417.39 L450.98,410.81 L451.98,405.0 L453.83,401.39 L475.04,383.57 L478.86,376.31 L486.29,371.69 L495.74,362.97 L502.18,361.4 L503.75,357.99 L513.75,353.06 L520.31,348.39 L523.04,348.27 L524.48,349.33 L525.34,352.05 L525.07,354.96 L523.62,359.85 L518.5,366.74 L514.51,374.46 L521.06,367.35 L528.95,364.73 L532.31,364.47 L534.24,365.46 L534.56,367.58 L533.64,370.8 L531.01,375.1 L522.04,377.44 L519.45,382.89 L516.96,384.79 L512.91,385.85 L508.35,384.59 L505.23,385.87 L501.21,389.36 L500.75,392.91 L507.53,387.74 L510.11,386.91 L512.03,387.17 L514.73,390.28 L514.57,395.57 L515.48,397.12 L517.23,391.12 L519.78,387.14 L526.91,383.92 L529.56,380.77 L533.04,380.18 L535.56,382.32 L535.84,385.03 L527.84,397.19 L530.01,400.91 L531.58,406.17 L534.12,405.96 L540.55,400.83 L543.09,400.19 L551.6,403.73 L553.29,405.53 L553.79,408.03 L551.76,413.9 L549.67,417.17 L540.84,422.44 L539.59,424.06 L540.26,425.36 L545.85,425.45 L548.75,427.78 L550.08,431.08 L549.13,434.29 L545.61,440.01 L543.27,442.06 L537.91,444.09 L528.03,446.01 L528.5,448.23 L533.66,455.27 L533.92,460.03 L532.2,462.69 L526.75,467.46 L522.57,469.59 L517.88,470.46 L519.99,477.97 L521.72,477.29 L525.06,472.45 L532.5,467.99 L534.7,465.34 L536.26,462.42 L536.8,455.91 L538.14,452.86 L541.29,448.8 L549.05,442.53 L551.0,439.92 L551.48,432.2 L550.64,425.11 L555.87,417.9 L557.4,409.79 L557.5,404.41 L560.24,397.63 L559.05,391.88 L559.46,389.57 L552.43,386.77 L550.62,386.71 L546.66,388.36 L543.66,388.02 L539.55,391.2 L537.33,391.23 L536.88,389.48 L539.16,384.81 L537.7,380.11 L540.05,378.03 L539.21,376.52 L535.87,376.93 L534.21,376.26 L533.37,374.78 L533.53,373.14 L538.71,366.97 L542.26,365.23 L545.97,364.98 L549.88,366.66 L550.93,369.12 L549.24,372.73 L545.83,374.41 L546.69,376.42 L556.08,374.68 L558.86,375.42 L561.13,377.58 L561.68,380.06 L559.0,384.5 L559.36,386.14 L567.23,380.77 L568.46,378.46 L563.46,376.04 L562.27,372.97 L563.35,370.75 L567.33,368.12 L568.17,365.24 L567.31,364.82 L560.89,367.13 L557.51,366.27 L555.22,364.42 L554.94,363.14 L557.73,358.87 L551.0,357.97 L552.01,359.4 L550.81,361.1 L542.95,361.73 L540.31,360.18 L539.02,356.63 L532.88,361.78 L531.7,360.99 L526.98,360.8 L525.66,359.61 L525.53,357.14 L530.52,351.75 L538.11,348.94 L542.09,348.84 L545.58,351.21 L546.99,351.36 L546.22,349.87 L547.01,349.01 L545.5,345.67 L546.43,343.53 L550.71,343.06 L556.09,339.94 L565.0,338.54 L570.08,338.86 L571.7,339.73 L572.38,341.14 L570.28,344.87 L565.75,347.92 L564.97,350.38 L567.33,354.91 L569.24,355.28 L571.21,353.53 L570.96,349.88 L572.16,347.36 L574.48,346.48 L577.32,346.63 L574.28,343.74 L573.81,340.91 L574.35,339.02 L576.3,337.33 L579.04,337.26 L580.42,338.22 L581.03,340.01 L583.1,339.39 L585.75,340.57 L601.55,353.1 L602.65,355.29 L602.8,358.32 L608.51,362.1 L612.01,367.91 L612.65,372.06 L610.39,374.23 L613.06,374.25 L614.48,375.23 L616.95,381.83 L621.3,388.68 L621.78,391.19 L621.06,393.56 L618.58,395.44 L614.8,396.85 L609.12,397.14 L607.14,393.38 L605.88,392.64 L601.84,394.41 L600.77,395.71 L599.74,401.31 L600.2,403.9 L605.04,403.59 L608.85,404.25 L611.61,405.83 L616.18,410.36 L617.69,410.07 L620.62,407.0 L622.88,406.82 L626.73,411.79 L631.64,416.23 L637.1,415.99 L641.2,417.18 L646.86,417.43 L651.21,421.33 L652.65,424.2 L651.68,426.48 L648.33,427.91 L646.95,429.71 L646.95,431.14 L648.42,433.64 L648.86,434.01 L653.08,431.81 L656.01,432.06 L660.9,434.54 L663.21,437.57 L663.68,440.07 L663.11,441.55 L661.41,443.07 L659.2,443.63 L653.0,443.0 L645.79,437.82 L644.77,438.48 L646.85,444.98 L643.59,465.58 L646.48,470.89 L648.28,471.27 L655.13,468.01 L658.05,467.79 L664.09,469.04 L665.62,470.25 L666.13,472.1 L665.24,474.72 L661.09,478.69 L658.0,479.8 L654.46,478.88 L653.35,482.96 L651.88,483.96 L648.94,484.07 L645.8,487.35 L647.64,488.19 L653.15,485.26 L660.12,484.96 L662.64,486.14 L664.5,489.21 L670.08,487.81 L673.72,488.85 L675.82,494.17 L673.64,503.14 L674.31,515.26 L673.2,518.2 L670.0,521.14 L668.16,525.56 L664.01,530.11 L662.87,536.03 L661.25,538.02 L653.81,539.71 L649.98,541.99 L647.5,542.52 L638.11,540.12 L637.15,538.79 L637.15,536.91 L638.14,535.36 L640.98,533.77 L642.85,528.44 L645.23,526.37 L651.43,523.7 L645.8,523.72 L640.74,526.76 L636.6,526.85 L636.02,531.0 L631.68,542.86 L629.51,545.34 L626.89,546.12 L624.16,545.43 L620.27,541.52 L613.01,537.73 L606.98,532.98 L604.26,532.87 L603.43,531.63 L603.4,529.93 L604.39,528.57 L609.32,528.24 L617.21,524.51 L619.04,522.83 L620.77,519.46 L623.07,517.19 L622.55,516.52 L622.05,517.74 L620.92,518.2 L613.86,517.68 L604.88,528.18 L602.17,532.55 L600.5,533.37 L602.96,533.52 L604.69,535.21 L606.93,536.02 L607.22,537.9 L601.09,542.0 L595.83,542.72 L595.16,549.1 L592.88,551.94 L585.94,552.37 L576.32,549.92 L573.34,552.22 L564.15,556.05 L563.14,559.6 L560.85,560.93 L558.28,560.14 L555.75,555.85 L552.84,556.95 L549.97,556.9 L544.89,553.61 L542.46,550.83 L540.72,552.71 L538.75,559.27 L532.8,563.64 L532.47,567.61 L531.39,569.89 L517.27,579.07 L510.98,581.09 L506.87,581.47 L502.36,578.48 L493.66,575.02 L491.87,576.27 L485.95,584.68 L488.57,590.1 L486.72,592.61 L482.92,593.16 L479.47,591.84 L474.5,596.19 L470.86,597.85 L465.92,599.15 L462.37,598.81 L453.3,600.9Z" fill="rgb(211,11,15)"></path><path d="M324.49,565.95 L321.48,565.01 L320.49,562.9 L321.71,559.35 L326.32,554.14 L323.04,550.48 L322.99,548.43 L327.13,543.81 L334.2,532.68 L344.06,524.35 L352.67,520.19 L354.86,515.02 L349.88,516.96 L348.14,516.51 L346.38,514.82 L344.59,507.96 L346.12,498.74 L345.61,496.86 L343.02,495.96 L341.3,496.84 L329.49,509.99 L323.95,514.65 L318.82,516.86 L317.02,516.59 L315.2,515.13 L310.98,504.92 L311.96,499.95 L313.95,495.66 L317.43,491.81 L322.15,489.05 L332.12,489.02 L336.03,490.43 L336.02,489.18 L333.28,486.52 L330.69,485.61 L325.38,485.58 L319.78,487.49 L307.97,498.65 L301.27,503.08 L293.75,506.25 L278.79,523.53 L271.82,525.56 L268.88,522.71 L265.7,528.17 L253.68,539.52 L250.05,540.04 L241.83,537.97 L239.36,535.93 L235.33,529.3 L225.66,524.05 L222.81,521.46 L221.88,517.93 L223.41,511.33 L221.11,502.0 L219.3,499.29 L212.3,494.11 L209.77,487.93 L209.95,485.03 L212.46,476.86 L212.04,460.02 L216.24,447.1 L221.45,439.85 L231.25,434.72 L233.32,430.73 L232.31,429.82 L230.0,430.8 L219.73,438.43 L216.12,439.39 L213.86,436.93 L212.53,429.82 L210.7,428.2 L208.42,427.57 L207.01,428.59 L206.68,433.89 L208.51,439.86 L206.04,447.33 L201.09,451.8 L198.92,452.44 L197.45,451.9 L195.48,456.98 L190.81,460.5 L193.37,462.24 L198.18,461.3 L199.72,461.82 L200.49,463.85 L199.74,466.32 L204.08,464.84 L207.72,465.86 L209.27,470.07 L207.94,477.05 L203.61,483.27 L196.09,487.37 L194.91,491.02 L193.69,492.2 L191.69,491.68 L188.56,487.64 L185.91,479.89 L186.29,471.63 L183.61,466.69 L183.42,461.45 L182.05,457.85 L182.01,455.01 L186.57,444.37 L190.33,438.03 L199.23,427.36 L198.66,419.94 L199.8,412.89 L204.46,404.11 L207.14,402.58 L211.3,404.26 L214.14,401.2 L206.14,396.35 L205.07,394.87 L204.78,391.92 L205.54,390.04 L207.07,388.91 L211.22,388.55 L209.84,386.8 L209.79,384.23 L206.61,380.62 L206.53,378.14 L208.44,375.81 L211.24,374.22 L220.26,372.27 L227.09,371.84 L238.53,376.27 L245.83,376.33 L250.18,378.12 L251.93,380.08 L254.1,386.11 L253.92,389.03 L251.01,393.12 L249.59,397.86 L246.92,401.93 L244.96,410.03 L242.98,414.44 L243.93,417.76 L246.46,420.21 L248.64,419.82 L252.54,416.81 L255.11,415.9 L257.84,416.42 L260.1,418.02 L269.26,418.27 L274.68,416.19 L278.58,412.87 L281.9,412.0 L292.21,404.38 L293.84,404.67 L296.01,407.04 L301.03,405.19 L304.26,406.38 L308.85,406.58 L313.88,409.01 L322.87,405.51 L328.34,408.02 L332.21,412.15 L336.13,411.09 L338.48,412.23 L340.47,416.04 L344.53,419.3 L345.33,422.05 L344.56,425.86 L341.0,429.15 L340.16,430.99 L342.19,430.12 L344.85,430.29 L348.6,433.07 L349.38,424.92 L350.36,423.52 L353.07,422.74 L358.19,423.27 L357.26,416.82 L358.36,414.77 L365.0,413.54 L374.9,414.44 L379.19,413.54 L381.09,415.08 L381.71,418.19 L387.4,429.48 L388.06,433.12 L391.45,438.45 L392.4,442.01 L392.25,456.05 L390.05,467.97 L387.59,473.65 L391.4,485.01 L391.37,491.06 L390.07,496.13 L387.81,500.28 L383.3,504.67 L372.08,519.61 L364.77,523.09 L367.68,524.9 L368.48,527.14 L364.7,533.17 L359.61,538.35 L347.11,545.53 L345.5,548.97 L341.33,551.68 L339.46,554.9 L333.91,560.55 L325.25,565.81Z" fill="rgb(211,11,15)"></path><path d="M507.17,421.09 L510.25,418.15 L511.03,415.59 L511.08,409.97 L513.21,406.54 L511.29,400.44 L509.68,404.48 L499.73,407.83 L492.87,407.16 L491.29,406.32 L490.57,404.54 L489.54,408.1 L490.19,411.98 L492.27,412.27 L497.33,410.46 L499.56,410.94 L502.65,414.03 L505.79,420.64 L506.86,421.33Z" fill="rgb(211,11,15)"></path><path d="M221.03,424.17 L222.62,417.39 L225.21,415.35 L227.56,415.88 L229.71,417.86 L231.3,420.48 L231.41,422.38 L233.3,422.24 L239.19,411.9 L237.97,410.01 L236.52,409.75 L225.89,413.79 L224.28,413.14 L222.05,410.03 L221.21,409.95 L218.9,413.51 L214.8,417.1 L218.98,420.6 L220.83,424.38Z" fill="rgb(211,11,15)"></path><path d="M516.14,457.13 L517.07,454.22 L516.76,449.61 L521.23,444.33 L521.35,437.06 L524.96,428.67 L529.15,423.79 L527.84,417.91 L531.2,411.14 L529.29,414.02 L522.83,418.63 L518.09,420.72 L521.78,427.24 L522.33,431.07 L520.77,435.27 L516.5,437.99 L513.77,441.58 L515.34,449.05 L513.66,454.78 L516.0,457.29Z" fill="rgb(211,11,15)"></path><path d="M336.56,457.14 L336.63,447.94 L338.46,438.9 L338.13,435.04 L337.1,433.53 L330.03,429.66 L324.36,424.33 L321.58,422.86 L319.97,428.08 L319.95,432.08 L318.95,433.64 L315.86,434.51 L312.28,431.79 L310.01,432.23 L308.56,438.93 L310.01,445.15 L309.62,447.97 L307.72,449.6 L304.94,450.06 L301.77,453.43 L302.13,455.03 L306.19,454.3 L310.18,452.31 L312.66,453.05 L314.61,440.38 L317.48,437.58 L321.0,437.08 L325.97,439.33 L331.19,443.44 L334.79,452.24 L335.53,456.91 L336.46,457.46Z" fill="rgb(211,11,15)"></path><path d="M227.4,469.15 L240.7,456.33 L243.07,452.13 L242.56,443.96 L243.2,439.32 L242.21,436.8 L240.24,436.95 L235.81,443.12 L238.04,448.12 L237.92,452.03 L236.67,454.15 L232.35,457.94 L230.01,458.38 L228.55,456.67 L228.8,454.42 L230.52,451.82 L225.82,453.51 L224.05,451.86 L224.72,449.7 L222.98,450.07 L222.15,449.06 L221.53,458.88 L225.11,459.27 L226.59,460.31 L226.97,463.0 L225.59,467.65 L226.02,469.03 L226.99,469.35Z" fill="rgb(211,11,15)"></path><path d="M173.49,493.92 L170.49,492.89 L168.21,488.79 L166.6,481.99 L166.75,476.92 L168.31,474.5 L170.02,474.21 L172.53,475.17 L177.21,471.36 L179.56,471.98 L180.99,474.02 L181.84,478.12 L181.62,482.85 L179.28,489.61 L174.25,493.73Z" fill="rgb(211,11,15)"></path><path d="M687.51,516.92 L679.92,517.26 L678.04,516.46 L676.67,513.97 L677.41,508.16 L679.15,505.84 L681.27,500.02 L684.97,495.44 L687.09,494.56 L691.87,495.35 L695.87,498.33 L698.52,499.17 L701.89,497.48 L704.02,491.67 L706.91,489.2 L709.88,488.91 L711.37,492.03 L709.24,502.92 L702.41,510.1 L699.94,510.62 L697.4,508.84 L694.35,511.94 L691.93,512.6 L688.83,510.01 L686.0,509.25 L688.56,513.29 L688.13,516.44Z" fill="rgb(211,11,15)"></path><path d="M206.48,528.9 L203.49,527.91 L200.01,522.89 L198.63,506.95 L200.2,503.36 L204.51,501.89 L207.3,498.67 L210.18,497.13 L212.85,497.3 L215.55,499.06 L218.43,503.47 L218.96,506.98 L216.59,513.0 L210.01,518.11 L209.7,525.84 L207.23,528.7Z" fill="rgb(211,11,15)"></path><path d="M184.52,521.97 L181.99,521.63 L180.26,519.96 L175.15,508.77 L174.84,500.9 L175.67,499.17 L177.2,498.21 L179.86,498.48 L182.83,501.36 L185.58,498.83 L188.56,499.01 L190.44,501.36 L194.0,509.11 L194.46,513.02 L193.66,516.98 L191.76,518.72 L187.97,519.69 L185.26,521.73Z" fill="rgb(211,11,15)"></path><path d="M251.49,522.19 L253.51,521.02 L257.53,515.85 L262.11,513.72 L263.44,510.1 L262.29,507.3 L256.93,504.0 L254.33,503.59 L251.46,504.33 L249.7,505.9 L251.14,511.05 L248.78,521.05 L249.51,522.29 L250.95,522.38Z" fill="rgb(211,11,15)"></path><path d="M708.96,504.13 L709.01,504.14Z" fill="rgb(211,11,15)"></path><path d="M295.57,527.07 L291.92,527.36 L289.15,526.64 L287.27,524.77 L286.9,522.93 L290.45,513.12 L292.17,511.38 L296.29,509.36 L299.08,509.06 L300.72,509.84 L303.92,514.5 L309.81,517.39 L311.28,519.91 L310.47,521.18 L308.88,521.72 L305.04,520.56 L302.37,521.17 L296.29,526.79Z" fill="rgb(211,11,15)"></path><path d="M324.56,538.09 L320.93,537.93 L319.18,535.86 L320.39,530.7 L320.35,523.15 L324.89,515.4 L333.26,509.24 L337.03,509.17 L339.01,510.71 L342.95,516.13 L343.02,520.99 L340.63,526.0 L334.94,532.55 L325.3,537.86Z" fill="rgb(211,11,15)"></path><path d="M172.44,537.79 L170.12,537.7 L166.85,535.55 L162.79,526.92 L163.44,523.14 L166.98,519.81 L168.08,515.95 L169.61,513.99 L171.88,513.51 L174.61,514.9 L176.44,517.42 L178.04,522.14 L177.57,526.6 L174.38,531.43 L173.09,537.39Z" fill="rgb(211,11,15)"></path><path d="M567.14,531.05 L572.18,528.53 L576.92,524.01 L583.36,523.3 L588.12,520.94 L590.08,521.09 L591.62,522.2 L591.95,525.0 L592.93,522.91 L590.08,520.94 L584.62,520.69 L577.89,524.05 L573.92,524.34 L571.18,523.46 L569.18,521.79 L564.2,520.62 L560.84,516.87 L558.36,515.88 L558.04,517.92 L557.03,518.96 L550.98,520.97 L551.1,523.74 L548.15,526.6 L546.22,526.93 L545.51,525.85 L545.87,523.69 L547.33,522.36 L544.08,523.92 L543.94,525.73 L549.18,530.36 L557.92,526.94 L561.14,526.48 L563.12,527.47 L566.81,531.34Z" fill="rgb(211,11,15)"></path><path d="M303.49,553.86 L298.08,551.6 L295.81,549.56 L293.21,544.76 L292.66,540.94 L294.8,532.81 L301.1,526.45 L304.15,525.0 L307.04,525.2 L308.48,526.28 L312.81,534.61 L316.89,537.66 L317.92,540.13 L316.14,543.69 L309.72,548.27 L304.25,553.71Z" fill="rgb(211,11,15)"></path><path d="M224.49,554.96 L222.11,554.55 L215.39,550.08 L211.81,542.93 L212.35,539.15 L215.2,536.12 L216.42,530.14 L218.53,527.81 L221.08,526.81 L224.85,527.42 L232.0,532.6 L234.65,540.32 L234.48,542.86 L232.0,546.13 L229.89,552.17 L228.09,553.93 L225.25,554.83Z" fill="rgb(211,11,15)"></path><path d="M243.52,569.03 L239.5,567.92 L236.02,562.87 L235.99,551.9 L237.38,548.01 L241.45,544.55 L247.02,543.53 L252.59,544.41 L259.57,548.23 L261.63,548.12 L262.44,546.06 L260.86,539.9 L261.58,536.39 L265.06,532.35 L270.25,530.16 L274.81,530.17 L280.55,533.1 L282.27,538.07 L280.96,543.89 L282.0,545.03 L286.2,543.34 L288.48,544.27 L289.65,548.07 L288.45,551.89 L284.56,554.47 L272.97,558.6 L267.89,562.99 L248.54,566.51 L244.28,568.83Z" fill="rgb(211,11,15)"></path><path d="M207.48,563.34 L205.83,562.51 L203.77,559.97 L198.39,557.11 L193.17,550.94 L192.7,558.85 L190.93,561.54 L188.39,563.11 L186.15,563.21 L184.16,561.78 L180.15,560.68 L178.14,559.19 L176.95,556.99 L174.52,544.67 L175.04,542.43 L177.08,541.01 L183.13,540.03 L185.56,540.85 L188.97,544.0 L189.59,537.16 L196.15,532.06 L200.62,532.62 L202.9,535.16 L203.04,537.95 L200.59,548.58 L208.61,559.28 L208.9,561.91 L208.06,563.13Z" fill="rgb(211,11,15)"></path><path d="M482.53,568.12 L487.31,565.69 L493.18,560.52 L493.3,557.93 L491.91,552.91 L493.38,548.74 L493.44,544.82 L495.1,542.91 L499.01,542.35 L499.99,541.45 L498.24,533.69 L491.12,535.26 L487.01,540.31 L485.9,542.79 L485.61,544.68 L486.63,548.62 L486.19,552.5 L484.16,556.57 L480.74,559.85 L479.92,562.27 L482.21,568.27Z" fill="rgb(211,11,15)"></path><path d="M220.57,582.1 L216.94,582.43 L213.17,581.61 L210.7,579.67 L209.6,577.48 L210.2,574.5 L216.04,570.99 L213.44,566.56 L212.66,562.95 L213.17,559.96 L215.17,558.12 L218.02,558.09 L221.32,560.22 L222.62,562.3 L223.03,566.01 L228.1,565.88 L230.89,568.16 L230.8,575.21 L230.06,577.56 L226.28,580.14 L221.3,581.89Z" fill="rgb(211,11,15)"></path><path d="M416.56,570.06 L412.92,570.21 L409.76,568.55 L409.18,564.96 L411.49,562.7 L416.15,561.99 L419.24,563.45 L419.88,567.03 L417.29,569.79Z" fill="rgb(211,11,15)"></path><path d="M269.5,598.97 L267.13,598.72 L263.02,596.73 L259.89,593.39 L260.18,589.86 L264.3,585.05 L262.8,582.85 L254.9,589.05 L248.92,589.36 L244.86,587.45 L243.76,584.97 L242.46,574.13 L243.8,571.35 L246.83,569.65 L259.09,568.84 L261.55,569.91 L263.81,573.02 L269.94,569.45 L272.01,565.83 L273.18,565.1 L276.83,567.52 L277.06,568.77 L275.68,569.36 L279.03,570.51 L284.34,563.63 L289.1,563.39 L290.67,565.2 L289.62,570.68 L290.58,575.07 L288.88,576.94 L283.97,577.91 L278.04,580.78 L277.83,582.56 L281.91,584.44 L284.29,583.68 L290.78,577.13 L298.27,572.34 L302.08,571.7 L304.72,572.72 L305.6,574.82 L304.96,578.07 L302.63,582.01 L299.97,584.65 L291.89,589.06 L283.86,588.72 L279.36,591.8 L276.28,596.02 L270.26,598.81Z" fill="rgb(211,11,15)"></path><path d="M235.5,606.78 L227.44,604.16 L221.3,597.77 L221.55,595.05 L224.36,592.78 L223.14,588.81 L223.49,586.14 L227.04,583.76 L231.05,583.76 L238.64,585.68 L240.61,586.9 L242.39,589.5 L242.48,592.86 L239.01,597.11 L238.17,604.07 L236.21,606.61Z" fill="rgb(211,11,15)"></path><path d="M249.53,617.05 L242.13,615.59 L237.37,610.73 L236.84,607.91 L237.46,606.04 L242.3,603.33 L247.44,603.29 L254.01,601.6 L258.08,601.71 L261.31,603.27 L266.05,608.61 L265.98,611.56 L262.96,613.8 L259.91,615.06 L250.28,616.88Z" fill="rgb(211,11,15)"></path><path d="M269.56,227.1 L265.9,227.18 L262.86,225.55 L252.22,209.79 L250.11,202.0 L247.22,196.76 L245.34,187.67 L240.9,175.9 L240.43,167.41 L239.2,162.83 L239.71,161.16 L241.09,160.39 L243.33,160.97 L250.32,165.82 L262.88,170.23 L269.61,173.83 L274.65,179.05 L283.83,194.68 L287.68,198.04 L289.39,193.69 L289.75,178.95 L293.83,163.4 L296.12,161.98 L299.82,162.32 L301.3,161.68 L316.32,146.79 L322.54,141.81 L326.1,140.95 L328.94,143.12 L330.69,154.39 L334.39,166.01 L334.52,175.8 L335.45,182.02 L334.36,186.84 L326.78,190.49 L320.96,194.8 L309.78,199.49 L297.95,211.65 L287.76,216.49 L275.28,225.07 L270.3,226.89Z" fill="rgb(129,138,47)"></path><path d="M345.44,179.68 L343.32,178.83 L341.0,173.98 L339.76,165.95 L341.05,159.97 L344.54,152.4 L347.41,147.0 L349.35,145.53 L351.07,145.42 L352.48,146.35 L353.36,151.06 L351.06,165.98 L346.12,179.37Z" fill="rgb(129,138,47)"></path><path d="M642.5,342.83 L639.7,342.12 L628.39,336.07 L627.01,333.92 L625.83,329.37 L623.98,327.01 L622.27,326.94 L619.44,330.14 L616.88,330.94 L613.84,329.65 L612.02,325.9 L615.24,314.63 L614.96,310.88 L615.59,309.06 L617.14,308.03 L621.51,307.99 L631.01,289.62 L636.7,284.33 L640.34,278.83 L644.08,276.82 L647.84,277.66 L649.26,281.07 L648.04,285.33 L644.53,288.89 L642.74,292.56 L642.58,295.61 L644.27,301.03 L644.57,305.53 L646.18,308.24 L651.13,311.56 L651.88,315.01 L650.53,317.2 L648.87,317.87 L641.74,315.73 L635.77,319.22 L634.75,321.48 L637.46,327.18 L639.71,329.05 L649.19,326.14 L651.86,326.49 L653.99,329.02 L654.83,333.17 L654.36,335.62 L652.91,337.55 L643.23,342.73Z" fill="rgb(129,138,47)"></path><path d="M686.49,376.96 L684.1,376.51 L682.88,375.43 L682.1,372.87 L682.69,371.15 L685.03,369.77 L689.99,369.11 L692.21,367.71 L684.16,365.75 L678.94,362.47 L678.29,359.17 L681.36,351.97 L675.44,351.96 L669.81,344.47 L666.44,330.9 L668.3,327.0 L667.37,322.93 L667.94,319.87 L675.07,306.1 L676.58,296.39 L680.23,291.42 L680.09,288.98 L678.21,284.81 L678.45,283.02 L681.17,281.08 L683.85,281.3 L686.53,283.31 L687.26,289.12 L691.33,289.3 L698.09,286.85 L704.12,287.75 L710.67,290.57 L717.98,295.52 L719.78,298.23 L720.9,303.0 L722.27,305.28 L724.13,307.0 L729.33,309.02 L731.03,310.75 L733.95,323.18 L733.83,325.04 L732.54,327.13 L726.73,329.51 L718.95,336.65 L710.58,341.44 L703.09,344.65 L704.94,346.3 L710.0,344.73 L717.08,343.96 L718.72,344.73 L719.5,346.1 L718.97,349.17 L714.27,354.07 L705.98,356.87 L701.74,359.41 L701.99,360.3 L704.87,361.35 L706.72,363.23 L707.02,365.11 L705.88,367.5 L703.73,368.72 L699.94,369.07 L694.3,374.07 L687.25,376.83Z" fill="rgb(129,138,47)"></path><path d="M600.52,324.0 L597.16,323.61 L593.47,320.69 L592.81,316.94 L594.24,311.68 L590.82,307.45 L590.1,304.88 L590.73,303.21 L592.18,302.32 L597.81,303.33 L599.14,302.69 L602.81,296.73 L604.46,291.14 L606.34,289.51 L608.03,289.26 L610.27,290.24 L611.72,292.27 L612.13,295.07 L608.77,302.66 L607.01,314.05 L604.01,318.18 L602.45,322.73 L601.26,323.72Z" fill="rgb(129,138,47)"></path><path d="M214.57,311.07 L195.98,311.48 L188.86,310.54 L168.95,310.41 L165.6,308.68 L165.69,307.02 L167.0,305.91 L188.14,299.96 L190.99,300.01 L196.31,301.98 L211.74,292.93 L215.11,292.19 L217.48,294.3 L218.45,304.02 L217.56,308.84 L215.29,310.79Z" fill="rgb(129,138,47)"></path><path d="M676.48,412.9 L674.12,412.41 L670.32,408.29 L665.27,404.52 L653.66,399.05 L648.26,394.5 L634.09,387.56 L632.38,385.73 L631.52,378.98 L632.54,373.41 L635.09,371.44 L638.08,372.29 L639.27,369.55 L638.71,364.8 L637.39,366.49 L636.28,366.45 L634.97,361.92 L636.17,352.19 L637.16,349.88 L639.07,348.48 L652.09,346.81 L654.95,347.56 L656.2,350.04 L655.75,352.52 L658.19,350.74 L660.37,350.89 L662.32,352.29 L666.2,357.54 L667.12,361.07 L665.96,364.78 L667.72,368.13 L667.65,369.97 L667.19,365.87 L668.3,363.99 L669.51,364.24 L674.03,368.74 L677.1,379.09 L678.7,390.33 L680.4,396.01 L680.23,402.06 L678.82,406.2 L679.07,410.08 L677.23,412.68Z" fill="rgb(129,138,47)"></path><path d="M286.48,382.86 L282.41,382.45 L279.0,380.63 L273.42,375.8 L269.87,375.93 L267.65,374.61 L267.36,372.15 L269.23,368.37 L269.43,366.3 L269.0,361.71 L265.41,356.14 L265.25,352.84 L266.27,351.35 L269.01,350.55 L274.09,350.81 L277.62,353.27 L280.1,361.11 L279.8,364.02 L278.66,365.35 L272.95,367.67 L276.18,370.98 L277.75,371.38 L283.05,369.98 L289.03,370.15 L294.02,373.66 L295.05,375.6 L294.86,377.7 L291.97,378.68 L288.78,377.74 L287.15,382.43Z" fill="rgb(129,138,47)"></path><path d="M337.59,382.56 L336.13,381.49 L335.69,378.83 L330.89,380.13 L327.44,379.16 L319.81,372.76 L318.42,369.87 L319.34,368.48 L320.98,368.09 L328.07,369.08 L335.15,365.22 L341.2,363.24 L343.55,363.98 L344.86,366.17 L344.23,374.07 L340.72,381.1 L338.23,382.56Z" fill="rgb(129,138,47)"></path><path d="M701.5,413.84 L692.01,410.63 L685.03,405.37 L684.1,402.87 L685.12,400.5 L687.23,399.22 L701.1,396.85 L707.1,398.37 L713.1,396.86 L715.85,397.26 L720.21,400.33 L722.11,404.1 L721.04,408.33 L717.24,412.02 L714.54,412.69 L707.38,412.58 L702.23,413.76Z" fill="rgb(129,138,47)"></path><path d="M710.5,478.79 L708.36,478.14 L706.86,475.94 L706.33,466.88 L709.26,445.68 L708.72,440.94 L710.65,422.92 L711.67,420.17 L713.2,419.2 L715.02,419.16 L721.62,421.58 L725.65,425.06 L726.99,429.06 L725.78,431.2 L722.84,430.98 L719.56,428.65 L723.86,436.77 L727.41,440.97 L730.57,442.85 L732.63,445.17 L737.47,454.45 L738.32,458.05 L737.1,461.67 L735.68,462.46 L733.41,462.35 L728.97,459.26 L726.63,452.09 L725.23,451.62 L722.96,452.47 L718.93,461.91 L714.42,475.62 L711.22,478.66Z" fill="rgb(129,138,47)"></path><path d="M793.48,498.35 L791.81,497.65 L783.81,489.87 L776.01,484.49 L771.29,479.14 L768.34,474.74 L767.08,469.33 L758.53,463.65 L758.28,460.96 L760.19,459.19 L770.05,461.06 L775.13,465.0 L779.48,467.21 L792.44,488.42 L794.98,495.12 L794.07,498.14Z" fill="rgb(129,138,47)"></path><path d="M416.57,601.09 L402.94,600.38 L391.18,597.84 L384.38,595.43 L366.92,585.98 L358.47,583.73 L353.37,583.58 L339.98,585.45 L329.02,584.37 L327.91,582.92 L326.08,574.82 L326.84,571.46 L334.3,561.83 L339.86,556.29 L343.21,554.22 L350.01,551.94 L369.28,547.2 L373.56,547.86 L376.07,550.7 L378.79,556.15 L383.62,571.19 L389.25,579.25 L396.0,583.37 L404.34,589.85 L410.92,593.08 L418.83,595.67 L419.73,597.2 L419.56,598.96 L417.29,600.85Z" fill="rgb(129,138,47)"></path></svg>