<svg width="800" height="800" xmlns="http://www.w3.org/2000/svg"><path d="M247.55,620.08 L243.14,619.55 L239.3,615.29 L234.27,611.52 L223.02,606.48 L217.37,597.82 L214.78,591.09 L211.47,590.11 L209.84,588.5 L209.4,586.92 L210.53,582.86 L204.9,585.0 L199.89,583.62 L195.93,583.72 L192.81,581.56 L190.21,576.79 L188.96,571.85 L189.17,568.97 L190.11,567.5 L193.14,565.99 L195.99,566.01 L203.63,570.25 L206.0,570.75 L197.35,560.94 L193.44,550.9 L193.0,554.02 L191.18,556.85 L187.91,558.14 L183.86,557.73 L181.92,561.08 L180.06,562.15 L178.37,560.95 L173.86,553.81 L170.16,559.61 L168.09,560.38 L166.02,559.47 L161.86,552.27 L160.62,547.97 L161.47,543.16 L162.61,541.99 L164.88,541.51 L168.17,543.33 L172.06,548.67 L167.84,538.36 L162.21,527.77 L160.65,519.95 L161.35,516.15 L163.18,514.22 L171.01,513.08 L176.87,516.72 L180.54,523.29 L180.44,527.19 L179.47,529.96 L174.77,532.61 L174.73,534.24 L175.71,535.71 L179.71,538.36 L184.2,539.33 L186.03,531.0 L187.52,529.05 L189.57,528.99 L193.15,531.36 L197.1,530.99 L199.61,531.59 L202.74,533.78 L204.09,536.11 L201.64,546.93 L207.48,549.22 L210.15,555.61 L212.22,557.8 L214.26,558.08 L217.05,556.65 L214.42,555.15 L212.37,552.82 L206.53,539.65 L199.23,526.78 L199.24,521.68 L196.25,517.53 L195.39,516.94 L192.74,519.62 L184.71,522.72 L181.16,522.41 L177.35,517.94 L172.74,509.47 L171.81,504.94 L174.05,499.65 L178.0,497.61 L186.62,497.68 L191.56,502.1 L192.19,498.18 L193.69,495.26 L202.19,489.31 L205.33,490.03 L209.2,495.0 L213.13,496.7 L209.34,492.07 L208.38,489.18 L212.39,475.7 L212.48,469.2 L211.54,462.99 L211.97,458.01 L215.54,448.4 L219.83,441.39 L223.05,438.35 L231.63,433.24 L232.45,431.07 L229.78,431.5 L220.64,438.44 L215.87,439.93 L214.15,439.31 L213.06,437.87 L211.74,429.77 L210.14,428.68 L208.52,429.76 L207.59,433.59 L209.84,439.99 L208.06,446.32 L202.91,453.55 L191.93,460.73 L194.64,462.19 L200.88,460.48 L207.61,464.92 L209.39,468.82 L209.2,477.11 L204.67,484.17 L201.56,486.44 L196.77,488.24 L195.06,492.58 L192.86,493.63 L190.83,492.37 L186.94,484.93 L185.28,473.81 L182.35,468.69 L183.38,462.32 L181.79,455.95 L183.54,450.4 L188.94,439.67 L198.23,427.33 L198.64,415.98 L199.5,413.55 L196.05,417.59 L193.81,418.45 L192.36,417.76 L190.09,414.03 L188.33,414.17 L179.87,423.49 L177.74,424.35 L175.63,423.99 L171.65,426.4 L170.14,426.1 L169.19,424.78 L169.55,420.81 L166.65,425.15 L164.65,426.42 L162.33,425.99 L161.49,423.12 L167.01,414.9 L168.71,410.41 L174.23,403.32 L175.41,396.41 L178.19,390.86 L176.78,386.92 L177.81,383.4 L187.96,378.14 L190.37,372.99 L195.18,368.37 L206.02,365.62 L213.21,366.9 L217.12,369.99 L226.89,372.63 L229.1,374.03 L235.06,373.63 L245.92,375.31 L251.05,374.79 L257.98,375.95 L261.04,377.54 L261.8,379.17 L261.15,381.55 L257.31,386.54 L255.16,391.56 L250.87,396.19 L247.12,402.11 L243.94,417.71 L246.94,420.3 L252.08,418.79 L257.87,420.3 L262.08,418.45 L266.13,419.2 L268.37,418.52 L278.77,413.14 L290.28,402.64 L295.29,399.7 L301.36,393.71 L302.87,393.81 L307.58,397.26 L333.85,402.25 L350.62,412.51 L364.09,416.37 L397.02,412.1 L404.77,408.14 L413.01,400.0 L413.27,398.77 L411.94,398.92 L402.58,404.44 L395.99,406.4 L371.64,403.33 L366.04,399.92 L353.15,395.53 L351.84,393.65 L352.63,391.72 L356.0,391.07 L365.79,393.14 L371.4,395.37 L378.63,395.42 L387.22,394.28 L391.19,392.39 L394.99,388.99 L395.18,387.08 L391.8,387.72 L390.15,387.26 L388.13,383.38 L386.05,382.56 L357.86,389.05 L351.8,388.28 L346.67,386.06 L339.99,381.38 L339.67,379.12 L341.87,374.9 L343.26,367.71 L342.08,365.03 L332.81,367.68 L329.25,370.05 L326.01,370.84 L318.87,369.07 L309.65,364.95 L308.1,362.84 L307.86,360.95 L309.04,355.93 L311.26,351.42 L311.43,346.41 L308.94,339.93 L306.73,328.93 L310.2,319.33 L309.1,319.0 L305.73,321.64 L303.16,321.33 L300.73,317.89 L293.68,313.8 L289.82,308.89 L283.92,306.94 L282.24,304.83 L283.09,302.5 L286.05,300.32 L302.03,292.14 L300.98,290.96 L297.86,291.39 L296.19,289.78 L296.43,281.41 L293.73,271.93 L295.83,266.39 L304.03,260.0 L299.57,254.58 L297.73,248.96 L297.94,244.03 L300.4,238.0 L305.12,234.96 L308.1,234.88 L309.83,235.68 L310.84,239.03 L306.93,246.81 L306.96,248.79 L309.11,250.36 L314.11,248.91 L316.84,249.58 L318.3,251.52 L319.03,256.03 L322.36,253.26 L324.26,248.46 L324.11,244.85 L321.94,238.9 L321.37,234.12 L314.66,231.62 L305.08,231.68 L297.92,233.03 L284.2,232.52 L277.85,233.83 L273.28,232.94 L268.93,236.65 L265.81,237.71 L264.2,237.2 L263.33,235.8 L263.98,232.67 L266.73,229.93 L274.68,226.18 L282.06,218.35 L292.14,213.99 L300.09,214.7 L303.86,216.56 L305.81,219.2 L304.68,223.86 L306.28,225.8 L307.94,226.31 L314.75,225.05 L316.85,222.66 L318.25,218.68 L313.03,214.37 L312.24,210.96 L313.72,208.99 L321.97,204.09 L321.25,199.81 L322.02,197.49 L324.88,196.51 L328.73,198.69 L330.44,201.33 L330.08,204.11 L332.44,206.21 L338.16,204.06 L342.03,204.45 L341.57,202.81 L335.03,196.37 L334.31,193.88 L336.09,191.91 L341.75,191.05 L345.21,187.47 L349.1,185.91 L356.06,185.63 L361.93,187.07 L367.05,185.74 L371.02,186.19 L372.34,187.39 L372.65,189.07 L371.54,191.13 L368.78,193.46 L369.23,195.0 L383.92,197.31 L390.07,196.78 L393.33,197.96 L396.19,200.52 L398.28,205.11 L403.57,207.84 L406.71,210.89 L407.99,213.1 L408.62,216.88 L409.45,217.37 L413.13,217.37 L414.16,216.43 L407.01,207.9 L406.16,201.83 L407.33,199.63 L409.59,199.6 L412.99,201.37 L423.42,210.01 L425.57,207.04 L427.15,206.17 L430.97,207.62 L432.02,210.12 L431.63,211.97 L425.81,217.11 L430.58,222.34 L430.36,224.82 L428.83,226.81 L429.79,232.48 L439.18,242.11 L446.6,244.73 L449.89,248.47 L457.3,254.07 L458.09,249.97 L459.32,248.66 L460.88,248.58 L468.63,256.17 L470.91,262.18 L470.26,264.79 L468.78,265.63 L466.44,265.12 L462.15,260.66 L460.74,262.49 L460.91,265.01 L463.72,268.48 L471.17,271.03 L473.14,272.51 L483.47,292.46 L484.26,296.09 L483.04,299.54 L480.8,300.68 L479.14,300.47 L475.7,296.72 L477.06,300.62 L484.19,307.44 L490.56,318.21 L494.99,317.45 L497.66,320.26 L503.27,345.03 L503.57,353.53 L504.91,355.97 L507.77,355.13 L514.26,349.37 L523.15,346.97 L526.02,347.22 L527.34,348.39 L527.51,350.78 L526.34,352.15 L532.04,349.11 L532.49,345.14 L535.2,343.32 L536.85,343.58 L538.31,345.36 L538.06,347.5 L536.89,348.55 L543.0,348.33 L545.58,342.86 L553.98,339.82 L554.38,338.23 L553.4,333.69 L554.39,331.48 L558.32,331.24 L562.7,327.94 L567.88,325.51 L571.45,327.35 L572.28,333.25 L580.16,337.33 L583.84,343.9 L588.07,343.8 L590.61,344.58 L596.98,349.19 L617.61,358.58 L628.0,364.4 L631.06,369.1 L632.28,379.06 L631.65,382.76 L633.34,385.07 L642.88,389.36 L658.98,399.19 L670.32,403.94 L673.99,406.52 L675.43,408.46 L677.6,418.34 L683.02,428.91 L684.28,433.03 L685.41,445.04 L683.54,454.14 L683.52,474.8 L684.57,487.59 L685.87,490.77 L694.62,498.65 L697.26,499.27 L700.21,497.17 L701.85,491.44 L710.11,483.75 L712.54,479.99 L714.97,479.71 L716.01,481.14 L716.02,483.06 L712.72,490.59 L710.42,502.61 L703.87,510.19 L701.14,514.87 L701.82,518.99 L700.58,525.86 L695.0,532.13 L691.6,540.0 L678.46,550.2 L675.92,551.12 L672.52,550.82 L664.77,555.25 L663.69,556.89 L664.35,560.14 L663.04,561.95 L647.91,569.06 L641.84,569.67 L638.61,568.62 L634.67,568.7 L628.17,570.95 L621.85,574.78 L614.91,576.69 L609.76,579.79 L601.97,581.28 L595.38,581.58 L586.94,583.31 L584.05,582.5 L582.47,579.88 L581.67,579.94 L577.78,581.49 L573.74,584.63 L565.9,587.07 L543.67,588.7 L537.17,591.29 L526.98,592.9 L510.79,599.79 L505.0,601.28 L497.0,602.46 L483.2,602.52 L461.0,604.46 L450.94,604.37 L445.87,603.07 L434.22,597.89 L419.95,597.25 L410.15,594.76 L402.03,590.67 L394.82,584.88 L388.39,581.11 L381.99,572.1 L377.13,556.98 L370.0,541.89 L369.89,534.02 L358.56,544.19 L344.71,553.28 L330.57,568.19 L313.71,578.28 L307.88,584.18 L304.17,590.61 L297.68,597.21 L279.94,610.65 L271.9,614.07 L265.0,614.9 L258.99,618.06 L248.29,619.89Z" fill="rgb(196,21,23)"></path><path d="M365.01,200.41 L359.81,192.75 L357.12,190.93 L354.82,190.68 L353.77,191.72 L352.75,196.84 L351.01,199.96 L356.32,200.3 L361.34,197.87 L362.68,198.25 L364.8,200.48Z" fill="rgb(196,21,23)"></path><path d="M342.15,218.12 L343.05,215.86 L340.69,213.2 L331.77,212.64 L341.85,218.34Z" fill="rgb(196,21,23)"></path><path d="M445.53,240.04 L442.96,239.98 L440.01,238.63 L433.35,231.94 L431.95,228.88 L431.82,225.93 L432.84,223.42 L434.25,222.35 L436.83,222.29 L441.67,224.57 L446.65,229.05 L448.78,233.25 L449.19,236.08 L448.18,238.65 L446.28,239.83Z" fill="rgb(196,21,23)"></path><path d="M417.82,242.19 L418.08,241.23 L416.2,236.89 L419.22,232.57 L419.1,231.32 L410.72,228.23 L412.37,231.04 L411.68,232.08 L410.56,231.7 L411.31,231.49 L413.65,233.76 L414.71,236.09 L413.7,236.8 L410.62,236.32 L409.61,238.31 L409.62,240.88 L417.57,242.43Z" fill="rgb(196,21,23)"></path><path d="M349.56,244.14 L349.3,239.67 L347.88,236.39 L346.13,234.68 L344.77,235.68 L344.96,238.83 L347.75,243.64 L349.45,244.46Z" fill="rgb(196,21,23)"></path><path d="M285.55,261.09 L277.95,260.01 L274.66,257.51 L270.81,246.93 L271.2,242.55 L269.77,239.75 L271.22,238.21 L276.93,240.31 L282.15,239.16 L285.36,239.53 L288.62,240.61 L291.03,242.71 L294.32,248.66 L294.8,253.81 L292.11,258.7 L286.29,260.89Z" fill="rgb(196,21,23)"></path><path d="M447.57,300.19 L451.35,298.75 L449.85,290.95 L452.39,273.8 L452.1,271.0 L447.33,262.36 L446.4,262.03 L444.51,266.0 L441.7,267.99 L447.06,277.1 L447.37,282.07 L446.46,285.59 L444.07,289.61 L441.81,290.85 L438.44,290.15 L435.29,287.14 L431.93,282.3 L427.46,273.53 L427.34,270.16 L428.81,267.35 L431.09,265.99 L434.2,265.75 L430.76,259.96 L431.38,252.25 L429.4,245.66 L426.78,240.77 L424.33,239.81 L423.94,241.3 L428.09,254.1 L429.14,262.11 L428.89,264.03 L427.46,266.14 L422.51,268.09 L421.63,269.32 L421.96,271.77 L424.87,276.17 L424.9,283.0 L426.67,285.67 L431.99,288.37 L435.71,291.86 L439.66,299.65 L441.35,300.38 L446.94,300.39Z" fill="rgb(196,21,23)"></path><path d="M399.56,291.12 L407.15,287.76 L403.69,280.71 L397.75,275.73 L396.37,269.72 L396.64,263.9 L397.85,260.44 L400.26,258.37 L405.03,256.97 L403.49,253.65 L403.8,251.2 L406.02,250.25 L408.7,251.12 L409.21,250.68 L407.38,246.81 L403.31,248.14 L398.33,251.65 L396.36,256.35 L394.61,263.29 L393.62,276.85 L392.62,281.06 L393.29,283.25 L397.78,287.1 L399.27,291.26Z" fill="rgb(196,21,23)"></path><path d="M263.57,272.09 L256.96,271.92 L254.88,270.44 L254.14,268.83 L255.24,259.17 L257.02,255.66 L259.52,253.69 L262.57,253.43 L265.87,254.41 L270.54,259.32 L270.33,261.95 L268.83,262.95 L266.16,262.57 L264.15,260.98 L262.78,262.44 L263.3,264.3 L266.9,268.25 L266.17,270.66 L264.29,271.85Z" fill="rgb(196,21,23)"></path><path d="M367.04,263.15 L371.22,256.52 L369.52,255.75 L366.23,257.71 L364.62,260.68 L365.58,262.68 L366.8,263.37Z" fill="rgb(196,21,23)"></path><path d="M317.13,286.11 L320.87,280.9 L322.81,267.92 L324.14,265.46 L317.75,268.28 L315.81,271.17 L318.35,280.05 L317.95,283.02 L315.78,286.48 L316.77,286.38Z" fill="rgb(196,21,23)"></path><path d="M240.53,284.48 L238.01,281.88 L237.76,277.95 L239.58,269.38 L240.95,267.41 L243.2,266.32 L246.14,267.56 L247.32,272.08 L246.58,274.86 L243.77,278.68 L242.85,282.96 L241.18,284.43Z" fill="rgb(196,21,23)"></path><path d="M289.53,295.01 L286.16,294.75 L282.0,292.63 L275.3,287.19 L273.01,283.89 L272.64,279.93 L273.54,276.41 L275.89,272.39 L279.28,270.27 L282.01,270.08 L284.99,271.37 L291.61,278.29 L292.04,281.09 L291.29,282.76 L289.82,283.51 L286.7,282.71 L285.56,284.94 L287.1,288.98 L291.05,289.4 L292.34,290.43 L292.45,292.84 L290.27,294.77Z" fill="rgb(196,21,23)"></path><path d="M260.52,300.0 L257.93,299.9 L255.31,298.2 L252.37,294.82 L250.93,290.88 L251.42,286.14 L253.89,283.29 L256.13,282.03 L259.05,281.79 L263.9,283.24 L266.6,284.93 L267.84,287.19 L267.4,289.84 L262.95,293.74 L262.78,297.98 L261.26,299.72Z" fill="rgb(196,21,23)"></path><path d="M422.02,306.17 L422.47,303.15 L421.02,294.84 L421.28,288.77 L418.76,283.85 L415.96,285.4 L414.94,286.97 L416.69,294.33 L419.86,303.99 L421.8,306.38Z" fill="rgb(196,21,23)"></path><path d="M236.43,304.76 L234.12,304.3 L232.77,301.97 L230.87,287.89 L232.36,284.57 L235.86,284.49 L237.86,287.17 L237.53,292.82 L238.51,297.85 L237.09,304.39Z" fill="rgb(196,21,23)"></path><path d="M400.61,314.12 L401.07,310.92 L402.25,309.49 L404.41,309.21 L404.32,307.93 L398.51,304.69 L397.35,299.79 L395.75,301.35 L395.96,302.8 L398.67,306.24 L398.71,311.37 L400.55,314.42Z" fill="rgb(196,21,23)"></path><path d="M457.13,352.11 L460.15,348.79 L458.81,344.93 L459.38,339.27 L457.73,333.96 L457.76,329.95 L459.96,323.67 L465.23,317.42 L464.37,311.11 L458.81,309.73 L459.13,314.07 L458.04,317.33 L455.56,320.19 L451.9,322.06 L446.0,322.02 L438.78,318.61 L434.06,319.56 L431.62,327.08 L433.14,331.19 L436.69,325.16 L439.07,324.34 L451.01,331.37 L454.65,335.05 L457.06,340.09 L458.05,346.14 L457.74,349.84 L455.81,352.57 L456.77,352.38Z" fill="rgb(196,21,23)"></path><path d="M244.49,332.88 L242.82,332.93 L240.7,331.59 L238.73,326.97 L238.83,320.91 L239.57,319.16 L241.5,317.62 L244.0,317.17 L246.39,317.73 L248.5,319.13 L249.52,321.29 L248.99,325.15 L246.69,330.8 L245.19,332.55Z" fill="rgb(196,21,23)"></path><path d="M410.54,336.38 L407.55,331.55 L406.06,326.55 L404.51,325.82 L403.02,326.89 L403.01,327.98 L407.26,335.23 L410.41,336.57Z" fill="rgb(196,21,23)"></path><path d="M240.4,349.77 L237.43,349.15 L233.93,345.3 L229.7,337.47 L229.68,335.11 L230.6,333.88 L232.18,333.14 L234.85,333.29 L239.65,337.07 L240.94,340.16 L240.68,343.89 L241.62,348.06 L241.02,349.39Z" fill="rgb(196,21,23)"></path><path d="M534.31,371.08 L537.86,367.29 L541.24,365.22 L544.05,364.65 L549.65,365.44 L551.05,364.98 L548.77,363.3 L538.93,361.71 L537.0,363.9 L536.19,367.5 L534.17,371.3Z" fill="rgb(196,21,23)"></path><path d="M517.3,371.06 L520.44,367.81 L523.73,365.86 L531.22,364.19 L531.36,363.06 L530.54,362.63 L523.17,362.96 L519.47,365.79 L517.16,371.25Z" fill="rgb(196,21,23)"></path><path d="M560.99,375.28 L560.81,373.32 L557.32,368.37 L555.45,368.12 L552.81,372.3 L548.66,375.24 L555.04,374.56 L560.7,375.44Z" fill="rgb(196,21,23)"></path><path d="M176.12,415.12 L178.16,413.22 L181.2,412.07 L182.08,408.95 L183.28,407.61 L188.04,406.74 L190.41,400.13 L194.99,393.46 L194.99,388.92 L196.4,386.71 L201.15,384.08 L206.93,385.45 L209.22,384.53 L208.67,382.84 L203.87,383.5 L202.46,381.86 L204.89,377.39 L209.67,373.94 L191.9,378.59 L194.92,379.58 L195.73,381.15 L195.21,382.62 L193.94,383.02 L190.4,381.59 L185.77,384.08 L190.29,386.42 L191.52,389.31 L191.32,391.62 L187.07,398.57 L181.01,402.13 L179.7,405.99 L176.76,409.69 L175.86,415.36Z" fill="rgb(196,21,23)"></path><path d="M600.48,388.14 L607.23,383.75 L609.07,379.25 L611.98,377.92 L608.02,375.04 L601.99,385.34 L598.5,388.44 L600.14,388.32Z" fill="rgb(196,21,23)"></path><path d="M516.0,393.17 L519.34,386.83 L521.23,385.37 L525.5,383.89 L528.05,380.65 L529.28,380.32 L522.49,381.79 L514.09,386.78 L515.14,391.05 L514.76,393.43 L515.72,393.42Z" fill="rgb(196,21,23)"></path><path d="M615.54,412.12 L618.23,409.36 L617.73,402.93 L618.58,399.38 L620.51,396.85 L624.03,394.75 L625.19,391.84 L623.87,386.46 L619.66,383.48 L622.0,391.1 L620.48,394.98 L617.27,397.14 L607.89,401.0 L601.58,401.85 L601.96,402.36 L604.79,401.71 L608.63,402.67 L613.01,405.4 L614.98,408.1 L615.3,412.26Z" fill="rgb(196,21,23)"></path><path d="M502.17,392.09 L509.19,386.41 L509.14,385.32 L508.05,384.7 L505.23,385.86 L500.98,391.42 L501.86,392.33Z" fill="rgb(196,21,23)"></path><path d="M548.45,427.16 L555.06,419.08 L556.77,404.93 L559.39,397.7 L559.05,393.25 L556.08,390.94 L552.2,390.52 L538.7,394.67 L532.24,394.96 L529.7,397.88 L533.65,405.91 L540.54,400.8 L543.1,399.89 L550.17,402.02 L553.62,405.28 L553.83,409.81 L550.63,417.0 L546.95,420.65 L540.47,424.05 L544.86,424.45 L548.17,427.29Z" fill="rgb(196,21,23)"></path><path d="M508.45,419.17 L509.37,417.78 L509.34,413.16 L512.21,406.92 L511.5,405.77 L503.98,408.27 L491.25,409.91 L489.98,410.86 L491.27,412.16 L497.16,410.06 L501.37,410.9 L508.18,419.29Z" fill="rgb(196,21,23)"></path><path d="M633.38,415.07 L635.19,414.26 L638.92,414.25 L638.32,413.3 L633.03,411.7 L630.4,409.77 L627.76,410.17 L627.05,411.02 L633.09,415.25Z" fill="rgb(196,21,23)"></path><path d="M234.13,419.11 L237.19,415.02 L238.1,411.33 L234.65,410.7 L230.25,412.84 L228.77,414.57 L228.93,416.69 L232.45,419.28 L233.76,419.36Z" fill="rgb(196,21,23)"></path><path d="M523.87,430.05 L528.23,424.43 L527.02,418.96 L527.37,416.82 L520.02,421.09 L519.75,422.48 L522.52,429.91 L523.6,430.38Z" fill="rgb(196,21,23)"></path><path d="M177.49,442.73 L176.18,442.18 L175.51,440.13 L178.18,433.8 L177.88,428.9 L179.34,426.55 L181.12,426.01 L183.64,427.16 L184.55,431.12 L182.39,439.62 L180.91,441.52 L178.22,442.7Z" fill="rgb(196,21,23)"></path><path d="M331.04,468.01 L335.51,461.38 L337.2,454.85 L335.85,438.92 L336.22,435.58 L330.42,433.22 L328.68,430.98 L323.12,429.28 L322.39,432.61 L320.8,435.1 L330.71,442.86 L334.85,451.23 L335.07,457.96 L333.76,462.85 L331.0,468.28Z" fill="rgb(196,21,23)"></path><path d="M521.91,476.04 L525.44,470.85 L535.79,462.72 L536.01,457.0 L537.95,452.66 L542.44,446.85 L549.11,441.75 L551.28,436.5 L551.36,433.85 L550.49,432.81 L546.17,439.61 L543.3,442.07 L538.91,444.06 L529.82,445.69 L528.09,446.66 L533.45,454.46 L534.16,459.09 L532.06,463.38 L529.57,466.19 L520.02,471.12 L519.92,473.08 L521.72,476.34Z" fill="rgb(196,21,23)"></path><path d="M312.44,445.17 L314.41,439.15 L316.2,436.52 L311.72,434.73 L309.94,436.91 L309.59,439.67 L310.6,443.19 L312.17,445.29Z" fill="rgb(196,21,23)"></path><path d="M629.22,443.1 L632.47,441.46 L637.65,441.42 L639.24,440.74 L633.83,438.98 L629.23,435.94 L627.5,441.85 L627.72,443.25 L628.8,443.36Z" fill="rgb(196,21,23)"></path><path d="M517.26,447.06 L519.99,443.89 L520.5,440.08 L520.08,436.99 L517.32,438.82 L514.82,442.73 L517.05,447.25Z" fill="rgb(196,21,23)"></path><path d="M228.36,468.17 L231.26,465.81 L241.8,453.7 L242.46,450.87 L241.72,442.94 L242.35,439.2 L241.46,437.83 L237.77,442.57 L238.41,449.05 L237.58,452.86 L226.52,465.69 L225.9,467.77 L227.89,468.38Z" fill="rgb(196,21,23)"></path><path d="M670.99,471.19 L671.12,468.02 L668.26,463.78 L666.44,458.78 L662.32,462.22 L654.95,464.32 L651.28,463.24 L646.91,457.89 L647.24,454.17 L649.33,449.1 L650.99,447.2 L654.15,445.97 L657.01,446.08 L665.78,450.35 L667.06,449.03 L665.74,445.77 L662.85,444.55 L652.92,445.2 L648.95,443.67 L645.73,456.52 L645.66,462.93 L654.95,466.07 L661.76,466.35 L666.18,464.49 L668.09,466.11 L668.85,470.63 L670.7,471.41Z" fill="rgb(196,21,23)"></path><path d="M156.44,466.66 L154.4,466.03 L152.99,464.09 L151.64,456.94 L153.87,447.7 L155.52,445.02 L158.29,443.28 L161.86,443.45 L165.62,447.28 L165.97,457.13 L164.66,460.16 L159.11,463.07 L157.12,466.44Z" fill="rgb(196,21,23)"></path><path d="M578.17,468.09 L583.78,463.31 L585.63,460.6 L587.46,451.9 L587.22,448.38 L586.23,447.84 L585.72,452.83 L583.63,457.0 L573.96,465.82 L577.85,468.33Z" fill="rgb(196,21,23)"></path><path d="M550.38,472.7 L550.02,470.84 L550.73,468.4 L560.34,454.22 L553.64,460.44 L549.9,462.06 L543.87,462.67 L542.76,463.6 L542.72,465.17 L545.3,469.28 L550.37,472.82Z" fill="rgb(196,21,23)"></path><path d="M172.47,494.76 L169.98,493.25 L167.89,488.1 L166.6,482.99 L166.52,476.98 L166.98,473.0 L168.37,470.01 L170.91,467.31 L173.2,466.34 L175.49,467.12 L181.03,472.75 L182.48,479.01 L182.07,483.96 L179.98,490.33 L176.57,493.25 L173.22,494.71Z" fill="rgb(196,21,23)"></path><path d="M266.17,481.09 L271.19,474.02 L272.43,470.98 L271.91,469.69 L269.06,475.38 L264.82,480.19 L265.86,481.33Z" fill="rgb(196,21,23)"></path><path d="M474.15,487.11 L475.38,484.66 L475.29,480.82 L473.54,478.79 L471.08,479.31 L470.75,480.51 L472.6,486.14 L473.85,487.34Z" fill="rgb(196,21,23)"></path><path d="M161.56,505.05 L158.88,505.31 L156.16,504.44 L152.94,498.99 L151.02,488.03 L152.35,483.14 L154.21,481.24 L157.05,480.8 L162.88,482.44 L164.63,484.07 L166.06,487.01 L167.28,492.04 L167.19,496.09 L164.4,502.61 L162.28,504.75Z" fill="rgb(196,21,23)"></path><path d="M543.24,492.1 L548.85,485.67 L550.2,482.96 L547.78,484.46 L543.52,488.72 L542.45,491.55 L542.92,492.33Z" fill="rgb(196,21,23)"></path><path d="M571.35,492.17 L576.25,487.82 L580.34,482.79 L572.27,489.08 L565.09,490.75 L566.67,492.23 L570.84,492.39Z" fill="rgb(196,21,23)"></path><path d="M514.06,495.07 L521.8,488.73 L522.11,487.24 L520.52,486.75 L514.96,490.42 L513.74,492.4 L513.8,495.39Z" fill="rgb(196,21,23)"></path><path d="M217.11,520.11 L221.27,514.52 L221.16,512.09 L218.96,512.61 L215.48,516.19 L211.38,517.86 L210.59,519.07 L211.46,520.37 L216.7,520.38Z" fill="rgb(196,21,23)"></path><path d="M679.18,544.11 L685.99,537.92 L686.29,535.62 L684.97,533.05 L681.7,538.17 L675.9,543.65 L675.94,544.35 L678.73,544.38Z" fill="rgb(196,21,23)"></path><path d="M640.42,565.15 L649.96,560.0 L649.22,557.37 L645.59,556.7 L636.37,559.73 L635.81,560.37 L638.26,562.39 L640.03,565.35Z" fill="rgb(196,21,23)"></path><path d="M611.02,573.17 L612.44,569.12 L614.04,567.37 L629.06,559.39 L627.32,557.97 L624.94,560.64 L619.55,563.47 L610.12,565.53 L607.78,572.28 L610.78,573.38Z" fill="rgb(196,21,23)"></path><path d="M178.47,582.72 L176.48,581.74 L171.05,571.85 L171.62,567.38 L173.31,565.47 L175.08,564.85 L177.97,565.31 L182.61,568.83 L185.72,573.29 L185.83,576.04 L185.08,577.55 L179.2,582.6Z" fill="rgb(196,21,23)"></path><path d="M206.52,609.0 L203.14,608.73 L200.39,607.11 L194.92,598.23 L195.03,594.44 L200.46,591.52 L203.1,590.86 L205.83,591.25 L212.91,594.41 L215.57,597.31 L215.34,600.84 L210.37,603.79 L207.26,608.72Z" fill="rgb(196,21,23)"></path><path d="M249.98,601.23 L250.32,599.95 L245.74,597.57 L244.49,593.11 L243.78,592.75 L240.74,596.19 L245.4,600.79 L249.65,601.43Z" fill="rgb(196,21,23)"></path><path d="M345.44,181.69 L343.94,181.38 L342.58,179.36 L339.72,168.97 L339.63,163.94 L341.24,157.15 L348.17,140.94 L349.39,139.72 L351.73,139.97 L353.27,143.03 L353.37,159.06 L350.84,172.83 L346.13,181.4Z" fill="rgb(157,164,59)"></path><path d="M248.49,241.92 L245.43,241.15 L239.93,235.27 L235.72,220.97 L236.34,214.15 L241.23,209.33 L240.57,201.12 L245.15,196.8 L243.35,194.09 L240.01,194.39 L238.61,192.64 L239.31,190.52 L242.17,188.22 L241.28,182.78 L238.15,174.8 L235.72,164.06 L235.4,158.95 L237.23,157.37 L239.54,157.87 L249.63,164.51 L263.6,169.54 L270.61,173.83 L275.65,179.05 L283.84,192.75 L287.08,195.21 L288.38,193.64 L288.75,180.95 L291.76,165.88 L293.06,162.67 L295.12,161.05 L300.32,160.3 L302.77,159.13 L316.32,145.79 L322.54,140.81 L326.1,139.92 L327.86,140.46 L329.62,142.27 L331.69,153.39 L334.28,162.03 L334.58,170.63 L336.35,184.05 L335.06,188.56 L332.9,189.99 L327.31,191.17 L319.96,195.8 L310.17,199.86 L303.32,204.82 L294.88,214.69 L283.23,219.86 L273.49,229.26 L267.47,231.27 L265.25,230.95 L253.31,213.3 L249.9,211.63 L246.38,212.78 L245.56,214.94 L246.17,217.69 L255.26,231.53 L256.09,234.11 L254.92,237.5 L249.25,241.74Z" fill="rgb(157,164,59)"></path><path d="M295.96,215.13 L296.01,215.14Z" fill="rgb(157,164,59)"></path><path d="M409.96,228.13 L410.01,228.14Z" fill="rgb(157,164,59)"></path><path d="M415.59,237.41 L412.42,235.02 L411.44,233.04 L411.04,228.93 L413.12,227.79 L419.08,229.16 L420.79,231.2 L420.09,234.55 L416.19,237.35Z" fill="rgb(157,164,59)"></path><path d="M409.96,231.13 L410.01,231.14Z" fill="rgb(157,164,59)"></path><path d="M410.96,232.13 L411.01,232.14Z" fill="rgb(157,164,59)"></path><path d="M697.52,501.01 L694.13,500.57 L687.39,495.17 L684.35,491.94 L682.94,488.9 L681.51,473.0 L681.55,454.96 L683.49,445.04 L682.42,433.38 L681.38,429.78 L675.92,419.1 L673.53,408.82 L668.68,405.18 L658.02,400.79 L641.88,390.95 L632.75,386.84 L630.31,383.75 L629.43,370.41 L627.3,366.3 L616.69,360.2 L595.33,350.43 L587.76,344.99 L587.09,343.13 L589.85,342.37 L596.0,345.41 L600.05,348.72 L599.51,345.86 L600.03,344.44 L603.99,342.06 L603.93,341.35 L593.89,335.63 L592.33,335.9 L589.83,337.9 L588.4,336.91 L587.42,338.98 L585.06,339.91 L580.11,339.37 L572.83,335.97 L570.43,333.69 L570.26,328.63 L569.27,324.58 L568.02,323.7 L555.17,326.95 L546.11,333.04 L544.55,335.26 L539.3,336.17 L528.68,342.55 L526.04,342.44 L524.46,340.55 L523.78,337.92 L524.08,334.97 L527.51,329.38 L529.41,324.13 L535.8,316.3 L542.11,310.82 L544.32,304.15 L545.81,302.14 L555.1,298.01 L559.76,297.04 L568.03,289.35 L571.26,287.34 L575.76,286.04 L579.26,283.37 L584.21,282.29 L589.18,280.08 L594.81,281.02 L601.81,273.31 L604.33,271.64 L606.6,271.83 L610.64,275.23 L613.23,275.28 L618.26,272.34 L624.22,270.5 L630.42,265.56 L634.33,264.46 L636.56,265.0 L642.94,271.3 L645.22,270.5 L650.45,266.55 L654.05,265.65 L657.83,266.24 L666.05,269.17 L667.43,270.36 L667.96,272.1 L667.41,274.61 L659.81,286.97 L656.9,295.82 L654.61,307.3 L654.58,320.62 L658.69,345.15 L662.64,349.03 L671.68,362.05 L675.66,369.23 L678.26,376.17 L679.39,373.69 L679.33,367.87 L675.49,364.92 L672.55,360.55 L670.1,348.0 L663.88,333.9 L665.94,323.03 L668.67,315.01 L666.37,314.09 L664.86,311.93 L663.64,298.94 L666.27,286.47 L666.98,279.01 L669.66,274.1 L671.2,273.5 L672.73,273.97 L675.25,279.15 L679.07,277.81 L681.99,277.99 L694.36,284.64 L706.07,285.77 L709.99,287.37 L720.21,295.33 L721.63,297.26 L723.31,302.29 L726.16,305.04 L731.55,308.09 L734.86,313.77 L740.78,321.24 L742.16,334.09 L741.34,338.36 L739.05,343.34 L735.2,348.31 L729.46,364.59 L721.04,379.35 L718.73,381.62 L711.0,382.9 L706.25,385.84 L705.0,387.14 L703.27,391.6 L700.96,393.76 L696.76,395.79 L690.75,397.24 L694.62,397.42 L702.01,395.6 L712.04,395.55 L715.85,396.25 L719.7,398.81 L721.63,401.27 L722.34,404.05 L722.02,407.0 L720.62,409.99 L716.89,412.99 L706.41,413.57 L702.51,415.02 L701.75,416.21 L704.16,419.84 L708.77,423.17 L709.16,422.45 L707.52,419.65 L707.42,417.93 L708.37,416.54 L711.07,415.88 L723.15,420.31 L726.44,424.36 L729.01,431.1 L728.36,432.83 L726.92,433.61 L721.95,431.28 L723.8,435.0 L727.21,439.15 L730.21,438.33 L732.5,439.15 L735.5,445.24 L739.56,451.1 L740.55,448.03 L742.12,446.96 L749.99,447.94 L764.3,453.87 L773.17,459.3 L780.19,466.43 L786.07,475.7 L795.47,494.46 L795.81,498.03 L794.66,499.34 L792.44,499.11 L785.81,491.87 L764.27,478.5 L745.06,469.88 L735.4,466.46 L722.14,458.68 L720.88,459.29 L719.74,461.58 L718.25,474.05 L717.01,478.21 L713.67,480.98 L711.49,484.98 L703.35,492.63 L701.7,497.97 L698.27,500.78Z" fill="rgb(157,164,59)"></path><path d="M212.57,311.1 L166.95,311.44 L163.97,310.83 L162.3,308.79 L162.62,307.04 L163.89,305.89 L188.34,298.4 L204.73,289.86 L212.25,287.21 L216.08,287.08 L218.09,289.08 L219.23,302.07 L219.01,305.0 L217.6,308.0 L213.3,310.86Z" fill="rgb(157,164,59)"></path><path d="M258.49,421.93 L253.06,420.56 L245.96,421.83 L243.36,420.06 L242.38,417.18 L246.02,399.83 L254.0,389.87 L255.75,385.47 L260.29,378.92 L250.79,376.61 L245.92,377.03 L228.13,375.37 L225.86,373.92 L216.14,371.56 L212.16,367.42 L211.75,366.11 L213.2,355.85 L212.91,351.9 L213.96,349.47 L215.34,348.64 L217.4,349.3 L218.58,353.15 L220.41,354.63 L232.85,356.35 L236.96,358.3 L240.0,357.72 L239.1,355.8 L234.03,354.7 L225.39,349.11 L219.98,341.1 L217.91,334.9 L217.63,329.94 L219.24,322.16 L221.83,317.39 L225.57,313.42 L227.13,314.04 L228.28,319.07 L227.58,328.62 L228.87,333.0 L236.73,345.79 L239.49,348.23 L242.66,348.2 L245.66,335.8 L247.05,333.26 L245.54,331.72 L245.69,328.67 L252.35,321.27 L254.2,313.02 L258.01,309.87 L261.92,298.24 L266.28,296.4 L267.97,296.6 L269.41,298.51 L268.93,305.34 L269.89,309.0 L272.78,314.24 L274.54,321.23 L275.26,321.05 L276.96,312.96 L279.43,306.39 L281.38,304.01 L290.33,306.96 L294.92,312.5 L302.53,317.2 L305.69,323.14 L304.47,325.28 L300.47,325.87 L299.91,326.63 L298.7,339.35 L303.6,349.03 L310.05,354.46 L310.53,356.58 L309.6,361.65 L310.78,363.5 L319.63,367.39 L326.12,369.2 L332.02,366.01 L337.91,363.92 L342.87,363.55 L344.57,365.31 L344.97,367.96 L343.58,375.6 L341.07,380.1 L351.61,386.31 L357.46,387.28 L386.09,380.75 L389.48,382.28 L391.31,386.15 L394.34,385.55 L396.43,386.46 L396.82,389.04 L395.19,391.69 L392.83,393.63 L386.97,396.25 L372.95,397.42 L355.64,392.75 L353.16,392.93 L353.69,393.72 L366.86,398.31 L370.38,400.81 L373.82,402.1 L391.29,404.39 L396.62,404.42 L400.33,403.4 L411.29,397.31 L413.91,397.69 L414.77,400.06 L413.69,402.15 L406.56,409.19 L397.76,413.79 L374.97,417.28 L363.95,418.15 L350.41,414.46 L333.08,403.93 L307.0,399.02 L304.03,397.49 L302.12,394.98 L297.12,400.71 L290.95,404.45 L287.14,408.71 L279.28,415.07 L268.51,420.42 L266.0,420.83 L262.28,419.94 L259.25,421.74Z" fill="rgb(157,164,59)"></path><path d="M292.47,353.17 L293.44,351.03 L292.18,342.49 L290.06,337.84 L290.34,332.94 L288.94,332.06 L287.62,334.35 L286.71,343.38 L288.81,349.68 L292.24,353.28Z" fill="rgb(157,164,59)"></path><path d="M598.39,344.67 L594.24,344.11 L591.0,340.54 L591.54,338.46 L594.86,338.71 L598.7,342.65 L598.85,344.35Z" fill="rgb(157,164,59)"></path><path d="M634.7,354.08 L635.02,350.98 L636.47,348.8 L641.17,348.05 L645.16,346.37 L639.7,342.2 L635.84,341.4 L637.26,345.07 L636.45,347.95 L633.92,349.13 L631.37,347.7 L634.71,354.35Z" fill="rgb(157,164,59)"></path><path d="M310.96,354.13 L311.01,354.14Z" fill="rgb(157,164,59)"></path><path d="M132.53,513.05 L129.16,512.75 L115.42,506.74 L106.19,505.83 L100.59,503.06 L99.46,501.7 L99.31,499.94 L103.99,495.91 L103.99,493.03 L98.9,494.0 L96.39,493.41 L93.3,491.11 L90.24,486.52 L82.3,484.12 L81.3,480.94 L83.17,477.82 L82.8,476.96 L80.36,476.89 L77.71,480.53 L75.18,480.75 L72.23,479.19 L69.26,475.72 L63.51,473.73 L58.45,473.04 L57.41,470.93 L58.02,468.65 L51.19,467.84 L38.34,463.39 L36.41,460.8 L37.4,458.77 L40.36,458.56 L46.35,460.24 L49.19,458.42 L48.77,457.0 L28.19,454.52 L23.08,456.99 L19.04,452.89 L15.26,451.65 L12.65,453.49 L9.96,453.82 L7.85,452.69 L4.86,449.42 L4.33,446.93 L6.27,444.38 L15.32,443.3 L18.29,441.72 L26.88,432.29 L32.45,429.21 L33.25,424.94 L34.91,423.05 L45.43,418.4 L59.19,415.32 L65.1,411.94 L75.05,411.76 L83.65,414.4 L85.0,413.76 L86.65,410.14 L89.04,408.77 L95.04,408.55 L101.64,409.41 L109.04,407.59 L124.09,409.37 L129.08,409.04 L132.38,411.17 L136.18,408.15 L139.96,409.05 L140.96,408.58 L142.17,401.96 L145.1,399.9 L150.67,401.57 L155.18,405.55 L155.95,408.98 L154.59,413.62 L151.2,419.31 L143.71,437.56 L141.8,447.14 L142.46,452.12 L141.0,453.85 L143.43,456.28 L144.45,459.13 L140.85,465.3 L141.41,470.05 L140.83,473.03 L139.65,474.43 L137.91,474.97 L128.94,472.61 L126.83,473.22 L128.93,475.07 L138.05,477.07 L140.62,479.27 L141.89,489.14 L147.27,505.04 L146.83,510.04 L144.88,511.94 L133.28,512.88Z" fill="rgb(157,164,59)"></path><path d="M65.57,467.18 L76.89,463.53 L77.01,462.49 L74.69,461.61 L67.94,461.23 L54.85,457.69 L54.07,458.64 L64.8,462.61 L65.02,464.72 L62.98,466.37 L63.64,467.27 L64.99,467.38Z" fill="rgb(157,164,59)"></path><path d="M120.97,472.29 L121.25,471.52 L120.28,470.75 L101.73,466.66 L106.11,469.28 L108.83,472.2 L120.65,472.46Z" fill="rgb(157,164,59)"></path><path d="M416.57,601.1 L412.96,601.36 L395.26,599.49 L389.98,601.35 L385.94,601.23 L379.12,598.64 L365.73,591.19 L360.47,589.73 L352.2,589.52 L342.99,591.4 L337.97,591.21 L335.92,589.74 L337.03,585.62 L329.84,584.75 L328.35,583.74 L325.73,574.58 L323.43,572.4 L323.23,571.2 L330.29,565.79 L340.81,554.3 L343.29,552.8 L346.88,553.17 L363.9,548.88 L369.49,546.91 L372.19,544.29 L373.54,545.4 L378.79,556.15 L383.62,571.19 L390.19,580.12 L396.0,583.37 L403.73,589.5 L410.92,593.08 L420.3,595.39 L433.05,595.75 L437.5,597.6 L437.13,599.19 L433.97,600.28 L423.01,599.74 L417.3,600.9Z" fill="rgb(157,164,59)"></path><path d="M639.49,566.56 L634.88,561.49 L634.77,559.14 L637.4,557.41 L647.09,554.75 L649.03,555.14 L651.0,556.77 L651.72,559.2 L651.28,560.85 L640.22,566.62Z" fill="rgb(157,164,59)"></path><path d="M610.51,574.79 L607.67,574.01 L606.44,571.91 L609.03,564.34 L612.1,562.91 L618.7,561.83 L627.2,556.76 L628.52,556.95 L630.03,558.49 L630.3,559.91 L629.55,561.25 L615.25,568.84 L611.22,574.61Z" fill="rgb(157,164,59)"></path><path d="M614.54,578.99 L612.12,577.81 L613.42,575.64 L621.0,573.13 L627.23,569.34 L633.26,567.32 L634.91,567.35 L635.9,568.77 L631.55,574.45 L629.88,574.92 L626.63,574.03 L615.28,578.86Z" fill="rgb(157,164,59)"></path><path d="M321.54,573.36 L321.47,572.79 L321.79,573.29Z" fill="rgb(157,164,59)"></path><path d="M319.54,574.36 L319.47,573.79 L319.79,574.29Z" fill="rgb(157,164,59)"></path><path d="M317.54,575.36 L317.47,574.79 L317.79,575.29Z" fill="rgb(157,164,59)"></path><path d="M522.57,595.8 L521.39,595.28 L521.57,593.68 L527.1,590.94 L536.6,589.52 L544.03,586.73 L565.33,585.3 L572.18,583.3 L577.42,579.56 L581.32,578.39 L583.63,579.21 L584.92,581.2 L588.43,582.62 L588.45,583.72 L586.57,584.65 L559.97,590.28 L553.59,590.7 L541.97,593.28 L527.41,594.57 L523.27,595.75Z" fill="rgb(157,164,59)"></path><path d="M597.34,581.9 L595.12,581.83 L594.65,580.31 L596.89,580.12 L597.76,581.52Z" fill="rgb(157,164,59)"></path><path d="M592.34,582.82 L590.55,582.35 L590.66,581.38 L591.95,581.22 L592.75,582.49Z" fill="rgb(157,164,59)"></path><path d="M334.96,591.13 L335.01,591.14Z" fill="rgb(157,164,59)"></path><path d="M491.45,319.77 L489.92,319.58 L488.2,318.15 L483.14,309.23 L476.45,302.94 L474.37,299.71 L474.2,297.0 L475.32,295.8 L476.74,295.92 L480.53,299.17 L481.99,297.88 L482.41,295.35 L472.09,274.26 L470.26,272.65 L462.0,269.6 L459.24,265.74 L459.05,262.0 L461.27,259.43 L463.72,259.81 L467.87,263.98 L469.04,263.85 L469.08,261.92 L466.69,256.71 L459.94,249.77 L458.39,254.69 L457.07,255.34 L455.01,254.61 L448.72,249.79 L445.62,246.21 L440.15,244.75 L437.39,243.17 L428.86,234.44 L427.35,226.82 L429.09,222.9 L424.91,219.41 L424.26,216.97 L425.78,214.15 L430.21,211.27 L430.07,209.31 L428.2,207.91 L426.96,207.69 L424.62,211.22 L422.38,211.31 L411.82,202.88 L407.81,200.65 L408.96,207.76 L414.36,213.29 L415.66,216.2 L415.24,217.85 L413.86,218.94 L409.92,219.25 L407.36,217.78 L405.26,212.21 L401.84,208.96 L397.02,206.4 L394.69,201.72 L391.7,199.2 L388.95,198.54 L383.04,198.98 L370.92,197.35 L368.17,196.33 L367.21,194.8 L367.24,192.96 L370.98,189.12 L370.76,187.97 L367.37,187.58 L361.93,188.65 L356.7,187.61 L350.38,187.57 L346.33,188.89 L341.89,192.99 L335.81,193.69 L335.94,194.74 L340.21,198.32 L343.29,202.46 L343.28,204.93 L341.87,205.84 L338.54,205.74 L333.81,207.86 L331.14,207.54 L328.95,205.39 L328.5,200.89 L324.56,198.01 L323.63,198.28 L322.84,199.27 L323.76,203.2 L323.06,205.56 L314.84,210.43 L313.68,211.87 L314.29,213.13 L318.61,215.93 L319.86,218.17 L319.72,220.83 L317.59,225.0 L314.9,226.99 L308.83,227.97 L306.15,227.7 L304.04,226.37 L303.07,223.88 L304.05,219.25 L301.21,216.78 L296.17,215.33 L295.21,213.8 L295.46,211.14 L302.06,203.45 L309.06,198.32 L319.0,194.2 L326.45,189.53 L333.65,187.34 L334.47,184.15 L332.65,168.97 L334.24,165.9 L340.67,166.45 L344.64,179.96 L349.59,184.23 L379.04,184.55 L392.82,187.16 L414.6,196.54 L427.98,203.21 L444.7,213.8 L449.25,219.25 L456.65,226.05 L464.49,240.22 L469.65,246.05 L472.47,251.42 L475.09,259.1 L475.72,265.19 L479.14,270.7 L486.78,287.15 L489.6,297.34 L495.59,312.43 L495.54,316.94 L492.17,319.55Z" fill="rgb(223,160,146)"></path><path d="M347.79,177.91 L348.09,177.32 L348.04,177.95Z" fill="rgb(223,160,146)"></path><path d="M346.66,180.86 L346.42,179.97 L347.15,179.4 L347.63,180.11 L347.07,180.9Z" fill="rgb(223,160,146)"></path><path d="M238.75,190.98 L238.5,189.11 L240.75,183.87 L241.62,182.57 L242.72,182.63 L243.63,189.07 L242.07,190.92 L239.28,191.3Z" fill="rgb(223,160,146)"></path><path d="M364.46,201.71 L362.54,200.76 L361.92,199.02 L359.27,201.07 L355.96,202.27 L352.92,202.33 L350.3,201.27 L349.65,199.13 L352.17,190.96 L355.1,188.9 L358.61,189.58 L362.19,192.44 L366.3,199.33 L366.17,200.74 L365.16,201.59Z" fill="rgb(223,160,146)"></path><path d="M239.45,235.29 L236.74,232.57 L234.71,228.17 L233.6,222.99 L232.54,209.0 L233.16,200.19 L235.55,194.36 L237.52,192.06 L238.88,191.89 L240.36,193.13 L244.56,192.96 L246.68,196.2 L246.03,198.56 L242.01,201.55 L243.34,207.05 L242.55,210.86 L238.55,213.94 L237.61,216.31 L237.7,221.39 L240.41,230.81 L240.61,234.0 L239.98,235.12Z" fill="rgb(223,160,146)"></path><path d="M242.53,349.48 L240.82,348.51 L239.57,346.53 L239.26,340.54 L237.28,337.22 L233.66,334.75 L228.99,335.41 L226.94,333.09 L225.54,326.99 L226.44,319.07 L226.15,313.97 L219.39,326.52 L217.69,326.43 L216.53,324.54 L215.6,320.99 L215.43,314.47 L213.81,310.66 L217.39,303.78 L216.51,289.62 L213.3,286.81 L214.41,285.46 L221.63,282.83 L224.13,280.8 L236.37,260.01 L240.45,254.85 L246.04,250.84 L247.39,246.8 L247.25,241.31 L254.23,235.4 L254.03,233.16 L246.32,221.95 L243.95,216.88 L244.57,212.16 L246.46,210.57 L249.1,209.86 L254.0,211.4 L259.07,217.7 L265.73,229.28 L265.93,232.0 L264.75,235.44 L265.31,236.17 L273.08,231.45 L277.69,232.19 L284.01,230.6 L293.04,230.55 L297.92,231.31 L304.16,230.03 L315.09,229.8 L322.65,233.23 L326.27,247.07 L323.57,254.91 L321.22,257.01 L318.87,257.39 L317.19,255.81 L317.0,252.71 L315.85,251.01 L314.31,250.62 L308.9,252.08 L307.14,251.54 L305.43,249.69 L305.28,246.17 L309.22,238.58 L309.1,237.33 L307.73,236.62 L305.0,236.9 L301.52,239.73 L299.73,244.54 L299.7,249.39 L301.15,253.61 L304.53,257.12 L305.5,260.14 L304.13,262.69 L297.3,267.67 L295.56,271.93 L298.4,282.01 L297.69,289.65 L301.88,289.7 L303.0,290.66 L303.29,292.89 L301.81,294.62 L282.36,304.8 L278.92,312.92 L276.94,321.07 L275.69,322.43 L274.0,322.5 L272.27,320.74 L271.1,315.0 L267.94,308.99 L267.16,304.85 L268.08,300.08 L267.58,298.08 L263.14,298.29 L261.35,295.69 L261.76,292.4 L265.98,288.91 L266.04,287.2 L263.04,284.89 L258.1,283.56 L256.24,283.96 L253.35,286.62 L252.59,289.67 L253.93,293.76 L257.63,297.65 L261.85,299.6 L262.6,301.85 L259.53,310.85 L255.88,313.26 L254.3,321.39 L250.75,326.17 L248.79,327.21 L247.6,326.57 L247.99,321.71 L246.25,319.65 L243.38,318.81 L240.77,320.7 L240.57,326.59 L241.76,329.95 L242.83,331.2 L246.88,332.12 L247.98,333.72 L245.21,347.2 L243.18,349.43Z" fill="rgb(223,160,146)"></path><path d="M341.48,219.76 L336.82,217.98 L331.08,214.43 L330.7,212.02 L333.02,210.66 L339.07,210.77 L342.98,212.52 L344.38,214.5 L344.7,217.06 L344.06,218.49 L342.21,219.65Z" fill="rgb(223,160,146)"></path><path d="M446.3,238.22 L447.24,237.21 L447.41,235.34 L445.14,230.23 L441.26,226.5 L434.86,223.73 L433.56,226.93 L434.87,230.77 L441.17,237.11 L443.49,238.29 L445.84,238.41Z" fill="rgb(223,160,146)"></path><path d="M349.44,245.77 L346.49,244.89 L343.34,239.73 L342.88,235.91 L344.36,233.58 L347.84,233.6 L350.14,236.73 L351.38,242.02 L350.12,245.39Z" fill="rgb(223,160,146)"></path><path d="M417.47,243.84 L410.9,243.26 L408.36,241.76 L407.83,237.91 L409.62,235.0 L412.52,234.86 L418.15,238.36 L419.49,241.08 L418.16,243.53Z" fill="rgb(223,160,146)"></path><path d="M240.96,236.13 L241.01,236.14Z" fill="rgb(223,160,146)"></path><path d="M241.96,237.13 L242.01,237.14Z" fill="rgb(223,160,146)"></path><path d="M242.96,238.13 L243.01,238.14Z" fill="rgb(223,160,146)"></path><path d="M243.96,239.13 L244.01,239.14Z" fill="rgb(223,160,146)"></path><path d="M286.55,259.19 L291.24,256.82 L293.25,252.67 L292.38,248.78 L289.18,243.33 L287.06,241.92 L282.86,240.8 L275.99,241.92 L270.79,239.39 L272.71,242.17 L272.72,247.23 L276.46,257.04 L281.77,259.11 L285.93,259.39Z" fill="rgb(223,160,146)"></path><path d="M446.57,302.11 L441.92,302.35 L438.44,301.06 L434.72,293.71 L430.82,289.89 L425.43,287.1 L423.22,283.75 L422.73,280.94 L423.24,276.68 L420.37,272.73 L419.82,269.91 L420.86,267.28 L426.23,264.74 L427.36,262.85 L426.3,254.61 L422.3,241.68 L422.77,239.17 L424.21,238.21 L426.86,238.48 L428.63,240.06 L432.84,250.25 L432.57,259.53 L435.13,263.58 L435.54,266.02 L433.92,267.51 L430.52,268.0 L428.81,271.7 L433.14,280.64 L436.73,285.79 L440.01,288.99 L441.33,289.24 L443.12,287.81 L445.07,284.1 L445.1,277.0 L440.24,268.81 L440.61,267.04 L443.25,265.04 L444.87,261.45 L446.28,260.55 L448.5,261.15 L453.78,270.25 L454.21,274.05 L451.63,291.09 L452.86,299.09 L451.01,301.08 L447.3,301.9Z" fill="rgb(223,160,146)"></path><path d="M244.96,240.13 L245.01,240.14Z" fill="rgb(223,160,146)"></path><path d="M245.96,241.13 L246.01,241.14Z" fill="rgb(223,160,146)"></path><path d="M398.59,292.26 L396.01,287.54 L392.39,285.07 L391.06,282.85 L393.02,268.81 L392.75,262.95 L396.84,250.43 L401.03,247.2 L407.11,245.18 L409.74,247.06 L410.56,251.02 L408.88,252.46 L404.98,252.0 L406.3,255.54 L406.12,257.88 L401.24,259.96 L399.35,261.63 L397.93,268.94 L398.8,274.66 L402.57,276.84 L405.19,279.52 L408.48,286.35 L408.59,288.07 L406.34,290.3 L399.22,292.41Z" fill="rgb(223,160,146)"></path><path d="M264.29,270.22 L265.69,268.08 L261.83,265.45 L261.07,262.88 L261.51,261.16 L264.14,259.58 L268.06,261.42 L269.2,261.3 L269.24,260.63 L264.87,256.0 L260.71,255.01 L258.89,256.25 L256.93,259.91 L255.75,268.32 L257.68,270.23 L263.82,270.41Z" fill="rgb(223,160,146)"></path><path d="M366.47,264.74 L365.04,264.44 L363.4,262.71 L363.1,258.97 L365.44,255.81 L369.18,254.09 L371.79,254.74 L372.66,257.07 L368.91,263.12 L367.2,264.6Z" fill="rgb(223,160,146)"></path><path d="M546.63,302.48 L545.82,301.02 L547.19,299.38 L562.24,291.51 L569.7,285.93 L579.44,280.53 L590.1,275.94 L597.63,274.83 L604.52,269.68 L606.86,269.47 L611.54,271.26 L614.35,271.3 L623.69,267.84 L632.15,263.21 L637.07,262.29 L639.15,263.34 L642.91,267.07 L648.66,267.73 L649.17,268.95 L648.61,270.16 L645.53,272.43 L642.88,272.96 L640.44,272.15 L634.94,265.97 L630.78,267.49 L624.55,272.45 L619.17,273.96 L613.87,276.98 L609.14,276.56 L605.23,272.95 L595.69,282.58 L592.98,282.84 L589.53,281.75 L584.9,284.0 L580.81,284.71 L576.74,287.63 L569.78,290.46 L560.74,298.63 L555.81,299.71 L551.93,301.99 L547.27,302.61Z" fill="rgb(223,160,146)"></path><path d="M316.54,287.78 L315.21,287.29 L314.65,286.06 L316.47,280.15 L314.34,272.69 L314.35,270.15 L316.51,266.85 L322.14,264.11 L323.94,264.23 L325.23,265.89 L323.06,279.97 L321.16,284.57 L317.26,287.68Z" fill="rgb(223,160,146)"></path><path d="M720.73,378.95 L720.59,376.4 L727.81,363.73 L733.58,347.38 L737.5,342.26 L739.64,337.65 L740.38,334.24 L739.43,323.41 L738.5,320.78 L733.35,314.95 L730.18,309.33 L724.43,306.16 L722.29,304.11 L719.26,297.21 L707.7,288.2 L694.41,286.6 L681.46,279.74 L674.93,280.58 L673.07,278.96 L671.66,274.86 L668.93,278.9 L665.52,300.81 L666.65,312.01 L669.15,313.93 L669.9,316.03 L665.62,333.68 L672.06,348.07 L674.18,359.64 L676.79,363.64 L680.94,367.12 L681.37,373.07 L680.13,376.52 L678.73,377.33 L676.7,376.54 L670.14,363.17 L661.16,350.25 L657.05,345.89 L652.6,319.99 L652.63,307.94 L657.24,288.15 L666.33,272.18 L665.27,270.75 L653.96,267.22 L652.4,265.81 L654.08,264.66 L658.05,264.76 L671.39,268.7 L674.14,270.51 L676.26,274.23 L677.74,275.35 L685.62,277.58 L690.34,280.85 L697.09,283.88 L708.85,285.25 L720.34,293.02 L725.28,300.29 L731.69,305.86 L743.45,320.45 L744.7,329.33 L746.25,334.05 L745.76,338.83 L739.81,348.98 L731.06,367.33 L722.98,378.29 L721.25,379.17Z" fill="rgb(223,160,146)"></path><path d="M241.12,283.14 L242.07,277.96 L244.99,273.89 L245.46,271.95 L245.29,269.82 L244.11,268.03 L241.89,269.19 L240.74,271.58 L239.54,279.04 L239.7,281.19 L240.99,283.3Z" fill="rgb(223,160,146)"></path><path d="M650.54,267.36 L650.47,266.79 L650.79,267.29Z" fill="rgb(223,160,146)"></path><path d="M290.1,293.14 L291.16,291.23 L286.96,290.77 L285.5,289.88 L283.75,284.91 L285.36,281.6 L287.08,281.2 L289.79,282.08 L290.03,279.22 L283.29,272.52 L281.1,271.69 L278.78,272.49 L276.88,274.19 L274.93,277.9 L274.96,283.76 L283.74,291.5 L287.49,293.29 L289.71,293.38Z" fill="rgb(223,160,146)"></path><path d="M421.47,307.72 L419.46,306.85 L418.22,304.85 L413.53,288.5 L414.23,284.73 L417.35,282.5 L420.48,283.25 L423.19,289.07 L422.69,293.92 L424.31,304.07 L423.43,306.71 L422.2,307.59Z" fill="rgb(223,160,146)"></path><path d="M236.55,303.33 L236.2,299.98 L237.04,297.21 L235.66,292.95 L236.25,287.68 L234.57,285.78 L232.77,286.62 L234.66,302.13 L236.45,303.54Z" fill="rgb(223,160,146)"></path><path d="M211.54,288.36 L211.47,287.79 L211.79,288.29Z" fill="rgb(223,160,146)"></path><path d="M209.54,289.36 L209.47,288.79 L209.79,289.29Z" fill="rgb(223,160,146)"></path><path d="M400.42,315.58 L399.05,315.32 L397.57,313.53 L396.86,310.91 L397.25,306.84 L394.14,302.82 L394.4,300.16 L396.27,298.46 L398.64,299.27 L400.24,304.0 L403.86,305.35 L405.67,307.22 L405.38,309.71 L402.75,310.95 L401.09,315.29Z" fill="rgb(223,160,146)"></path><path d="M534.75,317.95 L534.89,315.43 L540.11,310.82 L542.64,304.41 L544.95,303.15 L545.68,304.15 L545.54,306.34 L543.62,311.99 L537.13,317.62 L535.27,318.2Z" fill="rgb(223,160,146)"></path><path d="M456.54,353.78 L455.24,353.27 L454.77,352.08 L456.37,347.89 L455.3,340.67 L453.51,336.78 L451.3,334.22 L438.82,325.83 L437.91,326.28 L435.15,331.59 L433.72,332.45 L432.14,332.29 L430.57,330.53 L429.85,326.95 L431.9,319.63 L435.24,317.17 L440.0,316.99 L447.3,320.39 L450.6,320.43 L453.22,319.5 L456.8,315.71 L457.27,309.89 L459.15,308.03 L461.79,308.15 L465.01,309.52 L466.09,310.99 L467.14,316.11 L466.57,318.86 L461.52,324.73 L459.9,328.82 L459.57,333.6 L461.15,339.09 L460.59,344.59 L461.68,349.07 L460.19,351.68 L457.26,353.68Z" fill="rgb(223,160,146)"></path><path d="M309.48,354.76 L305.63,353.07 L302.19,350.03 L297.53,341.54 L296.73,337.93 L298.97,325.5 L303.97,323.55 L306.41,319.01 L309.2,317.35 L310.83,317.78 L311.92,320.13 L308.93,326.9 L308.59,329.67 L313.45,348.02 L312.56,352.83 L310.21,354.65Z" fill="rgb(223,160,146)"></path><path d="M495.79,318.91 L496.09,318.32 L496.04,318.95Z" fill="rgb(223,160,146)"></path><path d="M527.59,329.91 L526.98,327.01 L528.4,323.09 L531.35,319.82 L533.29,318.96 L534.37,319.58 L534.42,320.92 L531.0,325.13 L529.67,328.77 L528.14,330.03Z" fill="rgb(223,160,146)"></path><path d="M525.75,352.98 L525.35,351.82 L526.21,349.52 L523.29,347.39 L522.77,346.1 L525.12,342.31 L538.46,334.53 L541.06,333.86 L543.92,334.19 L546.86,330.27 L554.23,325.34 L565.44,322.35 L569.02,322.28 L570.59,324.22 L569.62,326.35 L567.39,326.89 L559.69,332.58 L554.83,332.56 L556.13,338.11 L555.37,340.84 L553.34,342.31 L546.36,344.47 L544.56,349.26 L540.99,350.44 L537.06,349.88 L535.82,348.08 L537.02,346.15 L535.47,344.83 L534.0,346.04 L532.65,350.22 L528.95,352.73 L526.28,353.27Z" fill="rgb(223,160,146)"></path><path d="M410.46,337.86 L407.93,337.88 L405.38,335.83 L401.48,328.65 L401.57,326.14 L402.6,324.91 L405.85,324.46 L407.78,326.16 L409.17,330.63 L411.56,334.29 L411.11,337.42Z" fill="rgb(223,160,146)"></path><path d="M291.6,354.29 L287.72,350.75 L284.85,342.91 L286.08,332.97 L287.61,330.99 L289.88,330.61 L292.02,333.13 L291.74,337.46 L293.53,341.32 L295.2,350.08 L294.66,352.94 L292.22,354.4Z" fill="rgb(223,160,146)"></path><path d="M526.79,331.91 L527.09,331.32 L527.04,331.95Z" fill="rgb(223,160,146)"></path><path d="M525.96,333.13 L526.01,333.14Z" fill="rgb(223,160,146)"></path><path d="M600.35,349.79 L598.11,349.62 L595.07,346.75 L588.89,343.81 L585.46,345.3 L583.13,345.15 L581.24,341.72 L581.28,339.91 L582.33,338.48 L586.05,338.32 L587.62,336.31 L588.92,335.97 L594.9,343.06 L598.16,343.89 L595.89,342.6 L593.97,340.02 L590.57,338.54 L590.11,336.86 L590.7,335.16 L592.17,334.12 L595.03,334.1 L602.32,337.94 L604.68,339.82 L605.49,342.1 L604.74,343.48 L601.09,345.72 L600.9,349.42Z" fill="rgb(223,160,146)"></path><path d="M219.66,340.86 L219.42,339.97 L220.15,339.4 L220.63,340.11 L220.07,340.9Z" fill="rgb(223,160,146)"></path><path d="M640.51,349.84 L637.61,349.05 L635.9,346.96 L634.71,341.74 L635.4,340.36 L637.1,339.79 L641.32,340.94 L645.01,343.41 L646.39,345.35 L646.3,346.99 L645.29,348.16 L641.24,349.74Z" fill="rgb(223,160,146)"></path><path d="M191.6,372.27 L188.32,369.77 L176.95,369.24 L171.38,367.27 L168.97,363.88 L168.88,360.91 L169.7,359.21 L172.07,358.34 L176.67,361.23 L180.63,361.42 L207.18,355.3 L209.0,353.86 L212.07,347.45 L221.15,341.68 L223.01,342.7 L227.74,348.5 L234.82,353.2 L239.95,354.46 L241.31,356.53 L240.75,358.69 L236.88,359.98 L231.78,357.8 L220.4,356.57 L217.06,354.06 L216.51,349.74 L214.64,352.15 L214.36,363.08 L213.02,366.51 L210.94,367.57 L205.37,367.58 L198.87,368.88 L192.22,372.35Z" fill="rgb(223,160,146)"></path><path d="M630.79,347.91 L631.09,347.32 L631.04,347.95Z" fill="rgb(223,160,146)"></path><path d="M521.96,348.13 L522.01,348.14Z" fill="rgb(223,160,146)"></path><path d="M634.52,355.41 L632.71,354.62 L631.25,351.71 L631.64,349.04 L633.14,348.01 L635.03,348.14 L636.67,350.03 L636.32,353.14 L635.1,355.17Z" fill="rgb(223,160,146)"></path><path d="M533.73,371.97 L533.29,370.13 L535.48,363.15 L537.43,360.71 L540.96,359.97 L550.21,361.92 L552.39,364.35 L551.57,366.47 L549.89,367.1 L542.0,366.9 L536.13,371.62 L534.26,372.21Z" fill="rgb(223,160,146)"></path><path d="M516.61,372.02 L515.86,370.77 L516.06,367.98 L519.66,362.97 L524.03,360.75 L531.07,361.05 L532.85,363.16 L531.76,365.64 L525.31,367.17 L517.21,372.25Z" fill="rgb(223,160,146)"></path><path d="M560.5,376.93 L549.83,376.84 L547.7,375.64 L548.26,373.53 L551.57,371.17 L553.33,367.97 L555.34,366.42 L558.49,367.11 L562.05,371.75 L562.64,375.0 L561.23,376.69Z" fill="rgb(223,160,146)"></path><path d="M190.96,373.13 L191.01,373.14Z" fill="rgb(223,160,146)"></path><path d="M175.5,416.49 L174.38,415.6 L174.07,414.01 L175.44,408.14 L178.22,405.16 L179.94,400.44 L185.67,397.32 L189.99,390.49 L188.6,387.08 L184.69,384.67 L185.13,382.5 L190.08,379.84 L192.9,380.44 L194.07,382.03 L194.33,380.96 L191.01,378.73 L191.96,377.04 L197.09,374.94 L208.51,372.65 L210.46,373.53 L210.51,375.03 L203.54,382.21 L207.32,381.3 L209.83,381.77 L210.78,383.22 L210.31,385.84 L206.92,387.18 L202.29,385.62 L197.09,388.38 L196.32,394.62 L192.0,401.13 L189.35,407.89 L186.91,409.1 L183.83,408.73 L182.47,412.96 L176.2,416.51Z" fill="rgb(223,160,146)"></path><path d="M251.57,630.11 L243.95,630.25 L219.99,626.03 L212.03,622.8 L204.99,618.63 L199.81,613.57 L193.26,604.21 L184.81,595.56 L179.15,587.23 L174.29,582.12 L171.69,577.71 L162.22,565.79 L159.73,557.97 L158.1,542.98 L149.56,526.58 L145.83,516.37 L142.42,512.43 L142.52,511.29 L145.23,509.29 L145.42,505.38 L139.91,488.9 L139.29,480.82 L137.31,478.76 L127.39,476.38 L125.39,473.78 L125.77,472.15 L128.1,470.9 L137.81,473.34 L139.23,472.29 L139.51,464.14 L143.01,459.13 L140.0,453.86 L141.03,451.91 L140.14,447.01 L141.94,437.01 L149.58,418.38 L152.35,414.26 L154.24,407.68 L150.82,403.88 L145.35,401.6 L143.77,402.71 L143.29,407.08 L142.1,409.66 L139.88,410.5 L136.67,409.76 L132.72,412.46 L131.16,412.32 L128.78,410.65 L123.95,411.15 L113.95,410.24 L111.45,409.44 L109.87,407.75 L111.15,404.7 L110.84,399.91 L112.45,396.86 L122.29,389.72 L129.06,383.35 L142.1,376.94 L148.06,376.77 L153.91,379.07 L159.04,380.07 L163.71,384.48 L165.73,385.18 L171.76,384.04 L176.05,380.35 L186.16,374.23 L188.49,373.66 L190.37,374.53 L189.52,378.29 L188.25,380.01 L179.21,384.41 L178.55,387.53 L179.6,391.09 L176.9,397.82 L175.93,404.03 L170.54,410.83 L168.22,416.53 L162.91,423.88 L163.18,424.95 L163.94,424.99 L167.69,420.19 L169.18,419.62 L170.84,421.15 L171.02,425.05 L174.55,422.85 L177.4,422.99 L183.64,417.2 L186.11,413.49 L188.32,412.37 L191.56,412.97 L193.64,417.16 L198.44,412.92 L199.77,412.93 L200.49,413.89 L199.93,428.03 L190.5,440.73 L185.17,451.28 L183.61,456.2 L185.12,462.1 L183.81,467.63 L186.99,473.11 L188.69,484.33 L192.62,492.21 L194.01,491.4 L194.97,487.44 L202.28,483.72 L207.39,476.64 L208.07,472.06 L207.3,467.82 L206.29,466.29 L200.49,462.01 L193.97,463.79 L191.72,462.89 L190.56,460.88 L191.99,458.21 L202.12,451.73 L206.8,444.69 L208.2,439.88 L205.81,433.93 L205.99,431.0 L207.06,428.67 L210.13,427.08 L213.14,428.55 L214.24,431.03 L214.66,437.13 L215.95,438.3 L220.22,436.51 L229.48,429.58 L232.11,429.28 L233.94,431.17 L232.92,434.5 L224.23,439.86 L220.87,443.19 L217.17,449.28 L213.93,457.9 L213.52,463.8 L214.37,475.06 L209.94,489.71 L213.62,494.08 L213.96,496.94 L212.16,497.71 L208.92,496.88 L204.76,491.89 L202.53,490.8 L195.42,495.84 L192.89,501.99 L191.74,503.08 L189.84,502.64 L185.46,499.01 L177.49,499.56 L175.5,500.78 L173.61,505.21 L173.96,507.83 L178.16,515.63 L182.49,521.21 L191.18,518.3 L195.19,515.71 L196.62,515.87 L198.82,517.79 L200.87,521.17 L200.72,526.14 L207.8,538.03 L213.93,551.76 L217.83,555.56 L218.05,557.62 L214.7,559.71 L210.67,558.97 L208.57,556.58 L206.15,550.38 L200.41,547.73 L199.98,545.04 L202.45,536.51 L198.73,533.2 L191.97,532.9 L188.32,529.96 L185.94,539.0 L183.4,540.82 L178.84,539.99 L174.39,537.07 L173.07,534.84 L173.2,531.96 L174.31,530.52 L178.2,529.07 L178.99,523.68 L175.55,517.95 L170.06,514.69 L164.0,515.68 L162.54,519.05 L163.9,527.02 L169.44,537.42 L173.35,547.51 L172.47,549.46 L170.97,549.51 L164.93,543.21 L163.95,543.06 L163.0,544.13 L162.9,550.02 L167.21,558.11 L168.6,559.06 L171.86,553.44 L174.1,552.49 L176.01,553.73 L180.57,561.09 L182.47,556.8 L189.54,555.87 L192.63,550.33 L194.58,550.1 L195.99,552.02 L198.49,559.22 L206.15,567.46 L207.24,570.32 L206.52,571.66 L203.89,572.14 L195.52,567.74 L191.84,568.45 L190.77,569.61 L190.72,571.47 L191.89,576.02 L193.86,579.77 L196.3,582.15 L200.07,581.87 L204.9,583.31 L209.35,581.58 L210.97,581.81 L212.03,584.12 L210.82,587.37 L216.29,590.5 L218.62,596.19 L223.82,604.68 L235.99,610.37 L245.26,618.38 L258.32,616.34 L264.24,613.22 L271.33,612.3 L278.22,609.51 L295.79,596.27 L302.7,589.33 L306.83,582.39 L311.86,577.29 L322.26,572.24 L325.08,572.11 L327.17,573.68 L329.06,578.1 L329.75,583.2 L335.86,583.42 L338.04,584.55 L338.8,586.17 L338.53,587.86 L335.52,590.47 L340.02,589.62 L342.82,591.21 L341.9,592.75 L324.95,603.68 L317.55,607.47 L313.96,608.35 L309.17,608.22 L301.17,611.93 L284.58,621.45 L274.34,625.35 L252.3,629.9Z" fill="rgb(223,160,146)"></path><path d="M599.56,389.41 L598.62,388.51 L598.85,386.29 L606.09,374.71 L608.88,373.52 L612.61,375.95 L612.72,378.69 L609.98,380.27 L609.83,383.06 L608.49,385.14 L602.28,388.99 L600.21,389.51Z" fill="rgb(223,160,146)"></path><path d="M529.54,380.36 L529.47,379.79 L529.79,380.29Z" fill="rgb(223,160,146)"></path><path d="M719.96,380.13 L720.01,380.14Z" fill="rgb(223,160,146)"></path><path d="M515.53,394.77 L513.51,393.18 L512.78,386.13 L516.05,383.32 L522.06,380.25 L526.97,380.2 L528.19,381.22 L528.1,383.38 L526.51,385.31 L521.22,387.73 L516.25,394.63Z" fill="rgb(223,160,146)"></path><path d="M718.96,381.13 L719.01,381.14Z" fill="rgb(223,160,146)"></path><path d="M695.57,399.1 L690.98,398.91 L689.7,397.67 L689.82,396.13 L691.13,395.06 L696.02,394.1 L700.54,391.9 L704.45,384.86 L711.1,380.94 L715.99,380.8 L717.6,382.19 L716.77,383.11 L710.78,384.5 L706.35,388.62 L705.56,390.91 L707.09,395.35 L706.51,396.68 L696.3,398.89Z" fill="rgb(223,160,146)"></path><path d="M618.96,383.13 L619.01,383.14Z" fill="rgb(223,160,146)"></path><path d="M501.49,393.71 L500.18,393.18 L499.53,391.87 L500.57,388.34 L503.44,384.81 L507.18,383.09 L509.04,383.27 L510.4,384.37 L510.56,386.98 L502.22,393.63Z" fill="rgb(223,160,146)"></path><path d="M614.61,413.06 L613.05,408.25 L611.8,406.87 L607.41,403.96 L604.21,402.96 L601.11,403.27 L600.45,401.83 L602.09,399.91 L607.21,399.28 L618.67,394.18 L620.31,391.1 L619.16,384.93 L620.31,383.49 L622.85,383.37 L624.86,384.81 L626.05,387.02 L626.54,393.6 L625.39,395.89 L621.75,398.28 L619.94,400.91 L620.26,408.09 L619.55,410.86 L617.28,412.97 L615.22,413.32Z" fill="rgb(223,160,146)"></path><path d="M597.96,389.13 L598.01,389.14Z" fill="rgb(223,160,146)"></path><path d="M547.53,428.53 L543.52,425.78 L540.09,425.19 L539.42,423.81 L540.07,422.34 L545.77,419.14 L549.12,415.82 L552.1,409.22 L552.03,406.23 L549.26,403.64 L543.33,401.62 L535.39,407.05 L533.11,407.29 L531.38,405.81 L528.75,400.46 L528.17,396.96 L529.35,394.84 L532.13,393.03 L537.63,393.19 L550.1,388.94 L553.04,388.59 L556.85,389.25 L559.61,390.93 L560.99,393.11 L561.36,397.07 L558.74,404.57 L556.74,419.85 L550.18,427.69 L548.2,428.54Z" fill="rgb(223,160,146)"></path><path d="M507.53,420.46 L503.13,416.2 L500.52,412.38 L497.53,411.74 L490.94,413.69 L489.0,412.36 L488.71,410.11 L489.58,408.86 L492.03,407.76 L504.33,406.3 L511.12,404.08 L513.35,405.39 L513.65,407.84 L510.82,414.2 L510.63,418.95 L508.2,420.52Z" fill="rgb(223,160,146)"></path><path d="M632.53,416.51 L627.35,413.38 L625.78,411.61 L626.05,409.44 L629.11,407.91 L631.82,408.55 L633.82,410.21 L638.03,411.08 L639.99,412.63 L640.32,414.14 L639.54,415.44 L633.2,416.5Z" fill="rgb(223,160,146)"></path><path d="M233.49,420.92 L231.13,420.58 L228.62,418.96 L227.1,416.83 L226.92,414.9 L228.45,411.86 L234.12,408.95 L238.03,409.18 L239.43,410.36 L239.96,412.1 L237.63,418.0 L234.25,420.74Z" fill="rgb(223,160,146)"></path><path d="M708.47,424.71 L707.06,424.28 L705.43,421.79 L703.3,420.79 L700.41,416.74 L701.43,413.71 L706.03,411.73 L712.03,411.79 L714.09,413.21 L713.47,417.43 L708.85,418.24 L710.66,422.18 L710.32,423.71 L709.18,424.58Z" fill="rgb(223,160,146)"></path><path d="M523.45,431.73 L521.94,431.36 L520.9,430.01 L518.06,421.87 L519.11,419.5 L525.31,415.46 L527.06,415.34 L528.39,416.31 L530.08,424.1 L528.69,427.15 L524.17,431.5Z" fill="rgb(223,160,146)"></path><path d="M715.54,418.36 L715.47,417.79 L715.79,418.29Z" fill="rgb(223,160,146)"></path><path d="M717.54,419.36 L717.47,418.79 L717.79,419.29Z" fill="rgb(223,160,146)"></path><path d="M725.96,425.13 L726.01,425.14Z" fill="rgb(223,160,146)"></path><path d="M739.49,452.35 L737.81,451.63 L735.93,449.36 L731.05,440.03 L727.8,440.7 L725.44,440.11 L721.54,434.63 L720.77,431.7 L721.54,430.47 L723.84,430.43 L727.34,432.12 L726.5,427.73 L727.37,425.92 L729.16,426.36 L731.65,429.03 L738.28,441.29 L744.72,446.51 L744.45,447.7 L741.78,448.94 L740.08,452.14Z" fill="rgb(223,160,146)"></path><path d="M178.4,441.16 L180.8,438.69 L183.03,430.93 L182.18,427.8 L180.36,427.88 L179.62,429.27 L179.66,434.84 L176.88,440.71 L177.99,441.35Z" fill="rgb(223,160,146)"></path><path d="M330.63,468.89 L330.1,466.94 L333.39,456.71 L332.64,450.37 L329.72,444.71 L319.52,435.72 L319.53,434.15 L321.94,428.91 L323.25,428.1 L324.93,428.3 L329.06,429.82 L331.96,432.07 L336.03,433.18 L337.69,435.17 L338.85,454.15 L338.25,459.11 L335.63,465.0 L331.15,469.03Z" fill="rgb(223,160,146)"></path><path d="M521.46,477.52 L519.67,476.55 L518.55,474.52 L518.07,471.87 L518.66,470.16 L528.28,464.73 L532.38,458.75 L531.83,455.37 L526.88,448.4 L527.05,445.44 L529.08,444.01 L538.33,442.3 L542.22,440.51 L545.12,437.82 L548.07,432.67 L550.22,431.39 L552.48,432.36 L553.26,435.07 L550.98,442.33 L543.29,448.7 L539.5,453.74 L537.74,457.48 L537.78,462.03 L536.8,464.27 L526.75,472.25 L522.14,477.38Z" fill="rgb(223,160,146)"></path><path d="M311.53,446.52 L308.99,444.09 L307.81,437.93 L309.63,434.04 L312.98,433.05 L316.84,434.69 L317.66,437.07 L314.67,444.95 L312.2,446.54Z" fill="rgb(223,160,146)"></path><path d="M628.48,444.83 L626.34,443.71 L625.8,440.95 L627.17,435.93 L629.22,434.37 L630.86,434.53 L634.15,437.04 L639.16,439.05 L640.43,441.12 L638.83,442.89 L634.32,442.81 L629.24,444.71Z" fill="rgb(223,160,146)"></path><path d="M516.53,448.49 L514.0,446.08 L513.48,441.16 L516.07,437.45 L520.15,435.67 L521.49,436.42 L522.23,438.05 L522.19,443.09 L520.69,446.15 L517.2,448.48Z" fill="rgb(223,160,146)"></path><path d="M227.49,469.94 L224.64,468.61 L224.62,465.39 L235.99,451.89 L236.09,441.98 L238.41,437.99 L241.2,436.35 L242.83,436.78 L243.98,439.08 L243.56,442.93 L244.44,450.04 L243.75,453.85 L242.17,456.61 L232.67,467.17 L228.25,469.8Z" fill="rgb(223,160,146)"></path><path d="M22.96,438.13 L23.01,438.14Z" fill="rgb(223,160,146)"></path><path d="M21.96,439.13 L22.01,439.14Z" fill="rgb(223,160,146)"></path><path d="M20.96,440.13 L21.01,440.14Z" fill="rgb(223,160,146)"></path><path d="M19.96,441.13 L20.01,441.14Z" fill="rgb(223,160,146)"></path><path d="M15.57,445.09 L9.01,445.21 L7.58,444.38 L8.24,442.89 L18.03,441.54 L19.03,442.95 L16.3,444.86Z" fill="rgb(223,160,146)"></path><path d="M670.48,472.9 L667.51,471.67 L666.48,465.87 L661.89,467.9 L654.18,467.65 L647.13,465.81 L644.31,463.78 L643.56,460.99 L643.75,456.95 L646.74,444.87 L648.31,442.56 L652.97,443.44 L663.08,442.64 L667.14,444.51 L668.57,448.3 L667.49,451.2 L664.95,451.79 L656.43,447.77 L653.17,448.09 L650.88,449.99 L648.55,457.49 L652.36,461.91 L654.09,462.45 L661.47,460.69 L665.27,457.43 L667.72,457.91 L672.99,468.15 L672.84,470.97 L671.23,472.68Z" fill="rgb(223,160,146)"></path><path d="M156.86,465.16 L158.05,462.2 L162.28,459.7 L164.21,457.53 L164.38,449.34 L163.68,447.71 L160.54,444.79 L156.89,446.25 L154.72,450.59 L153.51,457.96 L154.61,463.19 L156.68,465.39Z" fill="rgb(223,160,146)"></path><path d="M5.34,450.64 L3.38,450.12 L2.36,448.73 L2.22,446.95 L3.58,444.97 L5.05,444.63 L6.1,445.34 L5.85,450.34Z" fill="rgb(223,160,146)"></path><path d="M577.48,469.76 L573.67,467.91 L572.69,465.11 L582.12,455.82 L584.25,451.62 L584.4,447.95 L586.23,446.4 L588.48,447.35 L589.37,450.02 L587.58,460.6 L584.68,465.21 L578.21,469.65Z" fill="rgb(223,160,146)"></path><path d="M746.54,448.36 L746.47,447.79 L746.79,448.29Z" fill="rgb(223,160,146)"></path><path d="M6.96,451.13 L7.01,451.14Z" fill="rgb(223,160,146)"></path><path d="M40.33,464.88 L37.16,464.75 L18.09,456.93 L12.02,455.97 L10.25,454.49 L10.74,452.83 L13.46,450.73 L15.99,450.09 L21.33,452.05 L23.65,456.06 L25.32,453.5 L28.05,452.66 L49.03,455.17 L50.4,456.36 L50.78,458.11 L49.69,460.31 L47.69,461.6 L45.0,461.92 L37.89,460.03 L40.83,463.38 L40.79,464.49Z" fill="rgb(223,160,146)"></path><path d="M7.96,452.13 L8.01,452.14Z" fill="rgb(223,160,146)"></path><path d="M8.96,453.13 L9.01,453.14Z" fill="rgb(223,160,146)"></path><path d="M550.36,473.79 L547.37,473.41 L543.82,470.51 L541.0,464.85 L542.32,461.52 L550.69,459.83 L553.77,458.14 L558.85,453.4 L560.2,452.89 L561.36,453.54 L561.13,456.54 L552.2,469.34 L550.91,473.43Z" fill="rgb(223,160,146)"></path><path d="M64.49,468.89 L62.32,468.06 L61.72,466.66 L62.49,464.73 L64.23,463.68 L53.18,459.43 L53.0,457.4 L55.12,456.11 L67.57,459.26 L75.07,459.78 L78.16,461.48 L78.61,463.14 L77.11,465.11 L65.25,468.82Z" fill="rgb(223,160,146)"></path><path d="M43.54,465.36 L43.47,464.79 L43.79,465.29Z" fill="rgb(223,160,146)"></path><path d="M98.51,502.25 L97.33,500.75 L98.32,497.14 L97.22,495.5 L87.83,491.98 L81.66,487.15 L72.13,482.93 L65.9,483.09 L63.44,482.16 L53.33,472.3 L46.09,467.64 L45.28,465.87 L46.29,465.02 L58.02,467.09 L59.54,469.08 L58.79,471.09 L59.22,471.83 L64.0,472.01 L70.08,474.12 L73.43,477.96 L76.25,479.3 L77.03,479.31 L78.66,476.14 L80.17,475.12 L83.79,475.71 L84.66,478.07 L82.84,481.26 L83.41,482.93 L91.33,485.05 L94.73,489.78 L97.82,492.06 L103.2,491.28 L105.46,492.37 L106.08,494.12 L105.54,496.86 L99.09,502.15Z" fill="rgb(223,160,146)"></path><path d="M120.56,474.05 L111.98,474.47 L108.03,473.67 L105.11,470.67 L101.0,468.46 L100.45,466.86 L101.35,465.48 L107.1,465.74 L121.02,469.18 L122.61,471.19 L121.27,473.74Z" fill="rgb(223,160,146)"></path><path d="M173.4,493.15 L178.8,488.68 L180.27,483.47 L180.5,478.09 L179.17,473.32 L174.05,468.03 L173.09,468.01 L169.2,472.3 L168.5,477.01 L168.89,485.14 L171.14,491.61 L172.99,493.35Z" fill="rgb(223,160,146)"></path><path d="M265.48,482.72 L263.62,481.57 L263.53,479.14 L270.57,469.08 L272.15,468.45 L273.96,470.16 L273.45,473.59 L269.17,480.6 L266.21,482.64Z" fill="rgb(223,160,146)"></path><path d="M473.47,488.73 L471.05,486.96 L469.15,480.82 L469.9,478.29 L472.19,477.1 L475.56,477.95 L477.24,481.04 L476.93,486.03 L474.21,488.64Z" fill="rgb(223,160,146)"></path><path d="M162.02,503.15 L165.38,495.66 L165.42,492.37 L164.11,487.0 L161.28,483.72 L156.82,482.59 L154.55,482.98 L152.69,488.92 L154.89,499.02 L157.19,502.98 L161.66,503.41Z" fill="rgb(223,160,146)"></path><path d="M542.49,493.52 L541.31,492.62 L540.92,490.9 L542.37,487.01 L546.03,483.35 L550.09,481.71 L551.22,482.49 L551.49,483.88 L550.05,487.34 L546.28,491.86 L543.21,493.56Z" fill="rgb(223,160,146)"></path><path d="M570.56,494.09 L567.88,494.32 L565.16,493.53 L563.72,491.63 L563.91,490.12 L565.15,489.06 L571.24,487.5 L579.33,481.63 L581.34,482.43 L581.12,484.55 L575.68,491.21 L571.3,493.86Z" fill="rgb(223,160,146)"></path><path d="M691.74,538.96 L691.36,537.12 L693.41,531.13 L699.23,524.32 L700.2,518.94 L699.44,515.92 L700.02,512.84 L702.83,508.39 L708.8,501.7 L711.24,489.17 L712.98,485.7 L714.98,484.97 L715.91,486.99 L713.73,495.54 L713.02,501.99 L708.77,512.88 L702.43,525.67 L696.67,534.97 L694.09,538.52 L692.26,539.2Z" fill="rgb(223,160,146)"></path><path d="M513.58,496.41 L512.1,494.42 L512.73,490.4 L517.07,486.35 L520.18,485.09 L522.03,485.28 L523.35,486.39 L523.23,489.6 L514.19,496.35Z" fill="rgb(223,160,146)"></path><path d="M101.37,503.65 L100.48,503.3 L100.63,502.53 L101.59,502.65 L101.74,503.43Z" fill="rgb(223,160,146)"></path><path d="M216.57,522.07 L210.92,521.95 L209.42,520.72 L209.0,518.88 L210.28,516.52 L213.76,515.05 L218.74,510.84 L221.87,510.88 L223.12,514.07 L221.17,518.61 L217.29,521.79Z" fill="rgb(223,160,146)"></path><path d="M678.55,546.04 L675.16,545.38 L674.41,543.92 L674.77,542.4 L684.39,531.8 L685.88,531.83 L687.42,533.48 L687.9,538.03 L684.14,542.71 L679.29,545.79Z" fill="rgb(223,160,146)"></path><path d="M346.8,554.66 L344.48,553.48 L345.3,550.69 L356.77,543.14 L367.35,533.82 L369.35,532.91 L370.68,533.49 L371.34,535.06 L372.19,545.09 L371.15,547.72 L363.78,550.85 L347.33,554.61Z" fill="rgb(223,160,146)"></path><path d="M690.96,540.13 L691.01,540.14Z" fill="rgb(223,160,146)"></path><path d="M689.96,541.13 L690.01,541.14Z" fill="rgb(223,160,146)"></path><path d="M471.8,619.68 L455.96,619.45 L443.7,617.61 L424.94,616.37 L416.87,614.07 L406.52,609.74 L399.98,610.45 L396.01,610.02 L387.83,605.7 L383.26,601.33 L383.15,600.05 L384.14,599.32 L390.47,599.46 L396.02,597.57 L413.96,599.49 L421.87,598.32 L438.07,597.87 L449.54,602.27 L459.97,602.5 L484.0,600.54 L497.8,600.48 L505.41,599.3 L517.23,595.15 L527.02,592.73 L541.63,591.42 L554.03,588.72 L560.39,588.3 L594.94,580.72 L614.39,577.3 L625.53,572.67 L630.67,573.28 L632.14,570.51 L636.27,567.28 L639.05,567.03 L641.83,568.17 L647.33,567.3 L662.9,560.25 L662.06,556.87 L663.51,553.86 L671.33,549.49 L676.78,549.03 L685.07,542.36 L687.31,541.48 L688.86,541.84 L689.62,543.11 L687.25,552.52 L681.35,559.83 L671.14,569.71 L660.95,577.65 L647.64,585.45 L627.79,593.79 L602.93,601.09 L588.91,604.1 L518.97,616.28 L491.99,619.4 L472.34,619.64Z" fill="rgb(223,160,146)"></path><path d="M179.08,581.13 L183.99,575.97 L184.08,573.95 L182.28,571.22 L177.22,566.79 L173.89,567.28 L172.73,571.26 L177.76,580.65 L178.82,581.36Z" fill="rgb(223,160,146)"></path><path d="M206.98,607.18 L209.11,602.5 L214.21,599.53 L213.27,597.22 L211.26,595.64 L203.9,592.63 L196.37,595.45 L196.5,597.42 L201.25,605.25 L203.89,607.07 L206.66,607.42Z" fill="rgb(223,160,146)"></path><path d="M249.54,603.03 L245.15,602.65 L239.81,597.53 L239.45,595.01 L242.47,591.77 L244.98,591.68 L246.98,596.45 L251.51,599.3 L251.71,600.99 L250.27,602.73Z" fill="rgb(223,160,146)"></path><path d="M381.96,599.13 L382.01,599.14Z" fill="rgb(223,160,146)"></path></svg>