<svg width="800" height="800" xmlns="http://www.w3.org/2000/svg"><path d="M314.49,226.71 L313.2,226.16 L312.62,224.83 L314.17,221.82 L313.76,220.97 L306.47,220.15 L303.45,217.91 L301.73,214.98 L298.98,214.92 L296.72,213.9 L295.44,211.15 L297.12,207.5 L300.39,206.58 L301.87,203.31 L307.7,198.93 L319.63,193.86 L325.27,189.37 L332.13,188.33 L333.23,187.29 L333.42,180.37 L331.42,163.38 L328.91,153.9 L327.3,143.82 L325.47,141.84 L322.09,144.68 L319.96,145.37 L318.92,144.63 L319.0,143.41 L321.86,140.29 L324.53,138.7 L326.89,138.65 L328.69,139.9 L330.85,144.23 L332.69,155.33 L335.62,164.13 L337.29,165.28 L338.63,163.59 L344.64,147.64 L347.17,135.95 L348.36,134.57 L350.13,134.08 L352.56,134.95 L354.24,138.03 L354.48,156.02 L353.06,166.97 L348.75,181.32 L351.35,183.38 L360.93,184.44 L366.99,183.83 L368.43,184.62 L368.45,185.72 L361.85,187.83 L355.7,186.61 L350.67,186.7 L332.78,193.63 L333.01,194.39 L338.98,197.62 L340.02,200.12 L338.73,203.31 L333.81,206.84 L331.96,206.72 L330.57,205.64 L330.03,201.19 L326.21,196.8 L323.71,197.31 L321.79,199.47 L322.07,204.1 L320.89,206.5 L311.86,211.34 L317.16,216.54 L318.24,219.04 L317.93,224.03 L315.21,226.63Z" fill="rgb(225,212,183)"></path><path d="M317.96,146.13 L318.01,146.14Z" fill="rgb(225,212,183)"></path><path d="M345.58,179.12 L346.72,172.8 L349.28,165.46 L351.46,148.49 L350.76,146.84 L348.88,148.19 L343.93,158.9 L342.58,170.62 L344.52,178.91 L345.46,179.45Z" fill="rgb(225,212,183)"></path><path d="M289.49,198.92 L285.01,197.59 L283.62,194.94 L284.91,193.65 L287.05,193.94 L288.23,192.32 L288.75,177.95 L292.35,162.15 L295.1,159.91 L300.81,160.02 L315.29,146.66 L317.08,147.37 L316.64,149.16 L303.67,162.21 L300.83,163.87 L296.36,163.6 L294.77,164.72 L291.61,179.3 L291.77,196.17 L290.23,198.69Z" fill="rgb(225,212,183)"></path><path d="M240.81,662.7 L226.94,662.37 L213.93,660.25 L196.41,654.46 L186.62,649.06 L174.71,639.81 L164.35,627.94 L158.0,615.98 L153.94,603.93 L152.54,596.51 L153.26,592.97 L152.35,587.19 L154.44,575.09 L156.89,566.8 L159.31,562.06 L158.3,546.59 L156.83,541.36 L147.86,524.28 L144.3,515.3 L140.69,513.61 L129.01,513.03 L114.1,506.93 L105.95,506.24 L98.83,503.97 L96.52,501.65 L96.3,499.96 L97.32,497.15 L96.22,495.64 L88.15,492.62 L80.66,487.15 L73.1,483.93 L64.14,483.55 L53.33,473.29 L48.66,470.15 L18.37,457.61 L9.14,455.58 L2.03,450.37 L1.1,447.87 L2.09,445.51 L6.45,442.55 L14.33,441.3 L18.22,439.51 L24.86,432.3 L30.91,428.6 L33.54,422.86 L44.9,417.92 L57.32,415.34 L67.03,410.73 L73.05,410.75 L83.43,413.49 L85.69,409.2 L87.17,408.31 L101.59,408.43 L108.74,406.08 L110.15,404.7 L109.84,399.91 L111.45,396.86 L121.29,389.72 L128.06,383.35 L135.63,379.86 L141.24,376.22 L147.06,375.77 L152.91,378.07 L158.85,379.26 L164.67,384.23 L167.63,384.42 L171.19,383.38 L189.21,371.51 L187.63,370.62 L174.01,369.02 L170.35,367.28 L168.67,365.49 L167.98,362.92 L169.57,358.05 L172.05,357.23 L176.67,360.23 L180.63,360.42 L205.99,355.1 L208.03,353.77 L211.52,347.02 L217.45,343.13 L218.31,341.07 L216.72,334.97 L216.43,326.41 L214.73,320.97 L214.29,314.82 L212.87,313.01 L168.94,312.37 L160.97,310.92 L159.5,310.01 L158.59,307.86 L159.05,306.44 L161.11,305.01 L169.14,304.11 L190.02,297.13 L204.72,288.86 L221.76,282.05 L224.5,279.26 L236.83,258.39 L246.0,249.86 L246.78,245.24 L238.81,236.57 L235.93,232.3 L233.94,227.99 L232.6,221.99 L232.77,198.93 L233.94,195.68 L238.8,187.7 L239.46,184.87 L239.3,180.61 L235.31,164.67 L233.09,158.82 L233.71,156.17 L236.1,155.04 L239.99,156.37 L242.93,159.6 L242.9,160.94 L240.82,161.68 L240.61,162.81 L242.28,169.03 L243.66,179.33 L246.79,186.21 L248.9,196.0 L251.78,201.21 L254.17,209.64 L265.73,228.28 L265.92,231.0 L263.78,236.08 L264.03,237.02 L266.23,236.5 L271.32,232.62 L276.63,233.19 L284.05,230.74 L297.8,231.48 L314.01,230.08 L317.59,231.81 L321.76,236.05 L325.06,244.1 L325.36,248.07 L322.59,255.0 L320.65,256.46 L318.98,256.54 L317.49,254.92 L316.82,250.36 L313.54,245.77 L312.08,245.82 L312.31,249.89 L310.65,251.49 L308.15,251.57 L305.71,249.47 L305.61,245.39 L309.99,238.99 L310.1,237.33 L305.4,236.57 L301.51,238.77 L299.61,243.31 L299.54,252.44 L304.52,257.32 L305.06,260.1 L303.92,262.5 L296.35,268.63 L295.52,272.8 L298.26,282.05 L296.97,289.25 L297.84,290.22 L300.95,291.12 L302.03,292.92 L300.56,294.43 L282.35,304.66 L277.28,318.21 L275.69,320.1 L273.96,318.83 L273.89,313.46 L269.28,311.14 L267.95,308.89 L267.56,304.97 L268.42,292.39 L265.54,285.82 L262.42,283.74 L257.24,283.51 L254.75,284.29 L253.2,286.3 L252.54,289.05 L252.9,292.02 L254.86,295.77 L258.08,298.99 L259.66,299.4 L260.98,298.78 L261.85,293.9 L263.4,291.67 L265.85,291.77 L267.33,295.05 L266.68,298.85 L263.64,302.76 L261.56,308.93 L264.9,320.0 L267.53,325.2 L268.04,329.04 L267.53,333.85 L264.92,338.92 L263.05,346.99 L261.5,350.1 L258.97,351.33 L254.92,350.96 L253.37,349.81 L252.61,346.8 L248.84,353.42 L255.99,352.14 L258.37,353.95 L258.8,358.04 L261.16,357.1 L263.63,357.67 L264.05,358.91 L261.88,361.97 L260.18,366.84 L258.96,367.35 L252.92,366.3 L248.59,364.62 L242.24,363.65 L236.75,367.16 L235.76,366.52 L236.03,365.14 L233.76,362.85 L230.84,363.75 L226.98,363.69 L224.72,365.58 L223.01,365.89 L219.23,364.26 L215.2,359.94 L213.92,365.03 L211.68,367.37 L195.94,368.28 L191.74,367.68 L192.85,371.16 L191.69,374.15 L185.6,380.35 L179.33,382.9 L178.22,384.11 L179.6,391.09 L176.93,396.91 L175.93,403.03 L169.95,411.12 L167.6,416.91 L164.5,420.74 L161.76,426.42 L166.16,425.37 L169.97,427.06 L175.84,424.74 L179.84,424.84 L180.3,426.85 L177.77,431.02 L178.89,434.13 L178.09,437.3 L175.82,439.78 L171.62,440.84 L177.5,442.18 L180.33,440.11 L184.07,432.1 L184.1,428.0 L180.66,422.98 L186.04,415.62 L188.17,414.14 L190.08,414.12 L193.24,417.15 L196.35,415.6 L197.99,415.71 L199.71,418.27 L200.34,425.07 L199.42,428.61 L193.87,435.19 L188.5,443.73 L182.61,457.08 L184.21,462.1 L182.73,468.24 L186.99,474.11 L187.7,482.33 L190.54,490.2 L190.63,494.12 L189.63,495.47 L187.88,496.09 L182.66,494.76 L174.37,499.89 L170.77,504.63 L171.06,511.1 L170.32,512.83 L168.81,513.81 L166.16,513.71 L161.72,511.72 L159.38,515.83 L157.89,516.52 L155.86,515.48 L153.46,511.33 L152.77,510.71 L152.59,511.27 L155.5,520.88 L159.11,521.23 L161.17,522.71 L164.16,533.62 L167.55,537.1 L168.62,539.32 L168.59,541.05 L167.58,542.35 L165.97,542.75 L162.24,541.93 L161.52,546.8 L165.87,560.0 L168.99,565.11 L169.96,570.76 L174.19,575.44 L178.07,581.79 L178.98,581.96 L183.02,578.01 L189.04,577.25 L190.95,578.92 L194.19,587.98 L199.04,588.23 L201.16,589.49 L201.6,591.14 L200.7,592.63 L198.93,593.21 L195.38,592.8 L192.97,594.02 L199.86,604.77 L203.18,608.11 L209.92,610.31 L219.02,608.23 L220.34,609.93 L218.96,613.98 L219.48,615.23 L221.94,617.08 L226.52,618.28 L229.52,618.45 L231.16,617.76 L228.88,613.78 L229.5,612.55 L231.11,612.04 L236.35,614.04 L239.45,619.04 L241.21,620.18 L258.03,618.09 L269.02,614.13 L277.63,609.86 L294.77,598.14 L301.71,591.33 L307.37,582.0 L311.32,577.79 L314.42,575.56 L323.15,572.02 L325.08,572.11 L327.17,573.68 L329.06,578.1 L330.12,583.35 L341.66,583.48 L354.01,581.6 L358.05,581.75 L367.07,584.03 L376.66,588.56 L385.96,594.11 L396.54,597.29 L413.96,599.49 L421.87,598.32 L438.07,597.87 L448.09,601.88 L453.01,602.5 L462.8,602.48 L482.09,600.84 L489.8,601.48 L506.59,599.43 L516.43,595.4 L527.09,592.91 L535.01,591.6 L541.63,591.42 L554.03,588.72 L560.39,588.3 L599.94,579.72 L610.41,578.3 L626.16,573.06 L630.47,573.26 L660.83,563.07 L669.44,555.81 L677.29,550.72 L692.11,536.82 L694.84,530.44 L700.52,523.37 L703.23,517.34 L704.38,511.17 L707.82,505.68 L710.07,500.09 L714.39,483.74 L713.31,476.95 L716.1,470.18 L717.04,462.02 L718.51,460.3 L719.66,460.63 L720.09,462.12 L719.04,479.02 L721.74,478.9 L724.7,481.85 L728.77,486.91 L732.66,494.17 L737.85,508.23 L739.49,519.0 L739.06,530.97 L736.84,540.81 L732.46,552.6 L724.63,567.0 L710.2,583.7 L686.56,604.2 L668.83,615.63 L648.85,624.79 L629.99,631.09 L592.0,640.28 L565.97,645.28 L559.41,645.57 L554.0,647.27 L535.38,649.58 L521.98,652.28 L511.09,652.89 L496.99,655.4 L474.98,656.45 L467.04,655.6 L451.96,655.45 L440.95,654.25 L423.4,650.51 L396.16,641.77 L372.09,628.6 L358.7,618.2 L350.11,616.65 L342.43,620.11 L320.28,635.07 L310.37,639.16 L301.83,644.66 L293.56,648.47 L267.99,658.09 L252.98,661.28 L241.34,662.65Z" fill="rgb(225,212,183)"></path><path d="M243.96,162.13 L244.01,162.14Z" fill="rgb(225,212,183)"></path><path d="M246.34,164.56 L245.07,163.62 L245.57,162.67 L246.69,162.83 L246.82,164.32Z" fill="rgb(225,212,183)"></path><path d="M267.34,173.65 L250.11,167.74 L248.28,166.32 L248.56,164.59 L250.59,164.58 L264.6,169.54 L267.77,171.62 L267.83,173.35Z" fill="rgb(225,212,183)"></path><path d="M273.45,179.35 L269.39,176.06 L268.96,174.71 L269.58,173.63 L271.57,173.9 L273.68,175.9 L274.5,178.01 L273.97,179.14Z" fill="rgb(225,212,183)"></path><path d="M275.48,182.23 L274.65,180.91 L275.35,180.03 L276.29,180.48 L275.97,182.1Z" fill="rgb(225,212,183)"></path><path d="M276.79,183.91 L277.09,183.32 L277.04,183.95Z" fill="rgb(225,212,183)"></path><path d="M279.45,189.28 L277.67,187.5 L277.56,185.97 L278.37,184.98 L280.34,186.49 L279.97,189.12Z" fill="rgb(225,212,183)"></path><path d="M494.56,314.97 L490.37,306.82 L483.97,306.92 L481.05,304.39 L481.39,302.33 L483.98,300.79 L484.41,298.35 L477.99,283.85 L478.08,280.99 L479.28,277.72 L474.28,275.24 L467.67,268.62 L467.87,266.28 L470.18,263.32 L468.85,258.91 L469.47,253.16 L468.63,250.09 L462.96,249.84 L457.97,246.58 L457.55,250.96 L454.86,252.48 L449.39,249.17 L445.4,243.69 L445.74,240.21 L448.84,239.49 L453.73,242.48 L453.99,242.05 L450.35,237.95 L446.14,230.23 L441.82,225.75 L436.7,222.2 L431.15,220.65 L429.31,218.76 L429.61,216.06 L432.11,214.97 L434.56,215.84 L438.43,219.22 L439.67,219.11 L440.38,217.25 L439.17,214.32 L426.72,206.17 L422.55,204.73 L416.39,204.38 L406.69,198.2 L388.87,192.07 L379.72,187.7 L378.69,188.0 L379.66,191.2 L378.74,193.48 L375.69,194.71 L373.15,194.43 L371.58,191.86 L373.17,188.81 L372.24,185.85 L375.02,184.55 L385.06,184.63 L392.01,185.97 L414.29,195.86 L433.66,205.56 L440.98,210.33 L444.61,212.89 L449.69,218.78 L454.69,222.86 L464.49,239.22 L470.65,247.05 L473.47,252.42 L475.8,259.27 L475.95,264.14 L482.78,276.15 L484.89,283.0 L487.78,288.21 L490.35,297.63 L495.76,311.25 L495.91,313.88 L495.08,314.93Z" fill="rgb(225,212,183)"></path><path d="M280.96,190.13 L281.01,190.14Z" fill="rgb(225,212,183)"></path><path d="M281.79,191.91 L282.09,191.32 L282.04,191.95Z" fill="rgb(225,212,183)"></path><path d="M282.96,193.13 L283.01,193.14Z" fill="rgb(225,212,183)"></path><path d="M341.59,219.63 L338.09,218.59 L332.08,214.43 L331.7,212.02 L334.03,210.67 L339.0,210.98 L343.17,213.35 L344.67,217.06 L344.04,218.48 L342.24,219.53Z" fill="rgb(225,212,183)"></path><path d="M307.47,226.74 L305.42,226.0 L304.32,223.8 L304.58,222.16 L306.35,220.83 L308.31,221.41 L309.51,223.34 L309.61,225.0 L308.19,226.59Z" fill="rgb(225,212,183)"></path><path d="M288.35,259.17 L292.65,255.37 L293.46,252.88 L293.04,249.17 L289.18,242.33 L284.89,240.54 L276.15,241.65 L271.22,238.89 L270.75,240.28 L272.16,243.06 L274.96,256.8 L281.53,259.27 L287.84,259.39Z" fill="rgb(225,212,183)"></path><path d="M264.11,271.11 L267.83,265.72 L269.3,259.79 L264.69,255.2 L262.1,254.56 L260.24,254.96 L257.89,257.18 L256.36,260.36 L255.61,263.3 L255.71,268.18 L258.4,270.63 L263.71,271.38Z" fill="rgb(225,212,183)"></path><path d="M687.49,492.27 L686.03,490.87 L685.17,485.14 L682.94,479.9 L681.62,470.98 L682.75,454.95 L685.19,445.28 L681.89,430.11 L675.79,415.92 L676.06,412.99 L679.45,402.92 L677.77,391.93 L678.38,386.33 L675.94,380.99 L673.38,370.81 L668.37,363.77 L666.69,359.72 L663.21,355.91 L661.21,350.8 L659.8,350.69 L657.43,352.86 L656.02,353.04 L654.16,347.83 L638.33,350.18 L636.74,352.58 L635.63,362.82 L633.46,366.05 L630.95,366.69 L627.5,363.38 L612.12,357.77 L598.1,350.6 L588.95,344.21 L583.15,344.28 L580.39,338.96 L577.65,336.09 L572.9,335.15 L570.66,333.61 L571.28,322.48 L568.51,325.31 L564.36,326.89 L560.45,332.17 L557.91,332.98 L553.9,332.06 L555.55,338.32 L555.26,339.99 L550.9,342.1 L544.88,342.38 L545.4,347.14 L543.84,348.94 L540.97,349.35 L538.29,348.41 L537.52,347.15 L537.6,344.8 L539.58,340.02 L544.94,337.45 L546.06,335.5 L539.96,338.46 L536.67,343.17 L532.09,346.4 L530.43,350.85 L528.51,352.32 L526.34,352.14 L525.95,351.09 L526.86,349.34 L523.16,347.39 L522.45,345.91 L523.44,342.05 L522.99,335.0 L526.07,329.08 L527.61,323.38 L540.11,309.82 L542.96,302.67 L545.44,299.81 L561.22,291.51 L571.03,284.2 L590.24,275.22 L597.63,273.83 L603.27,269.37 L607.09,268.84 L613.47,271.26 L622.69,267.83 L631.04,263.19 L635.08,261.79 L638.86,262.42 L644.27,267.15 L655.07,263.72 L669.83,267.16 L674.16,269.34 L678.13,274.99 L684.59,276.54 L695.26,282.81 L706.06,283.77 L709.98,285.21 L721.17,293.33 L725.28,299.29 L732.7,305.86 L736.28,311.29 L742.65,318.05 L745.06,323.1 L745.7,330.33 L747.22,335.07 L746.42,339.61 L740.15,349.34 L731.05,368.34 L721.61,381.01 L717.76,383.78 L709.39,386.12 L706.94,388.91 L706.59,391.58 L707.67,393.65 L714.29,395.68 L715.47,396.61 L715.37,397.72 L707.98,399.38 L700.32,398.59 L687.19,401.07 L685.68,401.96 L682.99,407.88 L685.28,412.25 L693.48,419.24 L694.18,418.32 L692.54,413.81 L694.12,411.91 L701.76,412.38 L711.01,411.51 L714.88,412.12 L715.9,413.15 L716.29,416.12 L724.57,419.84 L731.71,427.86 L738.49,440.22 L740.67,442.7 L771.34,456.95 L777.71,462.8 L779.34,465.29 L779.12,466.69 L777.45,467.09 L773.72,464.81 L769.62,460.38 L757.4,458.48 L755.23,457.25 L752.58,453.87 L747.01,454.69 L745.82,453.6 L745.55,449.98 L743.33,448.9 L742.72,449.64 L743.48,454.53 L744.74,456.79 L746.76,458.93 L749.85,459.47 L753.61,461.83 L757.27,466.12 L762.85,470.7 L768.19,477.26 L773.73,481.67 L773.85,482.95 L772.1,483.58 L758.72,476.17 L744.08,469.92 L736.4,467.46 L723.73,460.2 L719.98,459.02 L719.14,456.94 L720.41,454.0 L722.32,452.43 L725.04,452.18 L727.14,453.54 L728.95,457.76 L731.18,460.12 L736.62,463.24 L739.15,463.33 L737.27,459.72 L737.19,455.32 L736.13,452.0 L731.41,443.97 L729.28,442.06 L726.12,441.49 L724.31,440.19 L719.56,432.53 L719.32,429.94 L721.11,428.46 L725.54,431.12 L724.09,425.25 L721.04,422.89 L710.9,419.36 L711.48,428.02 L710.54,435.14 L710.37,448.06 L708.61,456.3 L708.2,463.09 L706.77,466.66 L706.07,472.02 L704.99,473.8 L707.46,477.48 L707.99,486.0 L706.28,488.85 L702.53,491.43 L695.92,491.81 L692.59,489.64 L692.54,484.81 L690.36,489.66 L688.09,492.16Z" fill="rgb(225,212,183)"></path><path d="M236.99,304.18 L238.38,298.33 L236.35,293.69 L236.34,291.16 L238.71,286.35 L242.2,283.17 L243.07,277.97 L246.39,271.72 L245.69,266.13 L243.32,266.83 L240.77,270.67 L238.64,281.85 L236.76,283.65 L233.52,283.81 L231.79,285.47 L233.7,301.32 L235.1,304.01 L236.7,304.41Z" fill="rgb(225,212,183)"></path><path d="M317.54,286.78 L316.21,286.29 L315.63,285.08 L316.43,278.4 L314.49,270.86 L315.55,268.86 L319.28,267.23 L322.7,267.91 L323.84,270.99 L320.94,284.08 L318.26,286.68Z" fill="rgb(225,212,183)"></path><path d="M628.65,280.08 L631.5,270.57 L631.17,269.8 L629.75,269.72 L627.77,271.67 L627.73,278.01 L626.94,279.66 L628.55,280.41Z" fill="rgb(225,212,183)"></path><path d="M290.11,293.11 L292.3,290.03 L289.5,277.78 L283.71,272.2 L281.27,271.62 L278.79,272.49 L276.88,274.19 L274.93,277.9 L274.95,284.75 L284.72,292.48 L289.71,293.38Z" fill="rgb(225,212,183)"></path><path d="M643.43,341.15 L650.68,338.17 L653.36,333.86 L650.14,324.81 L651.49,317.96 L650.52,310.47 L645.37,303.73 L644.52,298.99 L644.77,294.93 L645.96,291.67 L652.23,284.33 L652.31,279.99 L647.09,275.93 L645.33,275.62 L643.71,276.31 L631.47,290.76 L627.16,300.56 L624.22,303.75 L621.85,305.0 L618.5,303.92 L614.94,297.9 L614.94,292.03 L618.33,283.18 L617.81,282.0 L615.8,281.7 L611.56,286.19 L604.35,290.66 L602.04,297.33 L598.23,301.02 L595.16,301.61 L590.61,300.3 L585.11,295.7 L581.32,297.82 L572.79,308.47 L574.65,316.93 L577.56,318.29 L583.02,319.0 L580.33,310.69 L580.45,307.4 L582.56,303.87 L584.19,303.16 L586.86,303.46 L591.21,307.32 L593.43,310.47 L593.92,314.0 L591.83,318.37 L595.17,321.11 L600.56,323.29 L610.86,324.48 L615.64,329.23 L623.88,328.87 L626.78,333.5 L642.99,341.35Z" fill="rgb(225,212,183)"></path><path d="M685.18,379.09 L688.17,376.37 L708.18,366.54 L712.57,361.01 L719.65,356.41 L720.3,355.11 L719.08,350.0 L720.99,345.5 L720.57,343.78 L719.25,342.82 L711.95,344.59 L710.66,343.57 L710.53,341.13 L713.72,337.93 L719.18,336.06 L721.82,336.57 L724.9,338.86 L726.54,338.68 L728.23,337.3 L728.45,336.06 L723.93,336.14 L722.17,335.38 L721.39,333.92 L722.04,331.67 L725.27,329.27 L731.2,328.39 L733.3,326.06 L729.51,311.79 L727.87,310.01 L723.14,308.58 L720.81,306.56 L716.75,296.89 L707.08,289.94 L699.08,288.56 L693.82,289.86 L692.02,289.6 L687.3,284.29 L683.29,281.52 L680.34,280.62 L678.35,281.57 L677.82,282.68 L679.0,287.1 L677.61,292.31 L677.07,302.96 L675.46,308.59 L668.92,321.6 L669.84,327.09 L667.94,330.92 L670.7,342.18 L674.99,348.1 L675.92,354.99 L678.35,352.92 L680.09,354.19 L679.65,360.73 L682.99,365.11 L683.41,368.04 L682.74,373.47 L684.89,379.33Z" fill="rgb(225,212,183)"></path><path d="M214.34,308.17 L216.48,306.25 L217.44,303.06 L216.34,294.87 L215.05,293.7 L197.48,303.32 L195.14,303.53 L188.56,301.71 L166.77,307.63 L166.94,308.26 L169.06,308.49 L213.84,308.4Z" fill="rgb(225,212,183)"></path><path d="M227.5,318.13 L228.99,316.82 L229.41,314.35 L227.78,308.93 L228.28,303.56 L227.7,302.08 L226.69,301.72 L225.77,302.71 L225.52,306.8 L227.2,318.27Z" fill="rgb(225,212,183)"></path><path d="M529.17,340.09 L538.73,332.93 L548.22,329.51 L554.8,323.62 L557.15,317.72 L555.95,312.7 L550.86,314.75 L546.95,314.92 L539.25,319.84 L537.13,323.1 L535.41,330.88 L533.87,331.67 L530.8,330.75 L527.2,335.29 L526.72,338.23 L528.85,340.33Z" fill="rgb(225,212,183)"></path><path d="M244.81,332.09 L248.28,319.77 L244.83,316.81 L240.89,319.18 L239.63,322.11 L240.69,328.32 L242.62,331.66 L244.57,332.39Z" fill="rgb(225,212,183)"></path><path d="M282.55,359.54 L279.13,357.19 L277.05,351.25 L272.53,345.55 L270.91,334.9 L273.23,330.33 L274.09,323.98 L275.33,322.7 L276.87,322.82 L277.94,324.13 L278.98,329.45 L284.23,332.29 L283.72,326.93 L284.84,317.9 L286.34,315.55 L288.11,315.02 L289.91,315.62 L290.84,317.13 L290.86,323.04 L292.93,320.39 L295.18,319.21 L297.66,319.67 L303.2,323.16 L307.57,319.9 L309.62,320.51 L309.88,323.05 L307.77,326.64 L307.59,328.68 L311.99,351.1 L311.16,353.6 L308.86,355.0 L304.72,353.85 L299.69,354.57 L297.31,353.96 L293.42,357.14 L287.77,357.72 L283.21,359.56Z" fill="rgb(225,212,183)"></path><path d="M499.56,336.89 L495.16,319.75 L495.22,317.15 L496.2,316.31 L498.08,319.02 L501.09,332.11 L501.24,334.99 L500.09,336.9Z" fill="rgb(225,212,183)"></path><path d="M234.91,350.06 L237.12,348.52 L241.23,349.29 L239.81,344.93 L240.19,340.38 L238.72,337.71 L234.83,333.89 L232.67,332.75 L231.0,333.19 L230.89,336.15 L234.73,345.2 L234.35,346.85 L231.79,349.49 L234.57,350.39Z" fill="rgb(225,212,183)"></path><path d="M500.66,339.86 L500.42,338.97 L501.15,338.4 L501.63,339.11 L501.07,339.9Z" fill="rgb(225,212,183)"></path><path d="M502.56,354.88 L501.62,352.94 L501.19,342.9 L502.24,341.19 L503.73,342.31 L504.46,346.0 L504.27,352.99 L503.09,354.9Z" fill="rgb(225,212,183)"></path><path d="M521.54,348.36 L521.47,347.79 L521.79,348.29Z" fill="rgb(225,212,183)"></path><path d="M519.54,349.36 L519.47,348.79 L519.79,349.29Z" fill="rgb(225,212,183)"></path><path d="M516.55,356.39 L515.55,355.56 L515.22,353.6 L511.96,353.48 L510.85,352.02 L512.74,349.94 L516.1,348.99 L518.39,350.19 L519.38,353.41 L518.97,355.48 L517.2,356.44Z" fill="rgb(225,212,183)"></path><path d="M646.44,363.74 L644.32,362.82 L642.52,357.51 L642.63,354.41 L644.29,352.58 L645.87,352.42 L647.98,353.58 L650.84,359.19 L650.29,361.71 L647.12,363.55Z" fill="rgb(225,212,183)"></path><path d="M509.96,354.13 L510.01,354.14Z" fill="rgb(225,212,183)"></path><path d="M508.96,355.13 L509.01,355.14Z" fill="rgb(225,212,183)"></path><path d="M503.96,356.13 L504.01,356.14Z" fill="rgb(225,212,183)"></path><path d="M507.96,356.13 L508.01,356.14Z" fill="rgb(225,212,183)"></path><path d="M505.54,357.36 L505.47,356.79 L505.79,357.29Z" fill="rgb(225,212,183)"></path><path d="M292.61,370.63 L287.03,370.04 L284.33,368.48 L284.17,363.94 L284.95,362.44 L287.14,361.06 L293.18,361.05 L295.43,362.37 L295.84,364.99 L294.65,369.04 L293.22,370.49Z" fill="rgb(225,212,183)"></path><path d="M517.55,371.38 L516.54,370.52 L516.36,368.15 L519.32,363.79 L523.24,361.22 L529.05,360.6 L532.49,362.31 L532.67,364.06 L531.67,365.48 L525.31,367.17 L518.2,371.44Z" fill="rgb(225,212,183)"></path><path d="M537.5,368.81 L535.57,367.68 L535.71,364.61 L537.54,361.86 L540.05,360.78 L550.03,362.28 L551.33,363.41 L551.54,365.06 L550.58,366.35 L548.97,366.75 L543.74,365.73 L538.25,368.7Z" fill="rgb(225,212,183)"></path><path d="M247.49,420.95 L244.43,420.05 L242.9,416.89 L244.36,411.85 L244.16,408.0 L244.93,404.87 L248.33,398.03 L262.97,376.44 L265.85,375.49 L268.2,376.19 L272.1,375.9 L274.54,376.83 L279.37,381.32 L279.37,384.37 L277.74,387.36 L286.17,382.08 L294.33,383.13 L300.15,381.62 L303.31,383.29 L304.66,381.99 L302.49,380.59 L301.78,378.98 L300.81,369.91 L301.63,367.18 L303.1,366.46 L314.17,370.03 L316.57,372.31 L316.95,374.98 L316.26,377.39 L314.7,379.49 L310.8,380.89 L311.18,383.99 L313.46,384.02 L316.67,378.83 L320.61,376.88 L322.87,376.82 L325.83,380.2 L331.99,380.97 L337.18,383.12 L340.75,388.05 L345.85,388.69 L347.38,391.98 L347.07,397.75 L345.14,398.54 L341.27,396.83 L333.97,400.25 L324.95,400.25 L319.12,398.55 L316.1,394.8 L308.7,391.95 L304.99,392.88 L301.39,391.79 L300.06,392.43 L297.25,397.02 L290.86,399.24 L289.5,398.31 L288.56,395.1 L285.33,393.59 L284.49,391.11 L283.68,390.71 L282.77,391.53 L282.24,394.82 L280.97,395.79 L282.71,397.13 L284.27,400.11 L287.97,402.0 L288.55,403.19 L286.75,407.12 L284.14,409.73 L278.3,414.07 L269.9,418.06 L262.96,418.45 L255.39,417.58 L248.25,420.81Z" fill="rgb(225,212,183)"></path><path d="M241.57,375.09 L236.01,375.03 L228.67,372.03 L226.62,369.65 L226.81,368.03 L228.18,367.03 L239.06,368.38 L244.96,367.32 L246.05,368.34 L246.33,372.06 L244.95,373.72 L242.3,374.87Z" fill="rgb(225,212,183)"></path><path d="M194.55,389.04 L191.89,388.96 L190.37,388.03 L188.26,384.77 L188.2,382.91 L190.16,381.05 L193.87,382.02 L195.84,381.09 L195.5,378.8 L196.13,377.34 L200.24,375.21 L204.94,375.14 L206.07,376.27 L205.94,377.57 L200.11,385.61 L195.29,388.79Z" fill="rgb(225,212,183)"></path><path d="M526.96,381.13 L527.01,381.14Z" fill="rgb(225,212,183)"></path><path d="M302.79,382.91 L303.09,382.32 L303.04,382.95Z" fill="rgb(225,212,183)"></path><path d="M515.49,393.52 L514.26,392.76 L512.88,389.22 L512.57,386.86 L513.2,385.5 L517.15,383.21 L524.11,380.98 L526.41,382.32 L526.39,383.98 L521.22,387.72 L517.98,392.28 L516.2,393.51Z" fill="rgb(225,212,183)"></path><path d="M385.57,395.11 L375.95,395.25 L364.06,391.84 L362.14,390.42 L362.36,388.34 L368.28,386.26 L374.26,386.27 L381.01,383.61 L386.04,384.16 L387.46,385.28 L388.35,388.0 L391.98,388.25 L393.37,390.16 L391.48,393.19 L386.3,394.9Z" fill="rgb(225,212,183)"></path><path d="M548.45,427.82 L545.52,426.95 L543.12,424.31 L542.71,422.1 L549.05,416.56 L551.01,413.9 L552.39,408.8 L551.87,405.46 L545.95,402.0 L543.35,401.59 L540.78,402.5 L536.42,406.14 L533.13,406.44 L531.0,404.1 L529.03,398.85 L529.54,396.04 L531.65,394.59 L552.01,389.61 L557.04,390.08 L559.62,392.27 L560.37,398.06 L557.73,410.52 L556.93,419.03 L555.2,421.69 L549.17,427.54Z" fill="rgb(225,212,183)"></path><path d="M717.54,398.36 L717.47,397.79 L717.79,398.29Z" fill="rgb(225,212,183)"></path><path d="M718.96,399.13 L719.01,399.14Z" fill="rgb(225,212,183)"></path><path d="M375.57,414.11 L369.95,414.44 L366.17,413.33 L365.04,410.9 L366.07,407.48 L364.36,407.99 L359.88,412.06 L357.03,412.05 L351.7,410.32 L350.1,408.88 L350.26,407.71 L345.4,406.48 L343.59,404.75 L344.2,402.78 L346.15,402.28 L349.22,399.78 L354.58,402.26 L361.21,403.39 L367.07,402.72 L372.68,403.41 L378.06,402.66 L393.98,406.21 L395.17,407.41 L395.28,408.9 L392.98,410.99 L383.97,413.28 L376.3,413.9Z" fill="rgb(225,212,183)"></path><path d="M719.96,400.13 L720.01,400.14Z" fill="rgb(225,212,183)"></path><path d="M720.96,401.13 L721.01,401.14Z" fill="rgb(225,212,183)"></path><path d="M721.59,405.86 L721.25,404.1 L722.18,403.4 L722.89,404.23 L722.08,405.9Z" fill="rgb(225,212,183)"></path><path d="M507.54,418.5 L503.47,415.8 L499.62,410.62 L499.43,408.93 L501.1,407.07 L509.15,405.0 L511.91,405.62 L512.86,408.02 L509.86,416.97 L508.19,418.44Z" fill="rgb(225,212,183)"></path><path d="M148.73,416.06 L150.11,412.75 L152.02,411.97 L153.01,413.05 L153.24,411.66 L149.12,407.93 L146.82,407.68 L145.77,408.72 L143.68,415.06 L148.58,416.39Z" fill="rgb(225,212,183)"></path><path d="M720.79,407.91 L721.09,407.32 L721.04,407.95Z" fill="rgb(225,212,183)"></path><path d="M717.63,412.44 L716.82,411.63 L717.01,410.42 L719.29,408.96 L720.37,409.58 L720.39,410.89 L718.26,412.5Z" fill="rgb(225,212,183)"></path><path d="M233.46,420.83 L231.13,420.58 L228.62,418.96 L226.92,415.88 L228.11,412.5 L233.47,409.55 L237.04,409.27 L238.46,410.34 L239.1,412.1 L238.04,416.33 L234.17,420.54Z" fill="rgb(225,212,183)"></path><path d="M524.5,429.79 L522.36,429.24 L520.66,427.6 L519.26,424.72 L519.11,421.99 L520.33,419.75 L526.22,415.49 L528.17,416.27 L527.83,419.5 L529.94,424.12 L528.69,427.15 L525.23,429.66Z" fill="rgb(225,212,183)"></path><path d="M198.49,492.91 L195.53,491.65 L195.22,487.98 L196.37,486.65 L199.78,485.95 L206.11,479.82 L208.27,474.46 L208.3,469.61 L207.07,466.24 L202.89,462.01 L200.35,461.59 L193.92,463.15 L191.57,461.69 L191.49,460.0 L202.7,451.3 L207.8,443.7 L208.42,439.45 L206.24,434.74 L205.87,431.93 L207.06,428.67 L209.2,427.19 L211.86,427.49 L213.62,429.27 L214.49,437.38 L215.37,438.37 L219.22,437.5 L230.35,429.49 L232.79,429.81 L233.66,432.07 L232.11,434.69 L223.71,440.28 L218.15,446.34 L213.73,458.54 L213.52,466.8 L214.34,473.06 L212.46,481.59 L208.39,488.98 L202.81,490.71 L199.25,492.73Z" fill="rgb(225,212,183)"></path><path d="M535.44,458.63 L532.98,457.27 L527.83,449.45 L527.56,446.04 L530.23,444.17 L540.76,442.04 L549.31,432.65 L550.87,432.81 L552.22,435.05 L551.58,440.86 L542.29,449.67 L536.13,458.43Z" fill="rgb(225,212,183)"></path><path d="M227.49,469.82 L225.45,468.66 L225.6,465.38 L236.8,451.71 L237.38,449.27 L235.99,444.85 L236.1,441.97 L240.4,436.81 L241.88,436.92 L243.23,439.05 L244.38,449.02 L243.75,453.85 L240.71,458.2 L230.68,468.18 L228.24,469.7Z" fill="rgb(225,212,183)"></path><path d="M157.43,466.26 L158.94,462.44 L163.65,458.37 L164.45,455.85 L164.04,447.24 L161.89,445.01 L158.8,444.71 L156.88,446.19 L155.19,449.27 L153.54,456.13 L153.9,462.02 L155.42,465.05 L157.14,466.33Z" fill="rgb(225,212,183)"></path><path d="M577.47,468.76 L575.42,468.0 L574.51,466.66 L574.76,463.4 L580.12,458.74 L584.0,452.92 L585.05,449.9 L587.11,448.49 L588.4,449.33 L588.73,450.79 L586.58,462.86 L583.95,465.65 L578.21,468.66Z" fill="rgb(225,212,183)"></path><path d="M142.15,461.11 L145.83,452.0 L143.86,452.46 L140.07,451.63 L139.59,453.69 L140.64,460.14 L141.85,461.34Z" fill="rgb(225,212,183)"></path><path d="M549.5,473.36 L547.25,472.31 L544.33,468.97 L542.43,465.68 L542.56,463.04 L545.24,461.16 L551.83,460.04 L558.61,454.06 L560.53,454.57 L560.53,456.87 L555.74,461.87 L550.08,473.14Z" fill="rgb(225,212,183)"></path><path d="M521.49,476.6 L518.93,474.22 L519.03,470.44 L526.77,466.14 L534.27,459.45 L535.96,459.71 L536.95,461.17 L536.16,464.56 L533.56,467.19 L528.71,470.28 L522.2,476.54Z" fill="rgb(225,212,183)"></path><path d="M173.27,494.06 L178.25,489.81 L180.06,487.08 L180.49,477.21 L179.5,473.76 L174.85,467.11 L173.82,466.95 L171.75,468.25 L167.74,475.57 L167.51,482.79 L168.48,486.36 L173.05,494.25Z" fill="rgb(225,212,183)"></path><path d="M785.45,478.28 L783.95,477.24 L779.85,470.44 L779.62,468.96 L780.38,467.93 L782.14,468.5 L785.44,473.37 L786.56,476.24 L785.97,478.12Z" fill="rgb(225,212,183)"></path><path d="M162.1,503.12 L165.39,496.69 L165.42,491.38 L164.32,486.79 L158.62,479.09 L157.03,478.56 L154.46,479.13 L152.74,481.58 L152.5,489.91 L154.87,500.13 L156.71,503.23 L161.7,503.38Z" fill="rgb(225,212,183)"></path><path d="M786.66,480.86 L786.42,479.97 L787.15,479.4 L787.63,480.11 L787.07,480.9Z" fill="rgb(225,212,183)"></path><path d="M787.79,482.91 L788.09,482.32 L788.04,482.95Z" fill="rgb(225,212,183)"></path><path d="M568.52,494.04 L565.17,493.31 L564.3,491.79 L564.65,490.03 L566.06,488.91 L571.35,487.52 L576.61,484.05 L578.01,484.09 L578.83,485.25 L577.62,488.99 L574.28,492.07 L569.28,493.87Z" fill="rgb(225,212,183)"></path><path d="M775.54,484.36 L775.47,483.79 L775.79,484.29Z" fill="rgb(225,212,183)"></path><path d="M788.96,484.13 L789.01,484.14Z" fill="rgb(225,212,183)"></path><path d="M776.96,485.13 L777.01,485.14Z" fill="rgb(225,212,183)"></path><path d="M789.79,485.91 L790.09,485.32 L790.04,485.95Z" fill="rgb(225,212,183)"></path><path d="M778.54,486.36 L778.47,485.79 L778.79,486.29Z" fill="rgb(225,212,183)"></path><path d="M781.34,488.56 L780.07,487.62 L780.57,486.67 L781.69,486.83 L781.82,488.32Z" fill="rgb(225,212,183)"></path><path d="M790.96,487.13 L791.01,487.14Z" fill="rgb(225,212,183)"></path><path d="M791.79,488.91 L792.09,488.32 L792.04,488.95Z" fill="rgb(225,212,183)"></path><path d="M784.34,490.56 L783.07,489.62 L783.57,488.67 L784.69,488.83 L784.82,490.32Z" fill="rgb(225,212,183)"></path><path d="M792.66,491.86 L792.42,490.97 L793.15,490.4 L793.63,491.11 L793.07,491.9Z" fill="rgb(225,212,183)"></path><path d="M785.96,491.13 L786.01,491.14Z" fill="rgb(225,212,183)"></path><path d="M786.96,492.13 L787.01,492.14Z" fill="rgb(225,212,183)"></path><path d="M787.96,493.13 L788.01,493.14Z" fill="rgb(225,212,183)"></path><path d="M793.79,493.91 L794.09,493.32 L794.04,493.95Z" fill="rgb(225,212,183)"></path><path d="M788.96,494.13 L789.01,494.14Z" fill="rgb(225,212,183)"></path><path d="M798.34,506.32 L797.41,508.02 L796.57,507.55 L789.92,497.44 L789.63,495.96 L790.98,494.83 L793.59,497.09 L794.62,495.43 L796.31,495.63 L798.42,500.55 L798.64,504.7Z" fill="rgb(225,212,183)"></path><path d="M211.47,521.76 L210.07,521.23 L209.2,519.78 L209.69,517.16 L214.02,515.31 L218.19,512.22 L219.96,512.47 L221.15,513.59 L221.07,516.55 L217.71,520.53 L212.22,521.75Z" fill="rgb(225,212,183)"></path><path d="M346.8,554.66 L344.48,553.48 L345.3,550.69 L356.77,543.14 L367.35,533.82 L369.35,532.91 L370.68,533.49 L371.34,535.06 L372.19,545.09 L371.15,547.72 L363.78,550.85 L347.33,554.61Z" fill="rgb(225,212,183)"></path><path d="M186.57,563.62 L184.01,562.47 L182.38,559.68 L182.79,557.2 L184.99,556.19 L191.14,556.48 L193.49,558.35 L193.54,560.85 L192.57,562.25 L187.23,563.63Z" fill="rgb(225,212,183)"></path><path d="M194.33,565.57 L192.74,564.59 L193.42,562.81 L195.09,563.57 L194.86,565.32Z" fill="rgb(225,212,183)"></path><path d="M241.5,621.83 L238.14,620.19 L235.72,615.89 L231.17,613.63 L229.97,613.73 L232.1,615.59 L232.65,617.2 L232.24,618.85 L230.86,619.93 L226.95,620.24 L220.38,618.39 L218.47,616.88 L217.53,614.68 L219.14,609.61 L209.92,612.03 L202.01,609.63 L198.35,605.95 L191.55,594.67 L191.79,593.13 L193.51,591.62 L199.91,591.49 L200.04,590.49 L198.79,589.81 L194.89,590.06 L192.52,588.72 L188.49,578.79 L183.25,579.94 L179.63,583.27 L176.67,582.91 L168.01,570.89 L167.29,565.81 L164.56,561.58 L161.92,555.1 L159.55,545.98 L159.85,542.91 L161.38,540.65 L163.03,540.25 L166.44,541.25 L167.06,539.85 L162.57,534.54 L159.57,523.11 L155.89,522.75 L153.89,521.12 L150.98,511.9 L151.66,510.18 L153.88,509.61 L158.23,515.25 L159.17,511.95 L161.2,510.2 L168.67,512.11 L169.36,510.84 L169.06,503.98 L173.21,498.62 L181.31,493.42 L184.02,493.16 L187.66,494.41 L189.2,493.63 L189.17,491.14 L185.73,481.97 L185.29,474.81 L181.06,468.85 L181.09,465.99 L182.46,462.11 L180.95,456.9 L186.94,442.67 L192.37,433.99 L197.8,427.7 L198.3,419.86 L197.58,416.88 L192.93,418.59 L189.3,415.61 L187.87,416.3 L180.19,424.9 L172.3,428.27 L169.13,428.47 L166.26,426.83 L162.01,427.67 L160.8,426.76 L160.57,425.39 L162.95,419.66 L166.35,415.26 L168.37,410.12 L174.23,402.33 L175.24,396.17 L178.19,390.86 L176.62,387.31 L176.71,383.38 L178.27,381.47 L185.05,378.53 L190.66,372.41 L191.33,371.18 L190.41,367.87 L191.34,366.48 L203.0,365.51 L210.7,366.07 L212.24,364.32 L213.21,360.02 L215.16,358.63 L217.15,359.35 L220.88,363.33 L223.25,364.3 L227.13,362.02 L230.52,362.18 L233.21,361.33 L234.83,361.65 L236.35,363.21 L237.06,365.07 L236.32,366.21 L240.45,362.68 L242.97,362.07 L257.05,364.93 L259.28,366.44 L260.31,361.11 L263.14,358.42 L258.91,359.3 L257.49,357.97 L256.96,354.26 L255.15,353.68 L249.96,355.11 L248.3,354.4 L247.58,352.38 L248.82,349.45 L252.3,345.84 L253.65,346.35 L254.93,349.2 L260.32,349.01 L263.24,338.15 L266.21,332.67 L266.17,326.15 L263.22,320.77 L259.73,308.93 L262.08,301.83 L265.06,298.06 L265.45,294.48 L264.78,292.83 L263.97,293.24 L263.16,298.1 L261.67,300.46 L258.9,301.08 L256.44,300.16 L253.35,296.95 L250.94,291.89 L250.78,287.93 L251.97,284.67 L254.27,282.38 L259.02,281.53 L263.85,282.26 L267.03,284.71 L270.25,292.05 L269.68,308.3 L270.41,309.92 L275.24,312.54 L275.84,314.98 L275.34,319.24 L280.06,304.91 L281.45,302.86 L296.17,294.34 L301.1,292.42 L297.04,291.64 L295.54,289.68 L296.42,282.37 L293.59,271.95 L294.07,268.97 L295.31,266.85 L302.62,261.24 L303.37,259.88 L303.07,258.31 L298.69,254.58 L297.65,251.98 L297.77,242.94 L300.02,237.66 L304.1,234.94 L310.03,235.17 L311.43,236.36 L311.82,239.04 L306.95,246.7 L307.46,249.05 L309.11,250.19 L310.28,249.81 L311.03,248.99 L310.9,245.14 L312.24,244.21 L314.84,244.59 L318.44,249.46 L319.25,255.21 L321.12,253.81 L323.07,250.1 L323.3,244.67 L320.22,237.03 L313.63,231.76 L297.0,233.46 L284.37,232.58 L276.85,234.81 L272.28,233.94 L267.25,238.05 L264.81,238.71 L263.2,238.2 L262.25,235.97 L264.25,230.64 L264.08,228.95 L252.92,211.27 L250.11,202.0 L247.22,196.76 L245.34,187.67 L240.9,175.9 L240.42,169.38 L239.01,163.85 L239.64,161.17 L241.08,160.39 L242.62,160.64 L250.32,165.82 L262.88,170.23 L269.0,173.37 L274.65,179.03 L285.25,195.25 L289.27,197.32 L290.17,196.22 L289.51,191.0 L289.75,178.95 L293.66,163.16 L296.09,161.9 L299.82,162.32 L301.3,161.68 L316.86,146.29 L322.91,141.31 L325.2,140.32 L327.56,140.98 L329.24,143.94 L330.7,153.39 L333.28,163.03 L335.4,181.01 L335.16,187.1 L332.88,189.94 L326.24,190.96 L320.64,195.44 L308.78,200.49 L297.97,209.22 L297.03,211.97 L302.75,214.04 L306.85,218.69 L307.32,220.88 L305.83,223.53 L306.88,224.99 L308.17,224.75 L307.34,221.79 L307.76,220.15 L310.06,218.79 L313.09,218.86 L314.79,219.7 L315.66,222.07 L313.91,224.97 L315.99,223.87 L316.29,218.82 L311.06,213.34 L310.6,210.99 L312.05,209.26 L319.98,204.85 L320.16,198.96 L321.9,196.31 L325.11,194.99 L327.65,196.0 L331.41,200.36 L331.86,204.67 L333.34,205.24 L337.91,201.67 L338.39,200.31 L337.22,198.5 L331.99,195.46 L331.43,193.85 L332.19,192.36 L351.03,184.73 L356.05,184.76 L361.15,186.2 L368.05,184.65 L371.85,185.27 L374.39,187.38 L374.47,189.85 L372.98,191.85 L374.29,193.16 L377.97,192.02 L377.25,188.81 L377.69,187.09 L379.16,186.18 L380.84,186.29 L389.64,190.39 L407.61,196.58 L417.71,203.05 L422.97,202.98 L429.67,205.57 L439.98,212.52 L442.12,217.11 L441.32,219.83 L438.87,220.92 L436.44,220.15 L431.94,216.59 L430.77,216.82 L430.98,218.46 L437.61,220.58 L443.17,224.3 L447.65,229.05 L451.49,236.22 L455.1,240.58 L455.16,242.94 L453.79,243.79 L451.48,243.23 L447.83,240.82 L446.96,241.14 L446.98,242.88 L449.72,246.78 L454.98,251.05 L456.2,250.36 L456.68,246.09 L458.18,245.22 L460.55,245.85 L463.47,248.21 L468.98,248.37 L470.73,250.26 L471.34,254.06 L470.62,258.73 L471.7,264.07 L468.82,267.57 L475.37,273.91 L479.05,275.17 L480.8,277.2 L479.72,283.38 L483.78,291.15 L486.21,298.08 L485.35,301.84 L482.02,303.1 L484.64,305.23 L490.98,305.43 L493.06,307.89 L496.09,316.01 L503.09,344.1 L503.57,353.53 L504.91,355.97 L506.68,355.81 L513.13,352.05 L515.7,352.59 L517.11,354.97 L518.03,354.08 L517.5,351.87 L518.26,349.73 L523.12,346.96 L526.07,347.0 L527.64,347.91 L528.25,350.06 L527.26,351.43 L528.99,349.81 L530.82,345.28 L535.25,341.81 L538.78,337.14 L544.14,334.11 L546.7,334.63 L547.39,335.9 L547.04,337.38 L545.31,339.18 L540.9,341.27 L538.85,347.4 L543.91,347.18 L543.35,343.53 L544.44,341.27 L554.12,339.49 L552.31,333.69 L552.82,331.28 L554.13,330.54 L558.81,331.02 L563.28,325.51 L567.51,323.89 L571.03,321.46 L572.56,322.49 L573.39,326.04 L571.93,332.77 L578.7,334.75 L581.81,337.98 L584.0,342.96 L588.1,342.41 L590.98,343.22 L599.15,349.04 L610.3,354.86 L628.37,361.9 L631.76,365.36 L634.23,361.34 L635.0,352.0 L637.55,348.78 L654.18,346.42 L656.41,348.51 L656.34,352.23 L658.33,349.53 L660.12,349.01 L661.96,349.49 L663.54,351.43 L664.67,355.02 L668.19,358.52 L669.95,362.77 L675.01,369.91 L677.66,380.32 L680.12,386.09 L679.59,391.68 L681.26,403.07 L677.59,415.65 L683.08,427.9 L686.28,440.0 L686.84,446.0 L684.61,455.3 L683.52,470.81 L684.7,479.33 L686.54,484.2 L687.67,491.06 L691.51,483.99 L693.61,484.42 L693.96,488.81 L696.79,490.31 L701.65,489.82 L705.04,487.57 L706.26,485.45 L706.02,478.57 L703.97,473.3 L708.39,448.7 L709.56,420.51 L710.5,418.58 L714.19,418.71 L721.14,420.94 L725.62,424.18 L727.17,429.06 L726.36,431.66 L724.46,432.08 L720.77,429.65 L720.92,431.09 L724.28,437.29 L726.93,439.99 L731.73,441.75 L736.68,449.06 L738.55,453.47 L738.74,458.46 L740.45,463.19 L738.84,465.04 L735.17,464.62 L728.83,460.66 L724.97,454.01 L723.67,453.76 L722.29,454.71 L718.93,461.9 L717.84,470.81 L714.84,477.2 L716.23,481.05 L716.23,484.05 L711.76,500.83 L709.43,506.63 L706.0,512.08 L704.95,518.02 L702.13,524.3 L696.0,532.13 L693.17,538.61 L678.57,552.19 L671.23,556.86 L662.51,564.26 L631.72,574.74 L626.53,574.74 L610.9,580.1 L599.58,581.69 L559.97,590.28 L553.59,590.7 L541.97,593.28 L527.61,594.7 L517.11,597.12 L506.98,601.27 L489.99,603.4 L482.24,602.62 L455.0,604.5 L448.19,603.84 L437.89,599.63 L431.0,600.49 L422.53,599.76 L413.97,601.41 L396.03,599.08 L385.11,595.76 L375.66,590.15 L366.3,585.72 L358.47,583.73 L353.37,583.58 L339.98,585.45 L329.84,584.75 L327.91,582.92 L327.3,578.67 L325.51,574.11 L324.22,573.62 L313.71,578.28 L308.88,583.18 L303.17,592.61 L297.68,598.21 L279.3,611.07 L269.85,615.79 L257.9,620.07 L242.23,621.77Z" fill="rgb(189,47,32)"></path><path d="M345.44,180.67 L343.93,180.35 L342.9,179.0 L340.72,170.97 L340.63,166.94 L341.97,159.0 L344.23,153.12 L346.96,147.66 L349.35,145.53 L351.07,145.42 L352.48,146.35 L353.36,151.06 L351.06,165.98 L346.12,180.36Z" fill="rgb(189,47,32)"></path><path d="M300.96,207.13 L301.01,207.14Z" fill="rgb(189,47,32)"></path><path d="M342.23,218.09 L343.16,216.47 L340.28,213.52 L337.69,212.61 L332.77,212.64 L342.0,218.28Z" fill="rgb(189,47,32)"></path><path d="M287.57,261.09 L281.04,261.07 L276.14,259.74 L274.07,258.35 L269.19,239.84 L269.75,238.21 L271.22,237.37 L272.86,237.53 L277.17,240.19 L282.04,238.73 L286.07,238.77 L289.33,240.02 L291.03,241.71 L295.0,249.11 L295.35,253.08 L293.69,257.15 L288.3,260.86Z" fill="rgb(189,47,32)"></path><path d="M263.55,273.05 L260.91,273.21 L256.83,271.97 L254.86,270.46 L253.76,267.97 L253.76,262.95 L255.24,258.1 L257.34,254.83 L260.13,253.03 L263.07,252.81 L266.32,254.02 L270.02,257.61 L271.11,260.1 L270.59,263.59 L268.43,268.67 L266.67,271.15 L264.29,272.79Z" fill="rgb(189,47,32)"></path><path d="M236.48,305.9 L233.49,304.88 L231.94,301.9 L230.18,284.96 L232.33,282.51 L235.73,282.37 L236.81,281.59 L239.05,269.98 L241.52,266.01 L243.51,264.66 L245.99,264.68 L247.17,265.74 L248.26,269.05 L248.22,272.07 L244.77,278.67 L243.67,283.97 L240.53,286.89 L237.95,291.69 L240.14,299.05 L238.89,304.02 L237.23,305.68Z" fill="rgb(189,47,32)"></path><path d="M318.11,285.13 L319.5,282.59 L322.21,270.4 L320.96,268.7 L316.37,270.46 L316.01,271.49 L318.38,279.02 L318.02,282.98 L316.78,285.48 L317.77,285.38Z" fill="rgb(189,47,32)"></path><path d="M628.46,281.63 L627.1,281.48 L625.77,279.8 L625.65,273.94 L626.45,270.14 L628.29,268.41 L631.96,268.58 L633.21,271.08 L632.31,275.38 L629.11,281.33Z" fill="rgb(189,47,32)"></path><path d="M289.55,295.05 L286.9,295.19 L283.67,294.04 L274.39,287.07 L273.01,284.89 L272.56,280.96 L273.54,276.41 L275.89,272.39 L279.26,270.24 L282.07,269.87 L285.33,270.96 L289.21,274.32 L291.45,277.45 L293.97,290.12 L293.14,292.55 L290.29,294.79Z" fill="rgb(189,47,32)"></path><path d="M642.5,342.83 L639.7,342.12 L626.33,335.4 L624.47,333.74 L622.9,329.97 L617.92,331.22 L614.97,330.92 L609.53,325.79 L600.9,325.26 L594.01,322.63 L590.51,318.73 L592.24,313.64 L591.82,311.36 L585.56,304.79 L583.33,305.68 L581.8,309.13 L582.9,314.71 L584.64,318.2 L584.2,319.8 L582.82,320.69 L577.01,320.05 L573.91,318.51 L572.64,316.18 L571.03,308.88 L571.85,306.45 L579.51,297.01 L583.31,294.4 L586.84,294.59 L591.4,298.63 L595.41,300.02 L597.27,299.49 L600.48,296.28 L602.07,290.95 L603.45,288.86 L609.77,285.14 L613.61,281.01 L616.12,279.92 L618.83,280.68 L619.96,283.1 L616.73,292.54 L616.7,297.32 L619.76,302.63 L622.08,303.28 L626.0,298.87 L628.01,292.84 L630.81,288.4 L637.13,281.8 L641.34,275.83 L645.1,273.89 L647.84,274.33 L652.02,277.31 L653.78,279.19 L654.33,281.04 L653.58,285.86 L646.94,293.92 L646.5,299.9 L646.96,302.76 L651.19,307.52 L652.26,309.83 L653.44,318.05 L651.7,323.88 L655.14,333.11 L654.61,335.83 L651.9,339.55 L643.23,342.74Z" fill="rgb(189,47,32)"></path><path d="M684.49,380.53 L682.85,379.09 L681.06,373.84 L681.29,365.82 L678.1,360.89 L678.89,354.01 L676.51,355.8 L675.28,355.62 L674.46,354.51 L673.04,348.24 L669.01,342.92 L666.44,330.9 L668.3,327.0 L667.19,322.85 L667.67,319.64 L673.81,307.73 L675.27,302.47 L675.63,292.93 L677.31,287.1 L676.3,281.93 L677.56,279.86 L681.07,278.88 L683.61,279.58 L688.01,282.39 L692.61,288.19 L699.07,286.73 L707.0,287.98 L709.99,289.37 L717.98,295.52 L719.78,298.23 L720.9,303.0 L722.27,305.28 L724.12,306.99 L728.86,308.44 L731.07,310.73 L734.96,326.12 L734.51,327.86 L732.81,329.61 L725.96,330.91 L722.73,333.96 L728.11,334.27 L729.56,335.32 L729.64,337.98 L728.08,339.75 L724.39,340.41 L719.46,337.75 L714.78,339.49 L711.82,342.18 L712.69,343.18 L719.2,341.24 L721.96,342.8 L722.53,345.86 L720.69,350.85 L721.94,355.12 L720.66,358.16 L714.33,361.89 L709.29,368.03 L685.21,380.55Z" fill="rgb(189,47,32)"></path><path d="M213.57,310.09 L168.95,310.41 L165.6,308.68 L165.69,307.02 L167.82,305.65 L188.14,299.96 L190.99,300.01 L196.31,301.98 L211.74,292.93 L215.13,292.07 L216.85,292.69 L217.94,294.12 L219.27,303.07 L217.98,307.33 L214.3,309.86Z" fill="rgb(189,47,32)"></path><path d="M226.53,319.43 L224.76,316.95 L223.57,304.95 L224.68,301.18 L227.11,300.23 L228.71,300.9 L229.92,303.17 L229.59,308.64 L231.25,315.09 L229.89,318.47 L227.2,319.52Z" fill="rgb(189,47,32)"></path><path d="M528.47,341.76 L527.04,341.44 L525.4,339.71 L525.26,335.15 L529.46,329.77 L531.12,329.28 L534.26,330.06 L534.94,324.03 L536.9,319.43 L545.47,313.57 L550.51,313.18 L554.29,311.31 L556.11,311.27 L557.64,312.24 L558.74,316.31 L558.54,318.82 L555.81,325.27 L549.3,331.07 L540.37,334.17 L529.21,341.65Z" fill="rgb(189,47,32)"></path><path d="M244.45,333.82 L242.1,333.52 L239.93,331.27 L237.85,322.9 L238.96,318.67 L242.5,315.61 L245.03,315.21 L247.33,315.98 L249.15,317.55 L250.12,320.09 L247.01,331.03 L245.17,333.52Z" fill="rgb(189,47,32)"></path><path d="M283.5,358.12 L287.12,356.02 L292.12,355.93 L297.17,352.75 L304.19,352.2 L309.06,353.3 L310.31,351.09 L308.73,345.97 L308.3,339.59 L305.78,328.92 L306.08,325.97 L308.76,320.97 L305.41,324.1 L303.8,324.68 L301.46,324.14 L296.07,320.7 L290.84,324.29 L289.52,323.57 L288.82,321.91 L289.37,316.98 L287.36,316.89 L285.61,326.21 L286.02,331.1 L285.35,332.82 L283.16,333.47 L278.38,331.18 L276.86,328.94 L275.76,323.75 L275.19,330.09 L272.64,335.15 L274.17,344.69 L278.62,350.26 L280.14,355.54 L283.19,358.27Z" fill="rgb(189,47,32)"></path><path d="M234.49,351.91 L231.94,351.77 L230.39,349.78 L230.67,348.15 L233.18,345.31 L228.97,335.85 L229.21,332.97 L230.36,331.57 L233.01,331.09 L235.99,332.37 L240.19,336.44 L241.66,339.3 L241.59,344.59 L242.75,348.19 L242.31,349.91 L239.99,350.86 L237.27,349.92 L235.19,351.58Z" fill="rgb(189,47,32)"></path><path d="M647.13,362.19 L648.92,361.09 L649.24,359.63 L647.12,355.33 L644.76,353.77 L644.0,356.44 L645.5,361.91 L646.73,362.43Z" fill="rgb(189,47,32)"></path><path d="M293.11,369.23 L294.33,364.15 L293.86,363.0 L288.34,362.61 L286.76,363.26 L284.91,367.7 L292.94,369.35Z" fill="rgb(189,47,32)"></path><path d="M518.27,370.06 L523.73,365.86 L531.0,363.9 L531.33,362.97 L529.81,362.54 L523.37,363.17 L518.89,367.17 L517.76,369.1 L518.06,370.26Z" fill="rgb(189,47,32)"></path><path d="M538.2,367.11 L543.15,364.05 L550.03,365.0 L549.48,363.77 L540.46,362.58 L537.64,364.73 L536.65,367.2 L537.79,367.36Z" fill="rgb(189,47,32)"></path><path d="M248.37,419.16 L255.05,415.75 L263.05,416.49 L270.02,416.1 L277.22,412.51 L284.51,406.99 L287.61,402.84 L285.13,402.64 L283.02,401.4 L280.09,395.83 L281.27,390.95 L283.21,389.3 L285.62,390.23 L286.37,393.02 L289.66,394.07 L290.7,396.26 L290.5,398.45 L296.63,395.21 L298.87,391.28 L301.17,390.22 L305.8,391.36 L310.35,390.87 L316.96,393.44 L320.14,397.0 L324.53,398.27 L333.53,398.43 L341.16,395.36 L346.04,397.11 L344.87,390.02 L339.4,389.16 L337.11,385.37 L335.58,384.36 L331.43,382.74 L325.02,381.67 L322.09,377.99 L317.1,380.54 L315.65,383.87 L313.76,385.72 L310.16,385.33 L309.09,383.86 L309.08,380.92 L310.2,379.36 L314.03,377.74 L315.25,373.68 L313.26,371.65 L305.62,369.31 L302.96,367.76 L303.62,380.24 L303.0,382.13 L304.38,381.01 L305.75,382.29 L305.27,383.83 L303.79,384.73 L302.04,384.59 L300.07,382.97 L294.38,384.64 L286.55,383.73 L280.46,388.23 L277.97,388.65 L276.65,386.98 L278.03,382.69 L277.27,381.24 L272.42,377.77 L264.94,377.06 L249.87,399.14 L246.88,404.94 L245.8,408.17 L246.1,412.1 L244.62,416.68 L246.04,419.01 L247.89,419.38Z" fill="rgb(189,47,32)"></path><path d="M242.37,373.17 L245.18,371.68 L244.51,368.72 L238.95,370.14 L227.86,368.46 L229.73,370.48 L235.9,373.07 L241.85,373.39Z" fill="rgb(189,47,32)"></path><path d="M195.18,387.11 L198.71,384.3 L202.74,378.23 L205.11,376.45 L201.66,376.7 L196.87,378.44 L197.2,381.08 L196.03,382.75 L193.88,383.45 L190.46,382.53 L189.61,383.19 L191.47,386.9 L194.73,387.38Z" fill="rgb(189,47,32)"></path><path d="M516.09,392.13 L519.33,386.83 L526.55,381.71 L514.09,386.78 L515.85,392.36Z" fill="rgb(189,47,32)"></path><path d="M386.55,393.19 L389.76,392.05 L392.06,390.2 L387.94,389.1 L386.13,386.38 L384.64,385.62 L380.41,385.57 L374.85,387.95 L369.53,387.74 L362.82,389.33 L375.53,393.27 L385.93,393.39Z" fill="rgb(189,47,32)"></path><path d="M548.87,426.05 L555.23,418.33 L555.75,410.95 L558.39,398.7 L558.06,393.26 L556.32,391.77 L551.46,391.57 L546.98,393.24 L530.8,396.83 L531.18,399.72 L534.2,405.15 L539.73,400.93 L544.08,399.74 L550.9,402.31 L553.34,404.49 L554.21,409.05 L552.62,414.85 L550.29,417.87 L543.96,422.83 L547.08,426.02 L548.59,426.38Z" fill="rgb(189,47,32)"></path><path d="M693.47,420.74 L691.41,420.12 L684.39,414.08 L681.55,407.88 L683.5,402.38 L685.02,400.29 L692.1,397.9 L700.07,396.77 L706.96,397.49 L715.07,396.78 L719.61,398.84 L722.19,403.07 L722.01,406.0 L720.63,408.99 L715.89,412.99 L701.91,414.16 L693.88,413.46 L695.73,418.17 L694.19,420.59Z" fill="rgb(189,47,32)"></path><path d="M376.59,412.18 L388.41,410.33 L392.75,409.1 L393.73,407.87 L377.95,404.54 L360.95,405.21 L353.15,403.75 L349.32,400.96 L347.54,403.22 L344.51,403.9 L350.77,406.6 L350.91,408.66 L359.46,410.47 L363.43,406.67 L365.97,406.26 L367.36,407.91 L366.67,410.82 L367.23,412.0 L375.94,412.39Z" fill="rgb(189,47,32)"></path><path d="M508.12,417.14 L511.37,406.98 L509.55,406.71 L500.83,409.22 L504.89,414.67 L507.99,417.3Z" fill="rgb(189,47,32)"></path><path d="M148.48,417.68 L143.9,416.95 L142.33,414.86 L144.17,407.96 L146.16,406.11 L149.0,406.02 L151.33,406.96 L153.69,408.9 L154.83,411.18 L154.23,413.61 L152.97,414.01 L151.98,412.98 L149.12,417.37Z" fill="rgb(189,47,32)"></path><path d="M233.87,419.05 L237.07,414.12 L236.87,411.01 L234.92,410.92 L229.02,414.15 L228.61,415.67 L229.3,417.13 L233.59,419.38Z" fill="rgb(189,47,32)"></path><path d="M525.16,428.09 L528.3,424.12 L526.28,419.83 L526.77,416.7 L521.55,420.93 L520.75,422.37 L522.1,426.54 L524.84,428.33Z" fill="rgb(189,47,32)"></path><path d="M177.52,443.82 L171.93,442.94 L170.45,440.84 L171.27,439.36 L175.84,437.55 L177.35,434.21 L176.42,431.76 L176.53,429.4 L178.23,426.7 L181.27,424.35 L183.05,424.28 L185.01,425.75 L186.2,431.06 L181.74,441.11 L178.23,443.68Z" fill="rgb(189,47,32)"></path><path d="M199.14,491.1 L202.1,489.01 L207.11,487.71 L211.07,480.09 L212.46,472.95 L211.54,466.0 L211.76,458.95 L216.57,445.33 L221.86,439.29 L230.28,433.7 L232.24,431.52 L231.75,430.83 L230.52,431.31 L220.27,439.07 L215.91,440.16 L214.04,439.45 L212.91,437.92 L212.06,430.26 L210.56,428.78 L209.28,428.94 L207.62,432.73 L210.23,439.05 L209.42,444.61 L203.56,453.15 L192.62,460.8 L194.66,461.41 L201.09,459.74 L203.86,460.42 L208.19,464.5 L210.09,469.1 L210.24,474.05 L208.42,479.63 L203.0,485.62 L200.54,487.25 L196.97,488.2 L196.86,490.64 L198.76,491.36Z" fill="rgb(189,47,32)"></path><path d="M535.87,457.06 L540.83,448.39 L549.99,439.89 L550.07,433.99 L545.7,440.17 L541.74,443.63 L528.82,446.66 L535.68,457.36Z" fill="rgb(189,47,32)"></path><path d="M228.13,468.11 L240.25,455.82 L242.06,453.08 L242.42,448.37 L240.97,438.05 L237.64,443.14 L239.14,449.1 L238.42,452.61 L227.52,465.71 L226.58,468.05 L227.77,468.36Z" fill="rgb(189,47,32)"></path><path d="M156.56,467.59 L154.14,466.21 L152.21,462.76 L151.75,454.95 L153.24,449.15 L155.41,445.0 L157.28,443.38 L160.09,442.75 L163.56,443.85 L165.63,446.27 L166.39,449.01 L166.36,456.08 L165.15,459.56 L160.0,463.94 L158.95,466.69 L157.22,467.57Z" fill="rgb(189,47,32)"></path><path d="M793.48,498.35 L791.81,497.65 L783.81,489.87 L767.39,479.17 L764.01,474.47 L751.81,462.87 L744.31,459.18 L742.01,455.98 L740.96,451.85 L741.24,449.02 L742.37,447.78 L744.61,447.6 L746.71,448.89 L747.43,450.33 L747.18,453.13 L753.01,452.53 L758.04,456.88 L770.37,458.87 L774.89,463.47 L778.61,465.89 L784.07,473.7 L792.44,488.42 L794.98,495.12 L794.07,498.14Z" fill="rgb(189,47,32)"></path><path d="M578.23,467.09 L584.99,461.88 L586.92,449.66 L585.62,453.84 L581.99,459.38 L575.95,464.71 L576.25,466.29 L577.88,467.33Z" fill="rgb(189,47,32)"></path><path d="M141.47,462.73 L139.05,460.88 L137.81,453.92 L138.57,451.06 L140.16,450.05 L146.08,451.04 L147.21,453.13 L144.97,460.17 L142.21,462.64Z" fill="rgb(189,47,32)"></path><path d="M549.7,472.09 L550.27,468.05 L554.29,460.97 L559.87,454.97 L555.94,459.55 L553.48,461.26 L543.82,463.66 L545.85,467.83 L549.74,472.35Z" fill="rgb(189,47,32)"></path><path d="M522.09,475.13 L526.32,469.79 L534.24,463.84 L535.48,461.05 L534.43,461.04 L527.95,467.65 L520.37,471.45 L520.03,472.37 L521.84,475.36Z" fill="rgb(189,47,32)"></path><path d="M172.53,495.49 L169.94,493.3 L166.21,485.76 L165.55,477.96 L166.24,474.17 L169.4,468.0 L171.76,465.96 L174.18,465.38 L176.8,466.8 L181.45,473.45 L182.4,477.01 L182.48,483.02 L182.02,487.0 L180.62,489.99 L177.97,492.65 L173.2,495.48Z" fill="rgb(189,47,32)"></path><path d="M161.57,505.07 L156.9,505.16 L154.52,503.78 L150.91,492.9 L150.78,481.93 L152.23,478.73 L154.26,477.26 L157.09,476.81 L159.72,477.83 L164.82,483.88 L166.26,486.83 L167.4,492.01 L167.23,497.06 L165.04,502.34 L162.29,504.79Z" fill="rgb(189,47,32)"></path><path d="M569.5,492.18 L574.28,489.72 L577.87,484.97 L572.27,489.14 L565.81,490.69 L566.63,492.26 L568.92,492.39Z" fill="rgb(189,47,32)"></path><path d="M212.63,520.17 L217.12,518.7 L220.05,515.02 L218.64,513.76 L214.85,516.79 L211.01,518.12 L210.81,519.7 L212.09,520.34Z" fill="rgb(189,47,32)"></path><path d="M347.52,553.13 L350.83,551.71 L363.14,549.11 L369.91,546.61 L370.44,545.02 L369.54,539.0 L369.89,534.02 L358.57,544.19 L345.68,552.53 L345.4,553.19 L347.15,553.32Z" fill="rgb(189,47,32)"></path><path d="M194.41,564.82 L190.9,557.97 L184.57,557.74 L183.83,558.31 L184.18,559.67 L186.55,561.99 L191.96,562.31 L194.48,564.83Z" fill="rgb(189,47,32)"></path></svg>